<?xml version="1.0" encoding="utf-8"?>
<!-- Generator: Adobe Illustrator 24.1.1, SVG Export Plug-In . SVG Version: 6.00 Build 0)  -->
<svg version="1.1" id="Capa_1" xmlns="http://www.w3.org/2000/svg" xmlns:xlink="http://www.w3.org/1999/xlink" x="0px" y="0px"
	 viewBox="0 0 290 700" style="enable-background:new 0 0 290 700;" xml:space="preserve">
<style type="text/css">
	.Sombra_x0020_paralela{fill:none;}
	.Resplandor_x0020_externo_x0020_5_x0020_pt_x002E_{fill:none;}
	.Neón_x0020_azul{fill:none;stroke:#8AACDA;stroke-width:7;stroke-linecap:round;stroke-linejoin:round;}
	.Resalte_x0020_cromado{fill:url(#SVGID_1_);stroke:#FFFFFF;stroke-width:0.3629;stroke-miterlimit:1;}
	.A_x0020_todo_x0020_ritmo_GS{fill:#FFDD00;}
	.Alyssa_GS{fill:#A6D0E4;}
	.st0{fill:#6B982B;}
	.st1{fill:#366B2B;}
	.st2{fill:#002E16;}
	.st3{opacity:0.49;fill:#002E16;enable-background:new    ;}
	.st4{opacity:0.56;fill:#002E16;enable-background:new    ;}
	.st5{opacity:0.5;fill:#001F16;enable-background:new    ;}
	.st6{opacity:0.53;fill:#001F16;enable-background:new    ;}
	.st7{opacity:0.68;fill:#001F16;enable-background:new    ;}
	.st8{opacity:0.71;fill:#001F16;enable-background:new    ;}
	.st9{fill:#FFB400;}
	.st10{fill:#751E1E;}
	.st11{fill:#407710;}
	.st12{fill:#B11A00;}
	.st13{fill:#FFFFFF;}
	.st14{opacity:0.24;fill:#FFFFFF;enable-background:new    ;}
	.st15{opacity:0.74;fill:#430000;enable-background:new    ;}
	.st16{fill:#430000;}
	.st17{fill:#606060;}
	.st18{opacity:0.33;enable-background:new    ;}
	.st19{opacity:0.44;fill:#6A0000;enable-background:new    ;}
	.st20{opacity:0.35;fill:#FFFFFF;enable-background:new    ;}
	.st21{opacity:0.61;fill:#FFFFFF;enable-background:new    ;}
	.st22{opacity:0.19;fill:#FFFFFF;enable-background:new    ;}
	.st23{opacity:0.24;enable-background:new    ;}
	.st24{opacity:0.26;enable-background:new    ;}
	.st25{opacity:0.28;enable-background:new    ;}
	.st26{opacity:0.39;fill:#6A0000;enable-background:new    ;}
	.st27{opacity:0.42;fill:#6A0000;enable-background:new    ;}
	.st28{opacity:0.47;fill:#6A0000;enable-background:new    ;}
	.st29{opacity:0.43;fill:#6A0000;enable-background:new    ;}
	.st30{opacity:0.42;enable-background:new    ;}
	.st31{opacity:0.25;enable-background:new    ;}
	.st32{opacity:0.35;fill:#6A0000;enable-background:new    ;}
	.st33{opacity:0.44;}
	.st34{fill:#6A0000;}
	.st35{fill:#520000;}
	.st36{fill:#020202;}
	.st37{fill:none;stroke:#020202;stroke-width:2.8149;stroke-miterlimit:10;}
	.st38{fill:none;stroke:#020202;stroke-width:5.6298;stroke-miterlimit:10;}
	.st39{fill:none;stroke:#020202;stroke-width:4.2222;stroke-miterlimit:9.9995;}
	.st40{fill:none;stroke:#020202;stroke-width:4.2224;stroke-miterlimit:10;}
	.st41{fill:none;stroke:#020202;stroke-width:3.8751;stroke-miterlimit:10;}
	.st42{fill:#020202;stroke:#020202;stroke-width:4.3673;stroke-miterlimit:10;}
	.st43{fill:none;stroke:#020202;stroke-width:4.3673;stroke-miterlimit:10;}
	.st44{fill:none;stroke:#020202;stroke-width:4.7471;stroke-miterlimit:10;}
	.st45{opacity:0.54;fill:#001F16;enable-background:new    ;}
	.st46{opacity:0.61;fill:#001F16;enable-background:new    ;}
	.st47{opacity:0.49;fill:#001F16;enable-background:new    ;}
	.st48{opacity:0.6;fill:#001F16;enable-background:new    ;}
	.st49{opacity:0.53;enable-background:new    ;}
	.st50{opacity:0.38;fill:#FFFFFF;enable-background:new    ;}
</style>
<linearGradient id="SVGID_1_" gradientUnits="userSpaceOnUse" x1="0" y1="0" x2="6.123234e-17" y2="-1">
	<stop  offset="0" style="stop-color:#656565"/>
	<stop  offset="0.618" style="stop-color:#1B1B1B"/>
	<stop  offset="0.6292" style="stop-color:#545454"/>
	<stop  offset="0.9831" style="stop-color:#3E3E3E"/>
</linearGradient>
<g id="Capa_1_1_">
	<g>
		<path class="st0" d="M290.3,554V163.9H135.6l4.2,37c0,0,5.3,35.7,1.1,43.3c-4.2,7.6,28.7,44.5,30.1,49.5
			c1.5,5.1,11.1,33.6,10.6,46.9c-0.4,13.2,12.8,38.4,33.5,64.7c0,0,9.4,25.2,9.6,39.1c0,13.9,30.3,42.8,30.3,42.8l20.5,51.1
			L290.3,554z"/>
		<path class="st1" d="M292.1,12.6c0,0-46,1.3-70.7,12.5s-1.3-1.5-1.3-1.5S148.7,6.6,132,17.5s-29.8,12.8-33.6,65.7
			c-3.8,52.8,12.9,88,26,95.8l18.9-2c0,0,50.2,8.3,62.2,0.8l24.5,5.8l40.8,5.6l23.9,2.4"/>
		<polyline class="st1" points="178.4,183 205.2,175 227.1,183.1 227.1,200.9 213.2,212.8 200.7,215.8 184.5,201.2 		"/>
		<path class="st1" d="M192.9,373.3c0,0-11.5-35-14.4-49.8c0,0-14.2,2.5-9.7,20.8C173.4,362.7,180.7,389.6,192.9,373.3z"/>
		<polyline class="st1" points="262,475 272.7,475.3 281,468.7 284.1,455.1 279.3,442.4 262,432.7 253.4,438 247.7,450.3 
			250.2,463.9 		"/>
		<path class="st2" d="M269.8,348.5c0,0-24.1,12.9-49.7-0.7c-25.6-13.7-30.8-89.2-29-97.7c0,0,40.4,5.3,62.2,52.2
			S269.8,348.5,269.8,348.5z"/>
		<path class="st1" d="M196.2,19.4c0,0-5.3,27.6-3.2,27.6c2.1,0,46,3.1,46,3.1l-8.3-30.7l-10.4,4.2"/>
		<path class="st3" d="M290.3,530.6c0,0-27.9-37.3-30.7-46.4c-0.3-1-0.8-1.8-1.7-2.5c-5.5-5.1-25.2-24.1-27.9-42.5
			c-2.7-18-9.7-50.5-21.7-60c-5.6-4.5-10.1-10.4-12.1-17.5c-5.6-20-14.8-54.2-13.8-62.6c1.4-12.2-25.5-49-30.5-49
			c-4.1-0.1-3.2-49.5-2.8-66.4c0.1-3.1-2.4-5.6-5.5-5.8l0,0c-3.4-0.1-6.1,2.8-5.8,6.2l3.9,34.6c0,0.3,0,0.4,0,0.7l-0.3,29
			c0,1.1,0.3,2.3,1,3.1l28.9,43.3c0.4,0.6,0.7,1.3,0.8,2l8,36.9l9.4,34.6c0.1,0.7,0.4,1.3,0.8,1.8l20.8,29.6
			c0.1,0.3,0.3,0.4,0.4,0.7l7.2,13.9c0.3,0.6,0.4,1,0.6,1.5l5.2,28.1c0,0.3,0.1,0.6,0.1,0.8l5.3,15.8c0.3,0.7,0.6,1.3,1.1,1.8
			l12.8,14.9l10.4,11c0.6,0.6,1,1.1,1.1,1.8l10.7,28c0,0.1,0.1,0.3,0.3,0.6l11.5,23.2c0.3,0.6,0.7,1.1,1.1,1.5l10.8,10.4"/>
		<path class="st4" d="M290,405.8c0,0-23.2,6.5-32.5,15.1c-9.1,8.4-14.4-12-14.4-12s-7.5,25.1,14.5,18.6c0,0,30.3-13.5,32.7-5.6"/>
		<path class="st5" d="M224.9,363.6c36.2,8.7,48.6-15.5,48.6-15.5c-76.7-5.5-82.2-98-82.2-98c-18.9-0.3-18.9,1.8-18.9,1.8
			c3.4,23.4,20.7,74.7,32.4,95.7l0,0C208.8,355.5,216.1,361.5,224.9,363.6z"/>
		<path class="st6" d="M265.7,232.5c0,0,9.3,14.6,11,28.9c1.1,10.3-10.8,17-19.1,10.8c-24.5-17.9-78.7-52.8-102.5-28.1l10-23.2
			l44.9,3.7l49.4,31l6.5-9.7"/>
		<path class="st7" d="M251.2,442.7c0,0,2,31.7,29.8,26c0,0-2.7,13.1-9.1,15.6C265.4,486.9,237.1,474.9,251.2,442.7z"/>
		<path class="st8" d="M188.1,377.6c0,0-16.7-27.2-15.6-52.1l6.1-3c0,0,10.4,44.8,14.5,50.5"/>
		<path class="st9" d="M290.3,551.7V190.6c0,0,73.5,0.1,87.7-12.2c0,0,47.9,1.7,57.1-9c0,0,6.2,34.8-8.7,51.5
			c-14.9,16.7-2.1,36.2-2.1,36.2l-32.1,52.2l-18.6,54l-0.1,22l-4.8,12l-32.4,48.7l-3.2,17.9l1.5,7l-5.3,19.3L311,525.7l-22.5,27"/>
		<path class="st10" d="M290.3,12.6v179.2c0,0,86.7,3.4,87.7-22.4c0,0-7.9,9.4,7.5,9c15.3-0.4,59-10.1,59-10.1l16-11.4
			c0,0,33.1-33.6,9.3-119.2c0,0-10.3-48.8-97.4-21.4l-25.9,7.3C346.6,23.7,306.4,9.6,290.3,12.6z"/>
		<polyline class="st11" points="301.6,489.1 311.3,489.1 320.6,454.6 311.3,454.6 		"/>
		<polyline class="st11" points="308.8,363.9 314.9,358.2 305.8,338.5 299.5,342.7 		"/>
		<path class="st12" d="M338.2,442.2c0,0,22.5,12.4,33.4-21.1c10.8-33.6-20-21.8-20-21.8s-12.1,9.3-13.9,16
			C335.5,421.8,333,433.9,338.2,442.2z"/>
		<path class="st12" d="M358.3,257l41.8-11.1c0,0-10.3-13.5-25.5-11.1"/>
		<path class="st12" d="M373.8,237.6c0,0-17.5,6.9-19.4,29.3"/>
		<path class="st13" d="M320.6,340.5c0,0,14.9,29,34.2,28c19.3-1,38.7-55.3,38.7-55.3l17.2-69l-72.5,19.8L320.6,340.5z"/>
		<path class="st13" d="M290.3,389c0,0,25.2-3.1,36.9-9.7c0,0-5.2,36.3-36.9,42.5"/>
		<ellipse class="st14" cx="412.2" cy="30" rx="10.7" ry="8.9"/>
		<path class="st15" d="M394.6,176.1c0,0,0.3-92.2-27.4-107.1c0,0,29.8,81.5,4.9,110.3"/>
		<path class="st16" d="M434.9,167.2c0,0,59.4-87,2.8-159.5c0,0,25.3,8.6,32.2,29.7c6.9,21.1,16,60.9,5.3,87.3
			c-10.7,26.3-21,34.3-24.5,40.3"/>
		<path class="st16" d="M290,169.3c0,0,114,14.1,141.2,0c0,0-37.6,14.9-59,10.1c-21.4-4.8,0,0,0,0l-23.5,7.2l-58.3,3.7"/>
		<path class="st17" d="M325.8,382.7"/>
		<path class="st18" d="M290.3,400.6c0,0,22.9,2.7,34.1-10.7c0,0-4.5,30.1-34.1,32.1"/>
		<path class="st19" d="M294.5,238.2c0,0-10.6,30.4,4.9,38c15.5,7.6,57.8-54.3,78.5-48.7c20.7,5.6,34.2,16.5,34.2,16.5
			s-16.2-38.7-38.4-28c-22.2,10.8-65.7,39.8-65.7,39.8"/>
		<ellipse class="st20" cx="210.4" cy="272.2" rx="9.7" ry="8.2"/>
		<circle class="st21" cx="209.9" cy="271.2" r="4.9"/>
		<ellipse class="st20" cx="226.8" cy="282.2" rx="3.1" ry="2.7"/>
		<circle class="st21" cx="226.7" cy="281.8" r="1.5"/>
		<path class="st22" d="M106.1,42.2c0,0,15.5-26.3,35.5-27s79.8,10,79.8,10s56.9-27.3,125.3-1.5c0,0,65-20.3,80.1-16.7
			s30.5,6.1,37.7,21.7c0,0-36.9-3.8-64.3,3.9c0,0-50.7,15.3-88.4,4.8c-6.2-1.7-12.7-2.4-19.1-2.4h-7.3c-8,0-15.9,1.3-23.5,3.8
			c-17.3,5.6-53.5,14.6-83.5,2.3c-4.4-1.8-8.9-3-13.5-3.7C150,35.4,120.7,32.8,106.1,42.2z"/>
		<path class="st23" d="M108.2,159.8c0,0,8.4,25.9,29.1,17.9s7.7,14.4,68,0.3c0,0,110.5,30.3,172.7,0.4c0,0,50.1,0.6,58.6-9
			c0,0,17.2-4.4,23.9-9.6l-46.3,6.9c-12.1,1.8-24.3,2.1-36.6,1.1l-76-6.8c-8.7-0.7-17.5-0.8-26-0.1l-88.7,7
			c-12.2,1-24.5,0.6-36.6-1.4L108.2,159.8z"/>
		<path class="st18" d="M138.9,194.3c0,0,237.6,26.6,297.5-3.7l0.1-21.4c0,0-94.7,17.7-147.9,17.7c-53.2,0.1-92.5-8.4-151.3-9.4"/>
		<path class="st19" d="M290.3,302.1c0,0,26,81.4,83.2,77.3l0.1-16c0,0-18,15.9-42.2-4.4l-41.1-79.4"/>
		<path class="st24" d="M340.4,410c0,0-5.3,39.4,28.3,11.8c0,0-2.1,22.9-28.3,22.9C340.4,444.8,329.9,435.2,340.4,410z"/>
		<polyline class="st25" points="362.1,248.3 391.9,242.2 400.1,245.9 358.3,257 		"/>
		<path class="st19" d="M290.3,530.6c0,0,40.1-41,41.5-81.4l2.8,21.5c0,0-12,56.2-44.3,80.9"/>
		<path class="st26" d="M355.1,396.4c0,0,10.6-9,10.6-27.9l8-5.2c0,0-0.3,25.3-4.9,33.2"/>
		<path class="st27" d="M418.4,242.2c0,0,24.5-52.8,18.3-72.9c0,0-15.9,8.9-18.9,6.3c-3-2.5,5.1,27-9.7,70.1"/>
		<path class="st27" d="M290.3,421.8c0,0,28-0.4,36.9-42.5c0,0,4.6,49.5-36.9,65.4"/>
		<polygon class="st28" points="316.4,358.2 317.8,363.9 307.2,372.3 303.4,364.6 294.5,345 299.5,341.3 308.5,363.3 		"/>
		<polygon class="st29" points="300.2,489.1 298.2,496.6 312.6,494.9 325.8,453.1 321,453.1 312.6,489.1 		"/>
		<ellipse class="st18" cx="418.4" cy="150.1" rx="9.3" ry="14.5"/>
		<circle class="st18" cx="431.2" cy="130.4" r="5.5"/>
		<ellipse class="st22" cx="319.7" cy="69.1" rx="14.9" ry="19"/>
		<ellipse class="st22" cx="343.1" cy="84.5" rx="5.5" ry="9.1"/>
		<ellipse class="st30" cx="319.6" cy="175" rx="12.4" ry="15.2"/>
		<ellipse class="st31" cx="305.2" cy="147.5" rx="5.8" ry="11.5"/>
		<path class="st32" d="M290.3,190.6v4.8c0,0,70.5,8.2,146.4-14.8v-11.3"/>
		<g class="st33">
			<path class="st34" d="M327.2,427.5c0.6,1.8,0.8,3.7,1.1,5.5c0.1,1.8,0.1,3.7,0,5.5c-0.3,1.8-0.6,3.7-1.5,5.6
				c-0.3,0.4-0.6,1-1.3,1.4c-0.1,0.1-0.4,0.1-0.6,0.3c-0.1,0-0.4,0-0.6,0c-0.4,0-0.7-0.1-1-0.4c-1-0.7-1.3-1.7-1.5-2.5
				c0.7,0.6,1.5,1.3,2.1,1.4c0.3,0,0.4,0,0.4-0.1c0.1-0.1,0.3-0.4,0.3-0.8c0.4-1.4,0.6-3.2,0.7-4.9s0.4-3.5,0.7-5.2
				C326.3,431,326.6,429.2,327.2,427.5z"/>
		</g>
		<g class="st33">
			<path class="st34" d="M321.8,439.2c0.6,1.8,0.7,3.7,0.6,5.5c-0.1,1-0.3,1.8-0.8,2.8c-0.1,0.3-0.3,0.4-0.6,0.7
				c-0.3,0.3-0.8,0.1-1.1,0c-0.4-0.4-0.6-0.8-0.7-1.3c0.4,0.3,0.7,0.6,1.1,0.7c0.1,0,0.1,0,0.1-0.1c0-0.1,0.1-0.3,0.1-0.4
				c0.1-0.7,0.3-1.5,0.4-2.5C321.3,442.8,321.4,441,321.8,439.2z"/>
		</g>
		<g class="st33">
			<path class="st34" d="M323.7,204.2c0.7,2.5,1,5.2,1.1,7.7c0.1,2.5,0.1,5.2-0.1,7.9c-0.3,2.7-0.7,5.2-2.1,7.9
				c-0.3,0.6-0.8,1.3-1.5,1.8c-0.3,0.1-0.4,0.3-0.7,0.3s-0.6,0-0.7,0.1c-0.4,0-1-0.1-1.3-0.4c-1.3-1-1.8-2.3-2.3-3.4
				c1,0.8,2,1.8,3,2.1c0.6,0.1,0.7,0.1,1-0.1c0.3-0.3,0.6-0.7,0.7-1.3c0.7-2.1,1-4.6,1.3-7.2C322.4,214.5,322.7,209.3,323.7,204.2z"
				/>
		</g>
		<g class="st33">
			<path class="st34" d="M316.1,221c0.6,1.3,0.8,2.5,1.1,3.9c0.1,1.3,0.1,2.7,0,3.9c-0.1,1.4-0.4,2.7-1.3,4.1c-0.1,0.3-0.6,0.7-1,1
				c-0.3,0.1-0.6,0.3-1,0.3c-0.3,0-0.6-0.1-0.8-0.3c-0.7-0.7-0.8-1.3-1-2c0.6,0.3,1.1,0.7,1.7,0.8c0.3,0,0.1-0.1,0-0.1
				c0-0.1,0-0.3,0.1-0.6c0.1-1,0.3-2.3,0.4-3.4c0.1-1.3,0.3-2.5,0.6-3.7C315.2,223.5,315.5,222.3,316.1,221z"/>
		</g>
		<g>
			<path class="st35" d="M445.3,40.3c2.8,5.5,4.5,11.4,5.6,17.5s1.7,12.2,1.5,18.3c-0.1,6.2-0.6,12.2-1.8,18.3
				c-0.6,3-1.4,5.9-2.3,8.9c-0.8,3-2,5.8-3.2,8.6c0-3.1,0.3-6.1,0.4-9.1c0.1-3,0.4-6.1,0.6-9c0.4-5.9,0.4-11.8,0.6-17.7
				c0-5.9-0.1-11.8-0.3-17.7C446.3,52.4,445.8,46.3,445.3,40.3z"/>
		</g>
		<path class="st36" d="M388.7,315.7l-15.3,2.4l-4.6-2.4l-5.5,7.7l-5.8,15.1l-4.9,16l-2.1,9.3v5.2c0,0,51.5,6.9,67-103.6l24.1-8.3
			l-4.1-19l-31.9,10.1c0,0-13.5,59.3-27.4,75.2"/>
		<path class="st36" d="M325.2,346.4c0,0,16.2-56.2,21.7-56.7s7.9,0.6,7.9,0.6s12.1,1.5,21.1-38.4l-85.6,22
			C290.3,273.8,306.4,322.1,325.2,346.4z"/>
		<path class="st37" d="M350.6,363.9c0,0-19.6-15.5-24.8-25.3"/>
		<g>
			<path class="st36" d="M343,349.9c-2.7-1.4-5.2-3.1-7.6-4.9c-2.4-1.8-4.6-3.8-6.8-5.8c-2.1-2.1-4.2-4.2-6.1-6.8
				c-1.8-2.4-3.5-4.9-4.4-7.9c1.8,2.4,3.9,4.4,6.1,6.5c2.1,2.1,4.2,4.1,6.3,6.2C334.6,341.3,339,345.4,343,349.9z"/>
		</g>
		<line class="st37" x1="368.6" y1="261.2" x2="410.5" y2="250.1"/>
		<g>
			<path class="st36" d="M387.3,261.2c2.8-1.1,5.5-2,8.3-2.8s5.6-1.5,8.4-2.3s5.8-1.3,8.6-1.8c3-0.6,5.8-1,8.7-1.3
				c-2.8,1.1-5.5,2-8.3,3c-2.8,0.8-5.6,1.5-8.4,2.3s-5.8,1.3-8.6,1.8C393.1,260.5,390.2,261,387.3,261.2z"/>
		</g>
		<g>
			<path class="st36" d="M253.4,454.6c0.7,2.1,1.5,3.9,2.4,5.8c1,1.7,2.1,3.2,3.5,4.5c1.4,1.1,3.1,2.1,5.1,2.5l0.7,0.3l0.7,0.1
				l1.5,0.3c1,0.1,2.1,0.1,3.2,0.3c-1,0.4-2.1,0.8-3.1,1l-1.7,0.1c-0.3,0-0.6,0-0.8,0h-0.8c-2.3,0-4.6-1-6.5-2.5
				c-1.8-1.5-3.1-3.7-3.8-5.8C253.3,459.1,253,456.7,253.4,454.6z"/>
		</g>
		<g>
			<path class="st36" d="M340.4,431.7c1.3,2.1,2.8,4.1,4.6,4.8s3.9,0.1,5.9-0.7c2-1,3.9-2.4,5.8-3.8c1.8-1.4,3.8-3,5.8-4.5
				c-1.1,2.3-2.5,4.2-4.4,6.1c-1.7,1.8-3.7,3.5-6.1,4.6c-1.3,0.6-2.5,1-3.9,1.1c-1.4,0.1-3-0.1-4.2-1c-1.3-0.7-2.1-1.8-2.7-3
				C340.8,434.1,340.4,433,340.4,431.7z"/>
		</g>
		<g>
			<path class="st36" d="M190.1,199.5c2.5,2.1,5.2,3.9,8,5.3c2.8,1.3,5.8,2.1,8.6,1.4c2.8-0.4,5.3-2.3,7.5-4.5
				c2.3-2.3,4.1-4.9,6.1-7.6c-0.8,3.2-2.3,6.3-4.2,9c-1,1.4-2.3,2.7-3.7,3.7c-1.4,1-3.2,1.8-4.9,2.1c-1.8,0.3-3.7,0.3-5.5-0.1
				c-1.7-0.4-3.4-1.3-4.8-2.1C194,205,191.8,202.4,190.1,199.5z"/>
		</g>
		<path class="st38" d="M290.3,554c0,0,43.5-49.7,44.3-89.5c0,0-4.5-23.6,9.3-19.6c14.5,4.2,38.6-24.2,24.8-48.3
			c0,0,8.3-7.5,4.9-33.2c0,0,43.1-43.1,43.9-97.8l24.1-8.3l-4.1-19l-19,4.1c0,0,4.9-19,12.4-28.1c7.5-9.1,5.8-44.8,5.8-44.8
			s39,4.1,42.2-78.8c3.2-83-52.2-83.7-52.2-83.7s-19.6-1.7-80.1,16.6c0,0-53.8-25.8-125.1,1.5c0,0-51.1-12.9-73.3-10.8
			c-20.4,2-56.3,9.1-48.8,96.1s36.5,67.4,36.5,67.4s10,43.6,5.8,62.6c-4.1,19,27.3,40.7,33.2,63.5c5.8,22.8,7.5,59.3,25.8,79.9
			c18.3,20.7,22.4,37.3,22.4,48.8c0,11.5,10,34.8,25.8,47.3C264.1,492.6,264.3,537.4,290.3,554z"/>
		<path class="st38" d="M135.8,175.7c0,0,48.1,10,69.7,2.3c0,0,94.4,28.6,177.3,0c0,0,28.9,3.5,52.5-8.6"/>
		<path class="st38" d="M373.6,363.3c0,0-26.5,24.1-54.8-25.8c-17.5-30.7-24.2-47.9-26.9-56.4c-1.3-3.9,1.1-8.2,5.2-9.1l121.2-29.8"
			/>
		<g>
			<path class="st36" d="M290.7,417.8c0.3,0,1,0.1,1.4,0.1c0.6,0,1.1,0,1.7,0c0.6,0,1.1-0.1,1.7-0.1s1.1-0.1,1.7-0.3l1.7-0.4
				l1.7-0.6c1.1-0.3,2.1-0.8,3.2-1.3c4.2-2.1,7.9-5.2,11-9l1.1-1.4c0.4-0.4,0.7-1,1.1-1.5l2-3.1c0.7-1,1.1-2.1,1.7-3.2
				s1.1-2.3,1.7-3.4c0.8-2.4,1.8-4.6,2.7-7l2.1-7.2l-1.4,7.5c-0.6,2.4-1.4,4.9-2.1,7.3c-0.4,1.1-1,2.4-1.4,3.5
				c-0.6,1.1-0.8,2.4-1.5,3.5l-1.8,3.4c-0.3,0.6-0.6,1.1-1,1.7l-1.1,1.5c-3,4.2-6.6,8.2-11.3,11c-1.1,0.7-2.3,1.4-3.5,1.8l-1.7,1
				l-2,0.6c-0.7,0.3-1.3,0.4-2,0.6c-0.7,0.1-1.4,0.3-2,0.4c-0.7,0.1-1.4,0.1-2.1,0.3c-0.7,0-1.4,0.1-2.3,0L290.7,417.8z"/>
		</g>
		<g>
			<path class="st36" d="M290.2,386.2c3.5,0,7.2-0.3,10.8-0.7c3.7-0.4,7.2-0.8,10.8-1.5c3.5-0.7,7.2-1.5,10.6-2.7s6.8-2.7,9.9-4.6
				c-2.8,2.4-6.1,4.4-9.3,6.1c-3.4,1.7-6.9,3-10.4,4.1c-3.5,1.1-7.2,2.1-10.8,3c-3.7,0.8-7.3,1.5-11.1,2.1L290.2,386.2z"/>
		</g>
		<g>
			<path class="st36" d="M324.4,369.1c2.1-1.4,4.6-2.1,7.3-2.1s5.6,0.8,7.7,3.1c1,1.1,1.8,2.5,2.1,3.8c0.4,1.4,0.6,2.8,0.4,4.1
				c-0.1,2.7-1,5.1-2.4,7.2c-0.3-2.5-0.4-4.9-0.8-7c-0.4-2.1-1.1-3.9-2.4-5.2c-1.1-1.3-3-2.1-5.1-2.7
				C329.2,369.8,326.9,369.5,324.4,369.1z"/>
		</g>
		<polygon class="st37" points="311.3,489.1 320.6,454.6 311.3,454.6 301.6,489.1 		"/>
		<polygon class="st37" points="305.8,338.5 314.9,358.2 308.8,363.9 299.5,342.7 		"/>
		<g>
			<path class="st36" d="M406.6,176c0.3,0.1,0.3,0.3,0.4,0.3c0.1,0.1,0.1,0.1,0.3,0.3s0.3,0.3,0.4,0.4c0.3,0.3,0.4,0.7,0.6,1
				c0.4,0.6,0.7,1.3,0.8,1.8c0.6,1.3,0.8,2.5,1.1,3.8c0.6,2.5,0.7,4.9,0.8,7.5c0.1,2.4,0.1,4.9,0,7.3s-0.3,4.8-0.6,7.2
				c-0.1-2.4-0.3-4.8-0.6-7.2c-0.3-2.4-0.6-4.8-1-7s-1-4.6-1.8-6.8c-0.4-1.1-0.8-2.1-1.4-3.1c-0.3-0.4-0.6-0.8-0.8-1.3
				c-0.1-0.1-0.3-0.4-0.4-0.6c-0.1-0.1-0.1-0.1-0.1-0.1l0,0c0,0,0,0,0.1,0L406.6,176z"/>
		</g>
		<g>
			<path class="st36" d="M397.8,176.7c0.3,0.3,0.3,0.3,0.3,0.3c0.1,0.1,0.1,0.1,0.1,0.1c0.1,0.1,0.1,0.3,0.3,0.3
				c0.1,0.3,0.1,0.4,0.3,0.6c0.1,0.3,0.3,0.7,0.4,1c0.1,0.7,0.3,1.3,0.4,1.8c0.3,1.3,0.3,2.4,0.4,3.7c0.1,2.4,0.1,4.8,0.1,7
				c-0.6-2.3-1.3-4.5-2.1-6.6c-0.4-1.1-0.8-2.1-1.4-3.1c-0.3-0.4-0.6-1-0.8-1.4c-0.1-0.1-0.3-0.4-0.4-0.6l-0.1-0.1l0,0l0,0
				c0,0,0,0,0.1,0.1L397.8,176.7z"/>
		</g>
		<g>
			<path class="st36" d="M158.9,182c-0.1,0-0.4,0.1-0.7,0.1c-0.3,0.1-0.6,0.3-0.7,0.4c-0.4,0.3-1,0.6-1.4,1c-0.8,0.7-1.7,1.8-2.3,3
				c-0.6,1.1-1,2.4-1.1,3.8c-0.1,0.7-0.1,1.4-0.1,2v2.1l-0.6-2c-0.1-0.7-0.3-1.4-0.3-2.1c-0.1-1.4-0.1-3,0.3-4.4
				c0.3-1.4,1-3,1.8-4.2c0.4-0.7,1-1.3,1.5-1.8c0.7-0.6,1.1-1.1,2.1-1.5L158.9,182z"/>
		</g>
		<g>
			<path class="st36" d="M169.6,181.3c-1.7,1.4-3.2,3.1-4.6,4.9s-2.7,3.8-3.7,5.8c-1.1,2.1-1.8,4.2-2.4,6.5c-0.6,2.3-0.7,4.6-0.7,7
				c-0.3-2.4-0.4-4.8,0-7c0.3-2.4,0.8-4.6,1.8-6.9c0.8-2.3,2-4.4,3.2-6.5c1.3-2.1,2.7-3.9,4.5-5.8L169.6,181.3z"/>
		</g>
		<g>
			<path class="st36" d="M156.2,253.5c13.2-4.9,28-5.6,42.1-2.8c7,1.5,13.8,4.1,20.3,7.6c6.3,3.5,12.1,7.9,17.3,12.9l2,1.8
				c0.6,0.7,1.3,1.3,1.8,2c1.1,1.4,2.5,2.7,3.7,4.1l3.4,4.2c1.1,1.4,2.1,3,3.1,4.5c2.1,3,3.8,6.1,5.6,9.1c1,1.5,1.7,3.2,2.5,4.8
				l2.4,4.8c5.9,13.1,10.1,26.7,13.4,40.7l0.6,2.3l-2.1,1c-1.7,0.8-3.2,1.5-4.8,2.1c-1.5,0.6-3.2,1.1-4.9,1.7
				c-3.2,1-6.6,1.8-10.1,2.3c-6.9,1-14.1,1-20.8-1c-6.8-1.8-13.2-5.5-18.3-10.3c-5.2-4.8-8.9-10.7-11.8-16.9l-1.1-2.3l-1-2.4
				c-0.6-1.5-1.3-3.1-1.8-4.8c-1-3.2-2.1-6.5-2.7-9.7l-1.1-4.9c-0.3-1.7-0.6-3.2-0.8-4.9c-0.3-1.7-0.6-3.2-0.7-4.9l-0.6-4.9
				c-1.3-13.2-1.1-26.6-0.3-39.7c0.4,13.2,1.1,26.5,3.2,39.4l0.7,4.9c0.3,1.5,0.7,3.2,1,4.8c0.3,1.5,0.7,3.2,1,4.8l1.3,4.6
				c0.4,1.5,0.8,3.1,1.4,4.6l1.5,4.6c0.6,1.5,1.3,3,1.8,4.5l1,2.3l1.1,2.1c3,5.6,6.6,10.8,11.3,15.1c4.6,4.2,10.1,7.2,16.2,8.6
				c12,3,25.3,0.4,36.3-4.9l-1.5,3.4c-3.1-13.5-7.2-26.9-12.8-39.5l-2.3-4.6c-0.7-1.5-1.4-3.1-2.3-4.6c-1.7-3-3.2-6.1-5.2-8.9
				c-3.7-5.9-7.9-11.3-12.7-16.2c-9.4-9.9-21.5-17.3-34.9-21C184.3,250.1,169.8,250,156.2,253.5z"/>
		</g>
		<g>
			<path class="st36" d="M288.2,402c-2.5-0.7-5.6-1-8.4-1.1c-3-0.1-5.8,0.1-8.7,0.7c-1.4,0.3-2.8,0.7-4.2,1
				c-0.7,0.3-1.4,0.6-2.1,0.7l-1,0.4l-1,0.4c-2.7,1.1-5.2,3-7.6,4.8c2.1-2.1,4.4-4.2,7-5.6l1-0.6l1-0.6c0.7-0.3,1.4-0.7,2.1-1
				c1.4-0.6,2.8-1.1,4.4-1.5c3-0.8,6.1-1.5,9.1-1.8c3.1-0.3,6.2-0.3,9.4,0.1L288.2,402z"/>
		</g>
		<g>
			<path class="st36" d="M243.2,408.9c0.7,2,1.5,3.8,2.4,5.2c1,1.4,2,2.5,3.2,3.4s2.8,1.3,4.6,1.8c0.8,0.1,1.8,0.4,2.8,0.6
				c1,0.1,2,0.3,3.1,0.7c-0.8,0.6-1.8,1-2.8,1.4c-1,0.3-2.1,0.6-3.2,0.7c-2.3,0.1-4.5-0.3-6.6-1.5c-2.1-1.3-3.5-3.5-4.1-5.6
				C242,413.1,242.2,410.9,243.2,408.9z"/>
		</g>
		
			<ellipse transform="matrix(0.9472 -0.3205 0.3205 0.9472 -131.8253 109.2122)" class="st39" cx="265.8" cy="455" rx="18" ry="21.5"/>
		<path class="st40" d="M180.8,180c0,0-5.6,22.7,19.8,35.9s0,0,0,0s31-0.4,25.9-32.8"/>
		<path class="st40" d="M358.3,257c0,0,6.8-21.8,19.7-22.2c12.9-0.4,22.1,11.1,22.1,11.1"/>
		<path class="st41" d="M192.9,373.3c0,0-10.4,18.6-20.5-13.4c-10.1-31.9,2.4-40.1,8.3-34.9"/>
		<path class="st42" d="M298.6,229.7c0,0-5.8,16.2-3.5,28.1c1,5.5,7.2,8,11.4,4.6c13.8-10.8,47.3-35.7,69.5-41.8
			c7.2-2,14.9-0.7,21.3,3.4c4.4,2.8,9.4,7.2,13.2,13.5c0,0,0.6-10.7-5.5-20.4c-7-11.3-21-14.8-32.2-9l-60.4,31.4
			c-2.8,1.4-6.1,0.6-8-2L298.6,229.7z"/>
		<path class="st42" d="M265.7,232.5c0,0,5.8,16.2,3.5,28.1c-1,5.5-7.2,8-11.4,4.6c-13.8-10.8-47.3-35.7-69.5-41.8
			c-7.2-2-14.9-0.7-21.3,3.4c-4.4,2.8-9.4,7.2-13.2,13.5c0,0-0.6-10.7,5.5-20.4c7-11.3,21-14.8,32.2-9l60.4,31.4
			c2.8,1.4,6.1,0.6,8-2L265.7,232.5z"/>
		<path class="st43" d="M350.6,366.7c0,0,12-62.1,22.8-48.6c10.8,13.7,32.1-70,32.1-70"/>
		<path class="st44" d="M325.2,346.4c0,0,15.2-66,27.2-57.1c12,8.9,23.5-37.3,23.5-37.3"/>
		<path class="st36" d="M382.8,177.9C394.3,118.7,366.3,69,366.3,69c23.2,66.9-2.5,114-2.5,114"/>
		<g>
			<path class="st36" d="M444.4,149.9c3.8-9.4,6.9-19,9.4-28.7c1.3-4.9,2.4-9.7,3.2-14.6s1.7-9.9,2.1-14.8s0.8-10,0.7-14.9
				c0-4.9-0.3-10-0.7-14.9c-1-10-3.2-19.7-6.2-29.6c2.5,4.4,4.8,9,6.5,13.9c1,2.4,1.5,4.9,2.4,7.3c0.3,1.3,0.6,2.5,0.8,3.8
				c0.3,1.3,0.6,2.5,0.8,3.8c1.1,5.1,1.4,10.3,1.7,15.5c0.3,5.2,0,10.4-0.4,15.5c-1,10.3-3.2,20.4-6.6,30.3
				C454.7,132.2,450.3,141.6,444.4,149.9z"/>
		</g>
		<g>
			<path class="st36" d="M131.8,159.8c-5.9-8.3-10.3-17.7-13.7-27.4c-3.4-9.7-5.6-19.8-6.6-30.3c-0.4-5.2-0.7-10.4-0.4-15.5
				c0.3-5.2,0.7-10.4,1.7-15.5c0.3-1.3,0.4-2.5,0.8-3.8c0.3-1.3,0.6-2.5,0.8-3.8c0.8-2.5,1.4-4.9,2.4-7.3c1.7-4.9,3.9-9.6,6.5-13.9
				c-3,9.7-5.2,19.6-6.2,29.6c-0.6,4.9-0.8,10-0.7,14.9c0,4.9,0.3,10,0.7,14.9s1.1,9.9,2.1,14.8c0.8,4.9,2,9.9,3.2,14.6
				C124.9,140.8,128,150.3,131.8,159.8z"/>
		</g>
		<g>
			<path class="st36" d="M390.9,117.5c0-3.1,0-6.2-0.1-9.3s-0.3-6.1-0.7-9l-0.3-2.3l-0.4-2.3c-0.3-1.5-0.6-3-1-4.4
				c-0.7-3-1.8-5.8-3-8.7c2.1,2.4,3.8,5.1,5.1,8c1.1,3,2,6.1,2.4,9.1s0.4,6.3,0.1,9.4C392.8,111.5,392.1,114.6,390.9,117.5z"/>
		</g>
		<g>
			<path class="st36" d="M354.8,159.1c2-3.8,3.1-7.7,3.9-11.7c0.8-3.9,1.4-8,1.5-12.1l0.1-3.1v-3.1c0.1-2.1-0.1-4.1-0.1-6.2
				c-0.1-2.1-0.3-4.1-0.4-6.2s-0.4-4.1-0.6-6.2c0.7,2,1.3,3.9,2,6.1c0.4,2.1,1,4.1,1.3,6.2c0.6,4.2,0.8,8.4,0.7,12.7
				c-0.3,4.2-1,8.4-2.3,12.5C359.6,152,357.7,156,354.8,159.1z"/>
		</g>
		<path class="st36" d="M213.2,180.6c0,0-29.6-44.9-12.1-113.4c0,0-23.6,51.8-7.2,109.9"/>
		<g>
			<path class="st36" d="M180.7,117.7c-1.4-2.8-2.3-5.9-2.8-9c-0.6-3.1-0.7-6.3-0.7-9.4c0.1-3.2,0.7-6.3,1.7-9.4
				c0.8-3.1,2.4-5.9,4.4-8.4c-0.8,3.1-1.7,5.9-2.3,8.9c-0.3,1.5-0.4,3-0.6,4.5l-0.3,2.3l-0.1,2.3c-0.1,3-0.1,6.1,0,9.1
				S180.4,114.6,180.7,117.7z"/>
		</g>
		<g>
			<path class="st36" d="M220.2,156c-3.1-2.8-5.3-6.6-7-10.6c-1.7-3.9-2.7-8.2-3.4-12.2c-0.6-4.2-0.7-8.4-0.4-12.7
				c0.1-2.1,0.4-4.2,0.7-6.3c0.4-2.1,0.8-4.1,1.4-6.2c0,2.1,0,4.2,0,6.3s0,4.1,0.1,6.2s0.1,4.1,0.3,6.2l0.3,3.1l0.4,3.1
				c0.6,4.1,1.4,8,2.5,12C216.4,148.5,218,152.5,220.2,156z"/>
		</g>
		<path class="st38" d="M368.6,396.5c0,0-23.4-2.4-31.1,18.7c-7.7,21.1,3,29.6,3,29.6"/>
		<path class="st45" d="M125.8,179.5h10.3l1.5,7.7c33.2,6.9,152.7,8.2,152.7,8.2v-3.8l-0.3-22.4c-11.7-4.6-167.2,5.6-167.2,5.6"/>
		<path class="st46" d="M220.1,169.5c0,0-27.3-41.8-19-102.3c0,0-17.2,55.6-4.9,86.3l4.5,17"/>
		<path class="st45" d="M138.3,174c0,0-41.2-70.7-7-155.7l-20.1,14.9L98.2,60.5l-0.6,41.7l7,45.3l12.5,28.1l14.6,4.9"/>
		<path class="st47" d="M184.5,201.2c0,0,23.6,4.4,42.6-6.9c0,0,6.9,18.7-17.2,30.4"/>
		<path class="st48" d="M284.1,361c0,0-0.6,16.9-7.5,15.5C269.8,375.1,284.1,361,284.1,361z"/>
		<ellipse class="st49" cx="348.4" cy="430.6" rx="3.2" ry="5.5"/>
		
			<ellipse transform="matrix(0.9833 -0.1818 0.1818 0.9833 -71.8413 71.7331)" class="st49" cx="355.3" cy="427.7" rx="1.8" ry="3.1"/>
		<ellipse class="st49" cx="270.8" cy="460.8" rx="3.2" ry="5.5"/>
		
			<ellipse transform="matrix(0.9833 -0.1818 0.1818 0.9833 -78.612 58.107)" class="st49" cx="277.6" cy="457.8" rx="1.8" ry="3.1"/>
		<ellipse class="st50" cx="359.4" cy="405.7" rx="5.2" ry="3"/>
		<ellipse class="st50" cx="262" cy="441.5" rx="5.2" ry="3"/>
		<ellipse class="st14" cx="251.2" cy="111.2" rx="8.2" ry="13.7"/>
		<ellipse class="st14" cx="263.4" cy="128" rx="4.1" ry="6.8"/>
		<ellipse class="st14" cx="145.1" cy="54.2" rx="6.8" ry="15.3"/>
		<ellipse class="st14" cx="160.3" cy="58.7" rx="5.1" ry="8.6"/>
		<ellipse class="st23" cx="275.3" cy="316.3" rx="4.4" ry="7.2"/>
		<ellipse class="st23" cx="272.3" cy="301.8" rx="2.7" ry="4.5"/>
		<ellipse class="st23" cx="161.4" cy="153.9" rx="9.4" ry="15.9"/>
		<ellipse class="st23" cx="145.1" cy="164.4" rx="4.4" ry="7.2"/>
	</g>
</g>
</svg>
