<?xml version="1.0" encoding="utf-8"?>
<!-- Generator: Adobe Illustrator 24.1.1, SVG Export Plug-In . SVG Version: 6.00 Build 0)  -->
<svg version="1.1" id="Capa_1" xmlns="http://www.w3.org/2000/svg" xmlns:xlink="http://www.w3.org/1999/xlink" x="0px" y="0px"
	 viewBox="0 0 240 700" style="enable-background:new 0 0 240 700;" xml:space="preserve">
<style type="text/css">
	.Sombra_x0020_paralela{fill:none;}
	.Resplandor_x0020_externo_x0020_5_x0020_pt_x002E_{fill:none;}
	.Neón_x0020_azul{fill:none;stroke:#8AACDA;stroke-width:7;stroke-linecap:round;stroke-linejoin:round;}
	.Resalte_x0020_cromado{fill:url(#SVGID_1_);stroke:#FFFFFF;stroke-width:0.3629;stroke-miterlimit:1;}
	.A_x0020_todo_x0020_ritmo_GS{fill:#FFDD00;}
	.Alyssa_GS{fill:#A6D0E4;}
	.st0{fill:#6B982B;}
	.st1{fill:#366B2B;}
	.st2{fill:#002E16;}
	.st3{opacity:0.49;fill:#002E16;}
	.st4{opacity:0.56;fill:#002E16;}
	.st5{opacity:0.5;fill:#001F16;}
	.st6{opacity:0.53;fill:#001F16;}
	.st7{opacity:0.68;fill:#001F16;}
	.st8{opacity:0.71;fill:#001F16;}
	.st9{fill:#FFB400;}
	.st10{fill:#751E1E;}
	.st11{fill:#407710;}
	.st12{fill:#B11A00;}
	.st13{fill:#FFFFFF;}
	.st14{opacity:0.24;fill:#FFFFFF;}
	.st15{opacity:0.74;fill:#430000;}
	.st16{fill:#430000;}
	.st17{fill:#606060;}
	.st18{opacity:0.33;}
	.st19{opacity:0.44;fill:#6A0000;}
	.st20{opacity:0.35;fill:#FFFFFF;}
	.st21{opacity:0.61;fill:#FFFFFF;}
	.st22{opacity:0.19;fill:#FFFFFF;}
	.st23{opacity:0.24;}
	.st24{opacity:0.26;}
	.st25{opacity:0.28;}
	.st26{opacity:0.39;fill:#6A0000;}
	.st27{opacity:0.42;fill:#6A0000;}
	.st28{opacity:0.47;fill:#6A0000;}
	.st29{opacity:0.43;fill:#6A0000;}
	.st30{opacity:0.42;}
	.st31{opacity:0.25;}
	.st32{opacity:0.35;fill:#6A0000;}
	.st33{opacity:0.44;}
	.st34{fill:#6A0000;}
	.st35{fill:#520000;}
	.st36{fill:#020202;}
	.st37{fill:none;stroke:#020202;stroke-width:2.896;stroke-miterlimit:10;}
	.st38{fill:none;stroke:#020202;stroke-width:5.7919;stroke-miterlimit:10;}
	.st39{fill:none;stroke:#020202;stroke-width:4.3439;stroke-miterlimit:10;}
	.st40{fill:none;stroke:#020202;stroke-width:3.9867;stroke-miterlimit:10;}
	.st41{fill:#020202;stroke:#020202;stroke-width:4.4931;stroke-miterlimit:10;}
	.st42{fill:none;stroke:#020202;stroke-width:4.4931;stroke-miterlimit:10;}
	.st43{fill:none;stroke:#020202;stroke-width:4.8837;stroke-miterlimit:10;}
	.st44{opacity:0.54;fill:#001F16;}
	.st45{opacity:0.61;fill:#001F16;}
	.st46{opacity:0.49;fill:#001F16;}
	.st47{opacity:0.6;fill:#001F16;}
	.st48{opacity:0.53;}
	.st49{opacity:0.38;fill:#FFFFFF;}
</style>
<linearGradient id="SVGID_1_" gradientUnits="userSpaceOnUse" x1="0" y1="0" x2="6.123234e-17" y2="-1">
	<stop  offset="0" style="stop-color:#656565"/>
	<stop  offset="0.618" style="stop-color:#1B1B1B"/>
	<stop  offset="0.6292" style="stop-color:#545454"/>
	<stop  offset="0.9831" style="stop-color:#3E3E3E"/>
</linearGradient>
<g>
	<image style="overflow:visible;" width="386" height="601" xlink:href="366F3B31.png"  transform="matrix(1 0 0 1 28 -20)">
	</image>
</g>
<g>
	<path class="st0" d="M241.2,566.3V165H82.1l4.4,38.1c0,0,5.5,36.8,1.2,44.6c-4.3,7.8,29.5,45.7,31,50.9
		c1.6,5.2,11.4,34.6,10.9,48.2s13.2,39.6,34.4,66.6c0,0,9.8,25.9,9.8,40.2c0,14.4,31.2,44,31.2,44l21.1,52.5L241.2,566.3z"/>
	<path class="st1" d="M243,9.4c0,0-47.3,1.3-72.6,12.9s-1.4-1.5-1.4-1.5S95.4,3.4,78.2,14.5S47.5,27.8,43.6,82.1
		s13.3,90.6,26.9,98.5l19.4-2c0,0,51.7,8.5,64,0.9l25.2,5.9l42,5.9l24.6,2.5"/>
	<polyline class="st1" points="126.1,184.8 153.6,176.4 176.1,184.9 176.1,203.1 161.8,215.4 148.9,218.5 132.3,203.4 	"/>
	<path class="st1" d="M141,380.4c0,0-11.8-36-14.7-51.2c0,0-14.6,2.6-10,21.5S128.4,397.3,141,380.4z"/>
	<polyline class="st1" points="212.1,485.2 223.1,485.4 231.7,478.6 234.8,464.5 229.9,451.5 212.1,441.6 203.3,447 197.3,459.7 
		199.9,473.7 	"/>
	<path class="st2" d="M220.1,355c0,0-24.7,13.4-51.1-0.7s-31.7-91.8-29.8-100.5c0,0,41.5,5.5,64.1,53.8S220.1,355,220.1,355z"/>
	<path class="st1" d="M144.3,16.4c0,0-5.5,28.4-3.3,28.4c2.2,0,47.4,3.1,47.4,3.1l-8.6-31.6L169,20.7"/>
	<path class="st3" d="M241.2,542.4c0,0-28.7-38.3-31.6-47.7c-0.3-1-0.9-1.9-1.7-2.6c-5.7-5.2-25.9-24.7-28.7-43.8
		c-2.7-18.5-9.9-51.9-22.3-61.7c-5.8-4.6-10.4-10.7-12.4-17.9c-5.8-20.6-15.2-55.7-14.2-64.5c1.4-12.6-26.2-50.3-31.4-50.5
		c-4.3-0.1-3.3-51-2.9-68.4c0.1-3.2-2.4-5.8-5.6-5.9h0c-3.5-0.1-6.3,2.9-5.9,6.4l4.1,35.6c0,0.2,0,0.5,0,0.7l-0.3,29.8
		c0,1.2,0.3,2.3,1,3.3l29.7,44.6c0.4,0.6,0.7,1.3,0.8,2l8.2,37.9l9.6,35.6c0.2,0.7,0.5,1.3,0.9,1.8l21.5,30.5
		c0.2,0.2,0.3,0.4,0.4,0.7l7.4,14.3c0.3,0.5,0.4,1.1,0.5,1.6l5.2,29.1c0.1,0.3,0.1,0.6,0.2,0.8l5.5,16.3c0.2,0.7,0.6,1.4,1.1,1.9
		l13.2,15.3l10.7,11.2c0.5,0.6,0.9,1.2,1.2,1.9l11,28.9c0.1,0.2,0.1,0.3,0.2,0.5l11.9,23.9c0.3,0.6,0.7,1.1,1.2,1.6l11.2,10.7"/>
	<path class="st4" d="M240.9,413.9c0,0-24,6.7-33.4,15.4s-14.8-12.3-14.8-12.3s-7.6,25.8,15,19.1c0,0,31.1-13.9,33.6-5.8"/>
	<path class="st5" d="M173.9,370.5c37.2,9,50-16,50-16c-79-5.7-84.6-100.8-84.6-100.8c-19.4-0.4-19.3,1.8-19.3,1.8
		c3.4,24.1,21.3,76.8,33.3,98.5v0C157.4,362.2,164.9,368.3,173.9,370.5z"/>
	<path class="st6" d="M215.9,235.7c0,0,9.6,15.1,11.2,29.7c1.2,10.6-11.1,17.5-19.7,11.2c-25.1-18.4-81-54.3-105.4-29l10.3-23.9
		l46.2,3.8l50.8,31.9l6.7-10.1"/>
	<path class="st7" d="M201,451.8c0,0,2,32.6,30.6,26.8c0,0-2.7,13.4-9.4,16.1S186.5,485,201,451.8z"/>
	<path class="st8" d="M136,385c0,0-17.3-27.9-16.1-53.5l6.2-3.1c0,0,10.6,46.1,14.9,52"/>
	<path class="st9" d="M241.2,564V192.6c0,0,75.6,0.2,90.2-12.6c0,0,49.3,1.7,58.8-9.3c0,0,6.4,35.8-9,53
		c-15.4,17.2-2.1,37.3-2.1,37.3L346,314.6l-19.1,55.6l-0.2,22.6l-5,12.3l-33.3,50.1l-3.2,18.4l1.6,7.2l-5.5,19.9l-18.8,36.7
		l-23.1,27.8"/>
	<path class="st10" d="M241.2,9.3v184.3c0,0,89.2,3.5,90.2-23c0,0-8,9.7,7.7,9.3c15.8-0.4,60.6-10.5,60.6-10.5l16.6-11.8
		c0,0,34-34.6,9.6-122.6c0,0-10.5-50.2-100.2-21.9l-26.6,7.6C299.1,20.7,257.7,6.3,241.2,9.3z"/>
	<polyline class="st11" points="252.8,499.6 262.7,499.6 272.3,464.2 262.7,464.2 	"/>
	<polyline class="st11" points="260.2,370.8 266.5,365 257.1,344.7 250.6,349.1 	"/>
	<path class="st12" d="M290.4,451.4c0,0,23.1,12.8,34.3-21.8c11.2-34.6-20.6-22.4-20.6-22.4s-12.4,9.6-14.4,16.5
		C287.7,430.5,285,442.9,290.4,451.4z"/>
	<path class="st12" d="M311.1,260.9l43-11.4c0,0-10.5-13.9-26.2-11.5"/>
	<path class="st12" d="M327.1,240.9c0,0-18,7.1-20,30.1"/>
	<path class="st13" d="M272.3,346.7c0,0,15.3,29.9,35.2,28.8c19.8-1,39.8-56.9,39.8-56.9l17.7-71l-74.5,20.4L272.3,346.7z"/>
	<path class="st13" d="M241.2,396.6c0,0,26-3.2,37.9-10c0,0-5.4,37.4-37.9,43.8"/>
	<ellipse class="st14" cx="366.6" cy="27.3" rx="11" ry="9.1"/>
	<path class="st15" d="M348.5,177.7c0,0,0.2-94.9-28.2-110.2c0,0,30.7,83.9,5.1,113.6"/>
	<path class="st16" d="M389.8,168.5c0,0,61-89.5,2.9-164.1c0,0,26,8.8,33.2,30.6c7.1,21.7,16.5,62.7,5.5,89.8s-21.5,35.3-25.2,41.5"
		/>
	<path class="st16" d="M240.9,170.6c0,0,117.3,14.5,145.2,0c0,0-38.7,15.4-60.7,10.4s0,0,0,0l-24.2,7.4l-60,3.7"/>
	<path class="st17" d="M277.7,390.2"/>
	<path class="st18" d="M241.2,408.5c0,0,23.6,2.8,35.1-11.1c0,0-4.6,31-35,32.9"/>
	<path class="st19" d="M245.6,241.4c0,0-10.9,31.3,5,39.1c15.9,7.8,59.5-55.9,80.8-50.2c21.3,5.8,35.2,16.9,35.2,16.9
		s-16.6-39.9-39.5-28.7s-67.6,41-67.6,41"/>
	<ellipse class="st20" cx="159" cy="276.5" rx="10" ry="8.4"/>
	<circle class="st21" cx="158.5" cy="275.4" r="5"/>
	<ellipse class="st20" cx="175.9" cy="286.7" rx="3.2" ry="2.7"/>
	<circle class="st21" cx="175.8" cy="286.4" r="1.6"/>
	<path class="st22" d="M51.7,39.8c0,0,15.9-27,36.6-27.8c20.6-0.8,82.2,10.2,82.2,10.2s58.4-28,128.7-1.5c0,0,66.9-20.9,82.4-17.2
		c15.5,3.7,31.5,6.2,38.9,22.3c0,0-37.9-3.9-66.2,4c0,0-52.2,15.8-90.9,5c-6.4-1.8-13-2.5-19.6-2.5H236c-8.2,0-16.4,1.3-24.2,3.9
		c-17.8,5.9-54.9,15.2-85.8,2.4c-4.5-1.9-9.2-3-13.9-3.7C96.9,32.8,66.7,30.2,51.7,39.8z"/>
	<path class="st23" d="M53.8,160.8c0,0,8.6,26.7,29.9,18.4c21.3-8.3,7.9,14.8,70,0.3c0,0,113.6,31.1,177.6,0.4
		c0,0,51.5,0.5,60.3-9.3c0,0,17.7-4.5,24.7-9.8l-47.7,7c-12.4,1.8-25.1,2.2-37.6,1.1l-78.2-6.9c-8.9-0.8-17.9-0.8-26.9-0.1
		l-91.2,7.2c-12.6,1-25.2,0.5-37.7-1.5L53.8,160.8z"/>
	<path class="st18" d="M85.4,196.3c0,0,244.4,27.3,306.1-3.7l0.1-21.9c0,0-97.5,18.2-152.2,18.3c-54.7,0.1-95.2-8.7-155.7-9.7"/>
	<path class="st19" d="M241.2,307.2c0,0,26.8,83.7,85.6,79.4l0.1-16.5c0,0-18.5,16.4-43.4-4.5L241.2,284"/>
	<path class="st24" d="M292.7,418.3c0,0-5.5,40.6,29.1,12.1c0,0-2.2,23.6-29.1,23.6C292.7,454,281.9,444.1,292.7,418.3z"/>
	<polyline class="st25" points="315,251.8 345.8,245.7 354.1,249.4 311.1,260.9 	"/>
	<path class="st19" d="M241.2,542.4c0,0,41.3-42.2,42.7-83.7l2.9,22.2c0,0-12.3,57.8-45.6,83.2"/>
	<path class="st26" d="M307.8,404.2c0,0,10.8-9.3,10.9-28.6l8.2-5.4c0,0-0.3,26.1-5.1,34.1"/>
	<path class="st27" d="M372.9,245.7c0,0,25.2-54.4,18.8-75c0,0-16.3,9.1-19.4,6.5c-3.1-2.6,5.2,27.8-9.9,72.1"/>
	<path class="st27" d="M241.2,430.4c0,0,28.8-0.4,37.9-43.8c0,0,4.7,51-37.9,67.4"/>
	<polygon class="st28" points="268,365 269.4,370.8 258.6,379.5 254.7,371.5 245.6,351.3 250.6,347.6 259.9,370.2 	"/>
	<polygon class="st29" points="251.3,499.6 249.3,507.3 264,505.5 277.7,462.5 272.7,462.5 264,499.6 	"/>
	<ellipse class="st18" cx="372.9" cy="150.8" rx="9.5" ry="14.8"/>
	<circle class="st18" cx="386.1" cy="130.5" r="5.7"/>
	<ellipse class="st22" cx="271.4" cy="67.5" rx="15.4" ry="19.5"/>
	<ellipse class="st22" cx="295.5" cy="83.4" rx="5.7" ry="9.4"/>
	<ellipse class="st30" cx="271.3" cy="176.5" rx="12.7" ry="15.7"/>
	<ellipse class="st31" cx="256.6" cy="148.2" rx="6" ry="11.9"/>
	<path class="st32" d="M241.2,192.6v4.9c0,0,72.5,8.5,150.7-15.2v-11.6"/>
	<g class="st33">
		<path class="st34" d="M279.2,436.2c0.6,1.8,0.9,3.7,1.1,5.6c0.2,1.9,0.1,3.8-0.1,5.7c-0.1,1-0.3,1.9-0.5,2.9
			c-0.3,1-0.5,1.9-1.1,2.9c-0.3,0.5-0.7,1-1.3,1.4c-0.2,0.1-0.4,0.2-0.6,0.2c-0.2,0-0.4,0.1-0.6,0.1c-0.4-0.1-0.8-0.2-1-0.4
			c-1-0.8-1.3-1.7-1.6-2.6c0.8,0.6,1.5,1.2,2.2,1.4c0.1,0,0.2,0,0.2,0c0,0,0.1,0,0.1,0c0,0,0,0,0.1-0.1c0,0,0-0.1,0.1-0.1
			c0.1-0.2,0.2-0.5,0.3-0.8c0.4-1.5,0.6-3.3,0.8-5.1c0.2-1.8,0.4-3.6,0.7-5.4C278.3,439.9,278.6,438,279.2,436.2z"/>
	</g>
	<g class="st33">
		<path class="st34" d="M273.7,448.3c0.3,0.9,0.5,1.9,0.5,2.8c0.1,0.9,0.1,1.9,0,2.8c-0.1,1-0.3,1.9-0.8,2.9
			c-0.1,0.2-0.3,0.5-0.6,0.7c-0.2,0.1-0.4,0.2-0.6,0.1c-0.2,0-0.4-0.1-0.5-0.2c-0.5-0.4-0.6-0.9-0.8-1.3c0.4,0.3,0.8,0.6,1.1,0.7
			c0.2,0,0.2,0,0.2-0.1c0-0.1,0.1-0.2,0.2-0.4c0.2-0.7,0.3-1.7,0.4-2.5C273,451.9,273.1,450.1,273.7,448.3z"/>
	</g>
	<g class="st33">
		<path class="st34" d="M275.6,206.5c0.7,2.6,0.9,5.3,1.1,8c0.1,2.7,0.1,5.4-0.2,8c-0.2,1.3-0.4,2.7-0.7,4c-0.3,1.3-0.7,2.7-1.4,4
			c-0.4,0.6-0.8,1.3-1.6,1.9c-0.4,0.3-1,0.4-1.5,0.4c-0.5,0-1-0.2-1.3-0.5c-1.3-1-1.9-2.2-2.3-3.5c1,0.9,2,1.9,3,2.3
			c0.5,0.2,0.8,0.1,1-0.2c0.2-0.3,0.5-0.8,0.7-1.3c0.7-2.2,1-4.9,1.3-7.4l0.8-7.8C274.7,211.8,275,209.2,275.6,206.5z"/>
	</g>
	<g class="st33">
		<path class="st34" d="M267.7,223.8c0.6,1.3,0.9,2.7,1.1,4c0.2,1.4,0.2,2.7,0,4.1c-0.2,1.4-0.4,2.7-1.3,4.2c-0.2,0.3-0.5,0.8-1,1.1
			c-0.2,0.1-0.3,0.1-0.5,0.2c-0.2,0-0.4,0-0.5,0c-0.3,0-0.6-0.2-0.8-0.3c-0.7-0.7-0.9-1.3-1-2.1c0.6,0.4,1.2,0.8,1.7,0.8
			c0.1,0,0.1-0.1,0.1-0.1c0,0,0,0,0,0c0,0,0,0,0,0c0-0.1,0.1-0.3,0.1-0.5c0.2-1,0.3-2.3,0.5-3.5c0.1-1.3,0.3-2.5,0.6-3.8
			C266.8,226.4,267.2,225.1,267.7,223.8z"/>
	</g>
	<g>
		<path class="st35" d="M400.6,37.9c2.9,5.6,4.6,11.8,5.8,18c1.1,6.2,1.7,12.5,1.6,18.9c0,1.6-0.1,3.2-0.2,4.7
			c-0.1,1.6-0.2,3.2-0.4,4.7c-0.2,1.6-0.3,3.1-0.5,4.7c-0.2,1.6-0.5,3.1-0.8,4.7c-0.5,3.1-1.4,6.2-2.3,9.2c-0.4,1.5-1,3-1.5,4.5
			c-0.6,1.5-1.1,2.9-1.8,4.4c0-3.2,0.3-6.3,0.5-9.4c0.1-3.1,0.5-6.2,0.5-9.2l0.3-4.6c0-1.5,0.1-3.1,0.2-4.6c0-0.8,0.1-1.5,0.1-2.3
			l0-2.3c0-1.5,0.1-3,0.1-4.6c0.1-6.1-0.1-12.2-0.3-18.3C401.6,50.3,401.2,44.1,400.6,37.9z"/>
	</g>
	<path class="st36" d="M342.5,321.2l-15.9,2.5l-4.8-2.5l-5.6,8l-5.9,15.5l-5.1,16.5l-2.1,9.6l0,5.4c0,0,53,7.1,68.9-106.6l24.7-8.5
		l-4.3-19.6l-32.9,10.4c0,0-13.9,60.9-28.2,77.4"/>
	<path class="st36" d="M277,352.8c0,0,16.7-57.7,22.3-58.3c5.7-0.6,8.1,0.5,8.1,0.5s12.5,1.6,21.7-39.5l-88,22.6
		C241.2,278.1,257.6,327.8,277,352.8z"/>
	<path class="st37" d="M303.1,370.8c0,0-20.2-15.9-25.4-26.1"/>
	<g>
		<path class="st36" d="M295.3,356.5c-2.8-1.4-5.3-3.2-7.8-5c-2.5-1.9-4.8-3.9-7-6c-2.2-2.1-4.3-4.4-6.2-6.9
			c-1.9-2.5-3.6-5.1-4.5-8.1c2,2.4,4.1,4.5,6.2,6.7c2.1,2.1,4.3,4.2,6.5,6.3c2.2,2.1,4.3,4.2,6.5,6.4
			C291.2,351.9,293.3,354.1,295.3,356.5z"/>
	</g>
	<line class="st37" x1="321.8" y1="265.3" x2="364.9" y2="253.7"/>
	<g>
		<path class="st36" d="M340.9,265.2c2.8-1.2,5.7-2.1,8.6-3c2.9-0.9,5.8-1.6,8.8-2.4c2.9-0.7,5.9-1.4,8.9-1.9c3-0.6,6-1,9-1.3
			c-2.8,1.2-5.7,2.1-8.6,3c-2.9,0.9-5.8,1.6-8.8,2.4c-2.9,0.7-5.9,1.4-8.9,1.9C346.9,264.4,343.9,264.9,340.9,265.2z"/>
	</g>
	<g>
		<path class="st36" d="M203.3,464.2c0.7,2.1,1.5,4.1,2.5,5.9c1,1.8,2.2,3.4,3.6,4.6c1.5,1.2,3.2,2.1,5.2,2.6c2,0.5,4.1,0.7,6.3,0.9
			c-2,1-4.3,1.4-6.7,1.3c-2.4-0.1-4.8-1.1-6.7-2.6c-1.9-1.6-3.2-3.7-3.9-6C203,468.7,202.8,466.4,203.3,464.2z"/>
	</g>
	<g>
		<path class="st36" d="M292.7,440.5c1.3,2.2,2.9,4.1,4.9,4.9c1.9,0.8,4,0.2,6.1-0.7c2-1,4-2.4,5.9-3.9c2-1.5,3.9-3.1,5.9-4.6
			c-1.2,2.3-2.7,4.4-4.4,6.3c-1.8,1.9-3.8,3.6-6.2,4.8c-1.2,0.6-2.6,1-4.1,1.1c-1.5,0.1-3-0.2-4.3-1c-0.6-0.4-1.2-0.9-1.7-1.4
			c-0.5-0.5-0.8-1.1-1.2-1.7C293.1,443.1,292.7,441.8,292.7,440.5z"/>
	</g>
	<g>
		<path class="st36" d="M138.1,201.7c2.6,2.2,5.3,4.1,8.2,5.5c2.9,1.4,5.9,2.1,8.8,1.5c1.4-0.3,2.8-0.9,4.1-1.6
			c1.3-0.8,2.5-1.8,3.6-3c2.3-2.3,4.2-5,6.2-7.8c-0.9,3.3-2.3,6.5-4.4,9.3c-1.1,1.4-2.3,2.7-3.8,3.8c-1.5,1.1-3.3,1.9-5.1,2.2
			c-1.9,0.4-3.8,0.3-5.6-0.2c-1.8-0.5-3.5-1.3-4.9-2.2C142.2,207.3,139.8,204.7,138.1,201.7z"/>
	</g>
	<path class="st38" d="M241.2,566.3c0,0,44.7-51.2,45.6-92.1c0,0-4.6-24.3,9.5-20.2c14.8,4.3,39.7-24.9,25.5-49.7
		c0,0,8.5-7.7,5.1-34.1c0,0,44.3-44.3,45.2-100.6l24.7-8.5l-4.3-19.6l-19.6,4.3c0,0,5.1-19.6,12.8-29c7.7-9.4,6-46.1,6-46.1
		s40.1,4.3,43.5-81S381.5,3.5,381.5,3.5s-20.1-1.6-82.4,17.1c0,0-55.3-26.5-128.7,1.6c0,0-52.5-13.3-75.5-11.1
		c-21,2.1-58,9.4-50.3,98.9s37.5,69.4,37.5,69.4s10.2,44.9,6,64.5s28.1,41.8,34.1,65.3s7.7,60.9,26.4,82.3
		c18.8,21.3,23,38.4,23,50.3c0,11.9,10.2,35.8,26.4,48.6C214.3,503.2,214.4,549.3,241.2,566.3z"/>
	<path class="st38" d="M82.1,177.2c0,0,49.5,10.3,71.6,2.3c0,0,97.2,29.4,182.5,0c0,0,29.7,3.7,54-8.9"/>
	<path class="st38" d="M326.9,370.2c0,0-27.3,24.7-56.3-26.4c-17.9-31.6-24.9-49.2-27.6-58c-1.3-4.1,1.2-8.3,5.3-9.4l124.7-30.7"/>
	<g>
		<path class="st36" d="M241.6,426.2c0.1,0,0.4,0.1,0.7,0.1c0.3,0,0.5,0,0.8,0c0.6,0,1.1,0,1.7,0c1.2-0.1,2.3-0.2,3.5-0.4
			c2.3-0.4,4.6-1.3,6.7-2.3c4.3-2.1,8.2-5.4,11.4-9.2c3.2-3.9,5.7-8.3,7.8-13c2.1-4.7,3.7-9.6,4.9-14.6c-0.8,5.1-1.9,10.2-3.6,15.2
			c-1.7,4.9-3.9,9.8-6.8,14.2c-3,4.4-6.8,8.4-11.6,11.3c-2.4,1.4-4.9,2.6-7.6,3.4c-1.3,0.4-2.7,0.7-4.2,0.9
			c-0.7,0.1-1.4,0.2-2.2,0.2c-0.4,0-0.7,0-1.1,0c-0.4,0-0.7,0-1.3,0L241.6,426.2z"/>
	</g>
	<g>
		<path class="st36" d="M241,393.7c3.6-0.1,7.4-0.3,11.1-0.7c3.7-0.4,7.4-0.9,11.1-1.6c3.7-0.7,7.3-1.6,10.9-2.8
			c3.5-1.2,7-2.7,10.2-4.8c-2.9,2.5-6.2,4.5-9.6,6.2c-3.4,1.7-7.1,3-10.7,4.2c-3.7,1.2-7.4,2.2-11.1,3.1c-3.8,0.9-7.5,1.6-11.4,2.2
			L241,393.7z"/>
	</g>
	<g>
		<path class="st36" d="M276.2,376.2c2.2-1.4,4.8-2.1,7.5-2.2c1.4,0,2.8,0.2,4.2,0.7c1.4,0.5,2.7,1.3,3.8,2.5c1.1,1.1,1.8,2.5,2.2,4
			c0.4,1.4,0.5,2.8,0.4,4.2c-0.2,2.7-1.1,5.2-2.5,7.4c-0.3-2.6-0.4-5-0.9-7.2c-0.2-1.1-0.5-2.1-0.9-3c-0.4-0.9-0.9-1.7-1.5-2.3
			c-1.2-1.3-3-2.2-5.2-2.8C281.2,376.8,278.8,376.5,276.2,376.2z"/>
	</g>
	<polygon class="st37" points="262.7,499.6 272.3,464.2 262.7,464.2 252.8,499.6 	"/>
	<polygon class="st37" points="257.1,344.7 266.5,365 260.2,370.8 250.6,349.1 	"/>
	<g>
		<path class="st36" d="M360.8,177.4c0.3,0.2,0.3,0.3,0.4,0.4c0.1,0.1,0.2,0.2,0.3,0.3c0.2,0.2,0.3,0.3,0.4,0.5
			c0.3,0.3,0.5,0.7,0.6,1c0.4,0.7,0.7,1.3,0.9,1.9c0.5,1.3,0.8,2.6,1.1,3.8c0.5,2.6,0.7,5.1,0.9,7.6c0.1,2.5,0.1,5,0,7.5
			c-0.1,2.5-0.3,5-0.6,7.4c-0.1-2.5-0.3-4.9-0.5-7.4c-0.2-2.5-0.6-4.9-1-7.3c-0.5-2.4-1-4.8-1.9-7c-0.4-1.1-0.9-2.2-1.4-3.1
			c-0.3-0.5-0.6-0.9-0.9-1.3c-0.2-0.2-0.3-0.4-0.5-0.5c-0.1-0.1-0.1-0.1-0.2-0.2c0,0-0.1-0.1-0.1,0c0,0-0.1,0,0.1,0.1L360.8,177.4z"
			/>
	</g>
	<g>
		<path class="st36" d="M351.8,178.2l0.2,0.1l0.1,0.1l0.1,0.1c0.1,0.1,0.1,0.1,0.2,0.2c0.1,0.1,0.2,0.2,0.2,0.3
			c0.1,0.2,0.2,0.4,0.3,0.6c0.2,0.4,0.3,0.7,0.4,1c0.2,0.7,0.3,1.3,0.5,1.9c0.2,1.3,0.3,2.5,0.4,3.7c0.2,2.5,0.1,4.9,0.1,7.3
			c-0.6-2.3-1.4-4.6-2.2-6.8c-0.4-1.1-0.9-2.2-1.4-3.2c-0.3-0.5-0.5-1-0.8-1.4c-0.1-0.2-0.3-0.4-0.4-0.5c-0.1-0.1-0.1-0.1-0.2-0.2
			c0,0-0.1,0-0.1,0c0,0,0,0,0,0l0,0l0,0c0,0,0.1,0.1,0.1,0.1L351.8,178.2z"/>
	</g>
	<g>
		<path class="st36" d="M105.9,183.6c0,0-0.1,0-0.1,0c-0.1,0-0.1,0-0.2,0.1c-0.1,0-0.3,0.1-0.4,0.1c-0.3,0.1-0.5,0.2-0.8,0.4
			c-0.5,0.3-1,0.6-1.5,1c-0.9,0.8-1.7,1.8-2.3,3c-0.6,1.2-1,2.5-1.2,3.9c-0.1,0.7-0.1,1.4-0.2,2.1l0,2.1l-0.6-2.1
			c-0.1-0.7-0.3-1.4-0.3-2.2c-0.1-1.5-0.1-3,0.2-4.5c0.3-1.5,1-3,1.9-4.4c0.5-0.7,1-1.3,1.6-1.9c0.3-0.3,0.6-0.6,1-0.8
			c0.2-0.1,0.3-0.3,0.5-0.4c0.1-0.1,0.2-0.1,0.3-0.2c0.1-0.1,0.2-0.1,0.4-0.2L105.9,183.6z"/>
	</g>
	<g>
		<path class="st36" d="M116.9,183c-1.7,1.4-3.3,3.2-4.8,5.1c-1.5,1.9-2.7,3.9-3.8,6c-1.1,2.1-1.9,4.4-2.5,6.7l-0.4,1.8l-0.2,1.8
			l-0.1,0.9l0,0.9l0,1.8l-0.2-1.8l-0.1-0.9l0-0.9l0-1.8l0.2-1.8c0.3-2.4,0.9-4.8,1.9-7.1c0.9-2.3,2-4.5,3.4-6.6
			c1.4-2.1,2.8-4.1,4.6-6L116.9,183z"/>
	</g>
	<g>
		<path class="st36" d="M103.3,257.3c13.7-5,28.8-5.8,43.3-2.8c7.2,1.6,14.2,4.2,20.8,7.8c6.6,3.5,12.5,8.2,17.8,13.3l2,1.9
			c0.6,0.7,1.3,1.4,1.9,2.1l1.9,2.1c0.6,0.7,1.3,1.4,1.8,2.1l3.4,4.4l0.8,1.1l0.8,1.2l1.6,2.3c2.2,3,3.9,6.3,5.8,9.5
			c1,1.6,1.7,3.3,2.6,4.9l2.5,5c6.1,13.5,10.5,27.6,13.7,41.8l0.5,2.4l-2.1,1.1c-1.7,0.9-3.3,1.5-5,2.2c-1.7,0.6-3.3,1.2-5,1.7
			c-3.4,1-6.9,1.8-10.4,2.4c-7,1-14.4,1-21.4-1.1c-7-1.9-13.6-5.6-18.8-10.6c-5.3-4.9-9.2-11-12.2-17.3l-1.2-2.4l-1-2.4
			c-0.6-1.6-1.3-3.2-1.9-4.9l-1.5-5c-0.2-0.8-0.5-1.7-0.7-2.5l-0.6-2.5l-1.1-5.1c-0.3-1.7-0.6-3.4-0.8-5.1c-0.3-1.7-0.6-3.4-0.8-5.1
			l-0.5-5.1c-1.3-13.6-1.2-27.3-0.3-40.9c0.4,13.6,1.2,27.2,3.3,40.5l0.8,5c0.3,1.7,0.7,3.3,1,4.9c0.4,1.6,0.7,3.3,1.1,4.9l1.3,4.8
			l0.7,2.4c0.2,0.8,0.5,1.6,0.8,2.4l1.6,4.7c0.6,1.6,1.3,3.1,1.9,4.6l1,2.3l1.2,2.2c3,5.8,6.8,11.2,11.6,15.5
			c4.7,4.3,10.5,7.3,16.6,8.9c6.1,1.6,12.6,1.6,19,0.7c3.2-0.5,6.4-1.3,9.5-2.2c1.6-0.5,3.1-1,4.6-1.6c1.5-0.6,3-1.3,4.3-1.9
			l-1.6,3.5c-3.2-14-7.3-27.7-13.1-40.7l-2.3-4.8c-0.8-1.6-1.5-3.2-2.4-4.8c-1.7-3.1-3.4-6.3-5.4-9.2c-3.8-6-8.2-11.6-13-16.6
			c-9.7-10.2-22.1-17.9-35.9-21.6C132.1,253.8,117.3,253.6,103.3,257.3z"/>
	</g>
	<g>
		<path class="st36" d="M239,410c-1.3-0.3-2.8-0.6-4.2-0.8c-1.5-0.2-2.9-0.3-4.4-0.4c-3-0.1-6,0.1-8.9,0.7c-1.5,0.2-2.9,0.7-4.4,1.1
			c-0.7,0.2-1.4,0.5-2.1,0.8l-1.1,0.4l-1,0.5c-2.8,1.2-5.3,3-7.8,4.9c2.2-2.2,4.5-4.3,7.2-5.9l1-0.6l1-0.5c0.7-0.3,1.4-0.7,2.1-1.1
			c1.5-0.6,2.9-1.2,4.4-1.7c3-0.9,6.2-1.6,9.4-1.8c1.6-0.1,3.2-0.2,4.8-0.2c1.6,0,3.2,0.1,4.9,0.4L239,410z"/>
	</g>
	<g>
		<path class="st36" d="M192.7,417.1c0.8,2.1,1.6,3.9,2.5,5.4c1,1.5,2.1,2.6,3.4,3.5c1.3,0.8,2.9,1.4,4.8,1.9c1.8,0.5,3.8,0.8,6,1.3
			c-1.8,1.2-4,1.9-6.2,2.1c-2.2,0.2-4.7-0.3-6.8-1.6c-2.1-1.3-3.7-3.6-4.2-5.9C191.5,421.5,191.7,419.1,192.7,417.1z"/>
	</g>
	
		<ellipse transform="matrix(0.9472 -0.3205 0.3205 0.9472 -137.4926 93.7545)" class="st39" cx="216" cy="464.5" rx="18.5" ry="22.1"/>
	<path class="st39" d="M128.5,181.6c0,0-5.8,23.3,20.4,36.9s0,0,0,0s31.9-0.4,26.6-33.7"/>
	<path class="st39" d="M311.1,260.9c0,0,6.9-22.5,20.3-22.9c13.3-0.4,22.7,11.4,22.7,11.4"/>
	<path class="st40" d="M141,380.4c0,0-10.7,19.1-21.1-13.8s2.5-41.3,8.6-36"/>
	<path class="st41" d="M249.8,232.8c0,0-6,16.6-3.7,28.9c1.1,5.7,7.4,8.2,11.8,4.8c14.1-11.1,48.6-36.8,71.5-43
		c7.4-2,15.3-0.7,21.9,3.5c4.5,2.9,9.8,7.4,13.6,13.9c0,0,0.6-11-5.7-21c-7.2-11.5-21.5-15.2-33.1-9.2L263.9,243
		c-2.8,1.5-6.3,0.6-8.2-2.1L249.8,232.8z"/>
	<path class="st41" d="M215.9,235.7c0,0,6,16.6,3.7,28.9c-1.1,5.7-7.4,8.2-11.8,4.8c-14.1-11.1-48.6-36.8-71.5-43
		c-7.4-2-15.3-0.7-21.9,3.5c-4.5,2.9-9.8,7.4-13.6,13.9c0,0-0.6-11,5.7-21c7.2-11.5,21.5-15.2,33.1-9.2l62.1,32.3
		c2.8,1.5,6.3,0.6,8.2-2.1L215.9,235.7z"/>
	<path class="st42" d="M303.2,373.7c0,0,12.3-63.9,23.4-49.9c11.2,14,33.1-71.9,33.1-71.9"/>
	<path class="st43" d="M277,352.8c0,0,15.6-68,28-58.9c12.4,9.1,24.2-38.4,24.2-38.4"/>
	<path class="st36" d="M336.3,179.5c11.8-61-16.9-112.1-16.9-112.1c23.9,68.8-2.6,117.3-2.6,117.3"/>
	<g>
		<path class="st36" d="M399.8,150.7c2-4.9,3.8-9.8,5.4-14.7c1.7-4.9,3.1-9.9,4.4-14.9c2.6-10,4.5-20.1,5.4-30.3
			c1-10.2,1-20.5-0.1-30.7l-0.2-1.9l-0.3-1.9l-0.5-3.8l-0.7-3.8c-0.1-0.6-0.2-1.3-0.3-1.9l-0.4-1.9c-1-5.1-2.5-10-4-15.1
			c2.6,4.6,4.9,9.3,6.7,14.3c1,2.5,1.7,5,2.4,7.6c0.3,1.3,0.6,2.6,0.9,3.9l0.5,1.9l0.4,2c2,10.5,2.3,21.3,1.3,31.9
			c-1,10.6-3.4,21.1-6.8,31.1c-1.7,5-3.8,9.9-6.1,14.6C405.4,141.8,402.9,146.4,399.8,150.7z"/>
	</g>
	<g>
		<path class="st36" d="M78.2,160.8c-3.1-4.3-5.6-8.9-8-13.6c-2.3-4.8-4.4-9.6-6.1-14.6c-3.5-10-5.9-20.5-6.8-31.1
			c-1-10.6-0.7-21.4,1.3-31.9l0.4-2l0.5-1.9c0.3-1.3,0.6-2.6,0.9-3.9c0.8-2.5,1.5-5.1,2.4-7.6c1.8-5,4.1-9.8,6.7-14.3
			c-1.4,5.1-3,10-4,15.1l-0.4,1.9c-0.1,0.6-0.2,1.3-0.3,1.9l-0.7,3.8l-0.5,3.8l-0.3,1.9l-0.2,1.9C62,80.5,62,90.7,63,100.9
			c0.9,10.2,2.9,20.3,5.4,30.3c1.3,5,2.7,10,4.4,14.9C74.4,151.1,76.2,155.9,78.2,160.8z"/>
	</g>
	<g>
		<path class="st36" d="M344.7,117.4c0-3.2,0-6.4-0.1-9.5c-0.1-3.1-0.4-6.2-0.8-9.3c-0.4-3.1-1-6.1-1.7-9.1c-0.7-3-1.9-5.9-3-9
			c2.1,2.4,4,5.2,5.2,8.2c1.2,3,2.1,6.2,2.5,9.5c0.4,3.2,0.4,6.5,0.1,9.8C346.6,111.2,345.9,114.4,344.7,117.4z"/>
	</g>
	<g>
		<path class="st36" d="M307.5,160.1c1-1.9,1.8-3.9,2.4-5.9c0.7-2,1.2-4.1,1.7-6.1c0.9-4.1,1.4-8.3,1.6-12.5l0.2-3.2l0-3.2
			c0.1-2.1-0.2-4.2-0.2-6.3c0-1.1-0.2-2.1-0.2-3.2l-0.2-3.2c-0.2-2.1-0.5-4.3-0.6-6.4c0.7,2,1.4,4.1,2,6.2c0.5,2.1,1,4.2,1.3,6.4
			c0.6,4.3,0.9,8.7,0.7,13.1c0,1.1-0.2,2.2-0.3,3.3c-0.1,1.1-0.2,2.2-0.5,3.3c-0.4,2.2-0.9,4.3-1.6,6.4c-0.7,2.1-1.5,4.1-2.5,6.1
			C310.2,156.7,309,158.5,307.5,160.1z"/>
	</g>
	<path class="st36" d="M161.8,182.3c0,0-30.4-46.2-12.4-116.7c0,0-24.3,53.3-7.4,113.1"/>
	<g>
		<path class="st36" d="M128.4,117.5c-1.5-2.9-2.3-6.1-2.9-9.2c-0.6-3.2-0.8-6.5-0.7-9.7c0.1-3.3,0.7-6.5,1.7-9.6
			c0.9-3.1,2.5-6.1,4.4-8.6c-0.9,3.1-1.8,6.1-2.3,9.2c-0.5,3.1-0.9,6.1-1,9.2c-0.1,3.1-0.1,6.2,0,9.3
			C127.8,111.1,128.1,114.3,128.4,117.5z"/>
	</g>
	<g>
		<path class="st36" d="M169,156.9c-1.6-1.4-3-3.2-4.2-5c-1.2-1.8-2.2-3.8-3-5.8c-0.9-2-1.5-4.1-2.1-6.2c-0.3-1-0.5-2.1-0.7-3.2
			c-0.2-1.1-0.5-2.1-0.6-3.2c-0.6-4.3-0.7-8.7-0.4-13.1c0.1-2.2,0.5-4.3,0.8-6.5c0.4-2.1,0.9-4.2,1.5-6.3c0.1,2.2,0,4.3,0,6.5l0,3.2
			c0,1.1-0.1,2.1,0,3.2c0.2,2.1,0.1,4.2,0.4,6.3l0.3,3.2l0.4,3.1c0.6,4.2,1.4,8.3,2.7,12.3c0.6,2,1.3,4,2.2,5.9
			C166.9,153.2,167.9,155.1,169,156.9z"/>
	</g>
	<path class="st38" d="M321.8,404.3c0,0-24.1-2.4-32.1,19.3s3,30.4,3,30.4"/>
	<path class="st44" d="M72,181.1h10.5l1.6,8c34.2,7,157.1,8.4,157.1,8.4l0-3.8l-0.3-23c-12.1-4.8-172.1,5.8-172.1,5.8"/>
	<path class="st45" d="M169,170.8c0,0-28.1-43-19.6-105.3c0,0-17.7,57.2-5.1,88.7l4.6,17.5"/>
	<path class="st44" d="M84.8,175.5c0,0-42.4-72.7-7.3-160.2L56.9,30.7L43.6,58.7L43,101.6l7.2,46.6l12.9,29l15,5.1"/>
	<path class="st46" d="M132.3,203.4c0,0,24.4,4.5,43.9-7.1c0,0,7.1,19.2-17.6,31.3"/>
	<path class="st47" d="M234.8,367.9c0,0-0.6,17.4-7.6,15.9C220.2,382.4,234.8,367.9,234.8,367.9z"/>
	<ellipse class="st48" cx="300.9" cy="439.4" rx="3.4" ry="5.7"/>
	<ellipse transform="matrix(0.9833 -0.1818 0.1818 0.9833 -74.2093 63.2723)" class="st48" cx="308" cy="436.4" rx="1.9" ry="3.2"/>
	<ellipse class="st48" cx="221" cy="470.5" rx="3.4" ry="5.7"/>
	
		<ellipse transform="matrix(0.9833 -0.1818 0.1818 0.9833 -81.1961 49.2575)" class="st48" cx="228.1" cy="467.6" rx="1.9" ry="3.2"/>
	<ellipse class="st49" cx="312.3" cy="413.8" rx="5.3" ry="3.1"/>
	<ellipse class="st49" cx="212.1" cy="450.7" rx="5.3" ry="3.1"/>
	<ellipse class="st14" cx="201" cy="110.8" rx="8.3" ry="14"/>
	<ellipse class="st14" cx="213.5" cy="128.1" rx="4.2" ry="7"/>
	<ellipse class="st14" cx="91.8" cy="52.2" rx="7" ry="15.8"/>
	<ellipse class="st14" cx="107.3" cy="56.8" rx="5.2" ry="8.8"/>
	<ellipse class="st23" cx="225.7" cy="321.8" rx="4.4" ry="7.5"/>
	<ellipse class="st23" cx="222.6" cy="307" rx="2.8" ry="4.7"/>
	<ellipse class="st23" cx="108.5" cy="154.8" rx="9.7" ry="16.4"/>
	<ellipse class="st23" cx="91.8" cy="165.6" rx="4.4" ry="7.5"/>
</g>
</svg>
