<?xml version="1.0" encoding="utf-8"?>
<!-- Generator: Adobe Illustrator 24.1.1, SVG Export Plug-In . SVG Version: 6.00 Build 0)  -->
<svg version="1.1" xmlns="http://www.w3.org/2000/svg" xmlns:xlink="http://www.w3.org/1999/xlink" x="0px" y="0px"
	 viewBox="0 0 140 700" style="enable-background:new 0 0 140 700;" xml:space="preserve">
<style type="text/css">
	.Sombra_x0020_paralela{fill:none;}
	.Resplandor_x0020_externo_x0020_5_x0020_pt_x002E_{fill:none;}
	.Neón_x0020_azul{fill:none;stroke:#8AACDA;stroke-width:7;stroke-linecap:round;stroke-linejoin:round;}
	.Resalte_x0020_cromado{fill:url(#SVGID_1_);stroke:#FFFFFF;stroke-width:0.3629;stroke-miterlimit:1;}
	.A_x0020_todo_x0020_ritmo_GS{fill:#FFDD00;}
	.Alyssa_GS{fill:#A6D0E4;}
	.st0{fill:#6B982B;}
	.st1{fill:#366B2B;}
	.st2{fill:#002E16;}
	.st3{opacity:0.49;fill:#002E16;}
	.st4{opacity:0.56;fill:#002E16;}
	.st5{opacity:0.5;fill:#001F16;}
	.st6{opacity:0.53;fill:#001F16;}
	.st7{opacity:0.68;fill:#001F16;}
	.st8{opacity:0.71;fill:#001F16;}
	.st9{fill:#FFB400;}
	.st10{fill:#751E1E;}
	.st11{fill:#407710;}
	.st12{fill:#B11A00;}
	.st13{fill:#FFFFFF;}
	.st14{opacity:0.24;fill:#FFFFFF;}
	.st15{opacity:0.74;fill:#430000;}
	.st16{fill:#430000;}
	.st17{fill:#606060;}
	.st18{opacity:0.33;}
	.st19{opacity:0.44;fill:#6A0000;}
	.st20{opacity:0.35;fill:#FFFFFF;}
	.st21{opacity:0.61;fill:#FFFFFF;}
	.st22{opacity:0.19;fill:#FFFFFF;}
	.st23{opacity:0.24;}
	.st24{opacity:0.26;}
	.st25{opacity:0.28;}
	.st26{opacity:0.39;fill:#6A0000;}
	.st27{opacity:0.42;fill:#6A0000;}
	.st28{opacity:0.47;fill:#6A0000;}
	.st29{opacity:0.43;fill:#6A0000;}
	.st30{opacity:0.42;}
	.st31{opacity:0.25;}
	.st32{opacity:0.35;fill:#6A0000;}
	.st33{opacity:0.44;}
	.st34{fill:#6A0000;}
	.st35{fill:#520000;}
	.st36{fill:#020202;}
	.st37{fill:none;stroke:#020202;stroke-width:2;stroke-miterlimit:10;}
	.st38{fill:none;stroke:#020202;stroke-width:4;stroke-miterlimit:10;}
	.st39{fill:none;stroke:#020202;stroke-width:3;stroke-miterlimit:10;}
	.st40{fill:none;stroke:#020202;stroke-width:2.7533;stroke-miterlimit:10;}
	.st41{fill:#020202;stroke:#020202;stroke-width:3.103;stroke-miterlimit:10;}
	.st42{fill:none;stroke:#020202;stroke-width:3.103;stroke-miterlimit:10;}
	.st43{fill:none;stroke:#020202;stroke-width:3.3728;stroke-miterlimit:10;}
	.st44{opacity:0.54;fill:#001F16;}
	.st45{opacity:0.61;fill:#001F16;}
	.st46{opacity:0.49;fill:#001F16;}
	.st47{opacity:0.6;fill:#001F16;}
	.st48{opacity:0.53;}
	.st49{opacity:0.38;fill:#FFFFFF;}
</style>
<linearGradient id="SVGID_1_" gradientUnits="userSpaceOnUse" x1="0" y1="0" x2="6.123234e-17" y2="-1">
	<stop  offset="0" style="stop-color:#656565"/>
	<stop  offset="0.618" style="stop-color:#1B1B1B"/>
	<stop  offset="0.6292" style="stop-color:#545454"/>
	<stop  offset="0.9831" style="stop-color:#3E3E3E"/>
</linearGradient>
<g id="Capa_2">
	<g>
		<image style="overflow:visible;" width="289" height="437" xlink:href="5938293B.png"  transform="matrix(1 0 0 1 -18 -20)">
		</image>
	</g>
</g>
<g id="Capa_1">
	<g>
		<path class="st0" d="M140.6,396.1V118.9H30.8l3,26.3c0,0,3.8,25.4,0.8,30.8c-3,5.4,20.4,31.6,21.4,35.2c1.1,3.6,7.9,23.9,7.5,33.3
			c-0.3,9.4,9.1,27.3,23.8,46c0,0,6.7,17.9,6.8,27.8c0,9.9,21.5,30.4,21.5,30.4l14.6,36.3L140.6,396.1z"/>
		<path class="st1" d="M141.9,11.4c0,0-32.7,0.9-50.2,8.9s-0.9-1.1-0.9-1.1S39.9,7.3,28,15S6.9,24.1,4.1,61.6s9.2,62.5,18.5,68.1
			l13.4-1.4c0,0,35.7,5.9,44.2,0.6l17.4,4.1l29,4l17,1.7"/>
		<polyline class="st1" points="61.1,132.5 80.1,126.8 95.7,132.6 95.7,145.2 85.8,153.7 76.9,155.8 65.4,145.4 		"/>
		<path class="st1" d="M71.4,267.7c0,0-8.2-24.9-10.2-35.4c0,0-10.1,1.8-6.9,14.8C57.5,260.2,62.7,279.3,71.4,267.7z"/>
		<polyline class="st1" points="120.5,340 128.1,340.2 134,335.5 136.2,325.8 132.8,316.8 120.5,309.9 114.4,313.7 110.3,322.4 
			112.1,332.1 		"/>
		<path class="st2" d="M126,250.1c0,0-17.1,9.2-35.3-0.5s-21.9-63.4-20.6-69.4c0,0,28.7,3.8,44.2,37.1S126,250.1,126,250.1z"/>
		<path class="st1" d="M73.7,16.3c0,0-3.8,19.6-2.3,19.6c1.5,0,32.7,2.2,32.7,2.2l-5.9-21.8l-7.4,3"/>
		<path class="st3" d="M140.6,379.5c0,0-19.8-26.5-21.8-33c-0.2-0.7-0.6-1.3-1.2-1.8c-3.9-3.6-17.9-17.1-19.8-30.2
			c-1.9-12.8-6.9-35.9-15.4-42.6c-4-3.2-7.2-7.4-8.6-12.4c-4-14.2-10.5-38.5-9.8-44.5c1-8.7-18.1-34.8-21.7-34.8
			c-2.9-0.1-2.3-35.2-2-47.2c0.1-2.2-1.7-4-3.9-4.1h0c-2.4-0.1-4.3,2-4.1,4.4l2.8,24.6c0,0.2,0,0.3,0,0.5l-0.2,20.6
			c0,0.8,0.2,1.6,0.7,2.2L56.3,212c0.3,0.4,0.5,0.9,0.6,1.4l5.7,26.2l6.7,24.6c0.1,0.5,0.3,0.9,0.6,1.3l14.8,21
			c0.1,0.2,0.2,0.3,0.3,0.5l5.1,9.9c0.2,0.4,0.3,0.7,0.4,1.1L94,318c0,0.2,0.1,0.4,0.1,0.6l3.8,11.2c0.2,0.5,0.4,0.9,0.8,1.3
			l9.1,10.6l7.4,7.8c0.4,0.4,0.7,0.8,0.8,1.3l7.6,19.9c0,0.1,0.1,0.2,0.2,0.4l8.2,16.5c0.2,0.4,0.5,0.8,0.8,1.1l7.7,7.4"/>
		<path class="st4" d="M140.4,290.8c0,0-16.5,4.6-23.1,10.7c-6.5,6-10.2-8.5-10.2-8.5s-5.3,17.8,10.3,13.2c0,0,21.5-9.6,23.2-4"/>
		<path class="st5" d="M94.1,260.8c25.7,6.2,34.5-11,34.5-11c-54.5-3.9-58.4-69.6-58.4-69.6c-13.4-0.2-13.4,1.3-13.4,1.3
			c2.4,16.6,14.7,53.1,23,68l0,0C82.7,255.1,87.9,259.3,94.1,260.8z"/>
		<path class="st6" d="M123.1,167.7c0,0,6.6,10.4,7.8,20.5c0.8,7.3-7.7,12.1-13.6,7.7c-17.4-12.7-55.9-37.5-72.8-20l7.1-16.5
			l31.9,2.6l35.1,22l4.6-6.9"/>
		<path class="st7" d="M112.8,317c0,0,1.4,22.5,21.2,18.5c0,0-1.9,9.3-6.5,11.1S102.8,339.9,112.8,317z"/>
		<path class="st8" d="M68,270.8c0,0-11.9-19.3-11.1-37l4.3-2.1c0,0,7.4,31.8,10.3,35.9"/>
		<path class="st9" d="M140.6,394.5V137.9c0,0,52.2,0.1,62.3-8.7c0,0,34,1.2,40.6-6.4c0,0,4.4,24.7-6.2,36.6
			c-10.6,11.9-1.5,25.7-1.5,25.7L213,222.2l-13.2,38.4l-0.1,15.6l-3.4,8.5l-23,34.6L171,332l1.1,5l-3.8,13.7l-13,25.3l-16,19.2"/>
		<path class="st10" d="M140.6,11.4v127.3c0,0,61.6,2.4,62.3-15.9c0,0-5.6,6.7,5.3,6.4c10.9-0.3,41.9-7.2,41.9-7.2l11.4-8.1
			c0,0,23.5-23.9,6.6-84.7c0,0-7.3-34.7-69.2-15.2l-18.4,5.2C180.6,19.3,152,9.3,140.6,11.4z"/>
		<polyline class="st11" points="148.6,350 155.5,350 162.1,325.5 155.5,325.5 		"/>
		<polyline class="st11" points="153.7,261 158.1,257 151.6,243 147.1,246 		"/>
		<path class="st12" d="M174.6,316.7c0,0,16,8.8,23.7-15c7.7-23.9-14.2-15.5-14.2-15.5s-8.6,6.6-9.9,11.4S170.9,310.8,174.6,316.7z"
			/>
		<path class="st12" d="M188.9,185.1l29.7-7.9c0,0-7.3-9.6-18.1-7.9"/>
		<path class="st12" d="M199.9,171.3c0,0-12.4,4.9-13.8,20.8"/>
		<path class="st13" d="M162.1,244.4c0,0,10.6,20.6,24.3,19.9c13.7-0.7,27.5-39.3,27.5-39.3l12.2-49.1l-51.5,14.1L162.1,244.4z"/>
		<path class="st13" d="M140.6,278.9c0,0,17.9-2.2,26.2-6.9c0,0-3.7,25.8-26.2,30.2"/>
		<ellipse class="st14" cx="227.2" cy="23.8" rx="7.6" ry="6.3"/>
		<path class="st15" d="M214.7,127.6c0,0,0.2-65.5-19.5-76.1c0,0,21.2,57.9,3.5,78.4"/>
		<path class="st16" d="M243.3,121.3c0,0,42.2-61.8,2-113.3c0,0,18,6.1,22.9,21.1s11.4,43.3,3.8,62s-14.9,24.4-17.4,28.6"/>
		<path class="st16" d="M140.4,122.8c0,0,81,10,100.3,0c0,0-26.7,10.6-41.9,7.2c-15.2-3.4,0,0,0,0l-16.7,5.1l-41.4,2.6"/>
		<path class="st17" d="M165.8,274.4"/>
		<path class="st18" d="M140.6,287.1c0,0,16.3,1.9,24.2-7.6c0,0-3.2,21.4-24.2,22.8"/>
		<path class="st19" d="M143.6,171.7c0,0-7.5,21.6,3.5,27c11,5.4,41.1-38.6,55.8-34.6c14.7,4,24.3,11.7,24.3,11.7
			s-11.5-27.5-27.3-19.9c-15.8,7.7-46.7,28.3-46.7,28.3"/>
		<ellipse class="st20" cx="83.8" cy="195.9" rx="6.9" ry="5.8"/>
		<circle class="st21" cx="83.5" cy="195.2" r="3.5"/>
		<ellipse class="st20" cx="95.5" cy="203" rx="2.2" ry="1.9"/>
		<circle class="st21" cx="95.4" cy="202.7" r="1.1"/>
		<path class="st22" d="M9.7,32.5c0,0,11-18.7,25.2-19.2s56.7,7.1,56.7,7.1S132,1,180.6,19.3c0,0,46.2-14.4,56.9-11.9
			c10.7,2.5,21.7,4.3,26.8,15.4c0,0-26.2-2.7-45.7,2.8c0,0-36,10.9-62.8,3.4c-4.4-1.2-9-1.7-13.6-1.7H137c-5.7,0-11.3,0.9-16.7,2.7
			C108,34,82.3,40.4,61,31.6c-3.1-1.3-6.3-2.1-9.6-2.6C40.9,27.6,20.1,25.8,9.7,32.5z"/>
		<path class="st23" d="M11.2,116c0,0,6,18.4,20.7,12.7c14.7-5.7,5.5,10.2,48.3,0.2c0,0,78.5,21.5,122.7,0.3c0,0,35.6,0.4,41.6-6.4
			c0,0,12.2-3.1,17-6.8l-32.9,4.9c-8.6,1.3-17.3,1.5-26,0.8l-54-4.8c-6.2-0.5-12.4-0.6-18.5-0.1l-63,5c-8.7,0.7-17.4,0.4-26-1
			L11.2,116z"/>
		<path class="st18" d="M33,140.5c0,0,168.8,18.9,211.4-2.6l0.1-15.2c0,0-67.3,12.6-105.1,12.6c-37.8,0.1-65.7-6-107.5-6.7"/>
		<path class="st19" d="M140.6,217.1c0,0,18.5,57.8,59.1,54.9l0.1-11.4c0,0-12.8,11.3-30-3.1l-29.2-56.4"/>
		<path class="st24" d="M176.2,293.8c0,0-3.8,28,20.1,8.4c0,0-1.5,16.3-20.1,16.3C176.2,318.5,168.7,311.7,176.2,293.8z"/>
		<polyline class="st25" points="191.6,178.9 212.8,174.6 218.6,177.2 188.9,185.1 		"/>
		<path class="st19" d="M140.6,379.5c0,0,28.5-29.1,29.5-57.8l2,15.3c0,0-8.5,39.9-31.5,57.5"/>
		<path class="st26" d="M186.6,284.1c0,0,7.5-6.4,7.5-19.8l5.7-3.7c0,0-0.2,18-3.5,23.6"/>
		<path class="st27" d="M231.6,174.6c0,0,17.4-37.5,13-51.8c0,0-11.3,6.3-13.4,4.5c-2.1-1.8,3.6,19.2-6.9,49.8"/>
		<path class="st27" d="M140.6,302.2c0,0,19.9-0.3,26.2-30.2c0,0,3.3,35.2-26.2,46.5"/>
		<polygon class="st28" points="159.1,257 160.1,261 152.6,267 149.9,261.5 143.6,247.6 147.1,245 153.5,260.6 		"/>
		<polygon class="st29" points="147.6,350 146.2,355.3 156.4,354.1 165.8,324.4 162.4,324.4 156.4,350 		"/>
		<ellipse class="st18" cx="231.6" cy="109.1" rx="6.6" ry="10.3"/>
		<circle class="st18" cx="240.7" cy="95.1" r="3.9"/>
		<ellipse class="st22" cx="161.5" cy="51.6" rx="10.6" ry="13.5"/>
		<ellipse class="st22" cx="178.1" cy="62.5" rx="3.9" ry="6.5"/>
		<ellipse class="st30" cx="161.4" cy="126.8" rx="8.8" ry="10.8"/>
		<ellipse class="st31" cx="151.2" cy="107.3" rx="4.1" ry="8.2"/>
		<path class="st32" d="M140.6,137.9v3.4c0,0,50.1,5.8,104-10.5v-8"/>
		<g class="st33">
			<path class="st34" d="M166.8,306.2c0.4,1.3,0.6,2.6,0.8,3.9c0.1,1.3,0.1,2.6,0,3.9c-0.2,1.3-0.4,2.6-1.1,4
				c-0.2,0.3-0.4,0.7-0.9,1c-0.1,0.1-0.3,0.1-0.4,0.2c-0.1,0-0.3,0-0.4,0c-0.3,0-0.5-0.1-0.7-0.3c-0.7-0.5-0.9-1.2-1.1-1.8
				c0.5,0.4,1.1,0.9,1.5,1c0.2,0,0.3,0,0.3-0.1c0.1-0.1,0.2-0.3,0.2-0.6c0.3-1,0.4-2.3,0.5-3.5c0.1-1.2,0.3-2.5,0.5-3.7
				C166.2,308.7,166.4,307.4,166.8,306.2z"/>
		</g>
		<g class="st33">
			<path class="st34" d="M163,314.5c0.4,1.3,0.5,2.6,0.4,3.9c-0.1,0.7-0.2,1.3-0.6,2c-0.1,0.2-0.2,0.3-0.4,0.5
				c-0.2,0.2-0.6,0.1-0.8,0c-0.3-0.3-0.4-0.6-0.5-0.9c0.3,0.2,0.5,0.4,0.8,0.5c0.1,0,0.1,0,0.1-0.1c0-0.1,0.1-0.2,0.1-0.3
				c0.1-0.5,0.2-1.1,0.3-1.8C162.6,317.1,162.7,315.8,163,314.5z"/>
		</g>
		<g class="st33">
			<path class="st34" d="M164.3,147.6c0.5,1.8,0.7,3.7,0.8,5.5c0.1,1.8,0.1,3.7-0.1,5.6c-0.2,1.9-0.5,3.7-1.5,5.6
				c-0.2,0.4-0.6,0.9-1.1,1.3c-0.2,0.1-0.3,0.2-0.5,0.2c-0.2,0-0.4,0-0.5,0.1c-0.3,0-0.7-0.1-0.9-0.3c-0.9-0.7-1.3-1.6-1.6-2.4
				c0.7,0.6,1.4,1.3,2.1,1.5c0.4,0.1,0.5,0.1,0.7-0.1c0.2-0.2,0.4-0.5,0.5-0.9c0.5-1.5,0.7-3.3,0.9-5.1
				C163.4,154.9,163.6,151.2,164.3,147.6z"/>
		</g>
		<g class="st33">
			<path class="st34" d="M158.9,159.5c0.4,0.9,0.6,1.8,0.8,2.8c0.1,0.9,0.1,1.9,0,2.8c-0.1,1-0.3,1.9-0.9,2.9
				c-0.1,0.2-0.4,0.5-0.7,0.7c-0.2,0.1-0.4,0.2-0.7,0.2c-0.2,0-0.4-0.1-0.6-0.2c-0.5-0.5-0.6-0.9-0.7-1.4c0.4,0.2,0.8,0.5,1.2,0.6
				c0.2,0,0.1-0.1,0-0.1c0-0.1,0-0.2,0.1-0.4c0.1-0.7,0.2-1.6,0.3-2.4c0.1-0.9,0.2-1.8,0.4-2.6C158.3,161.3,158.5,160.4,158.9,159.5
				z"/>
		</g>
		<g>
			<path class="st35" d="M250.7,31.1c2,3.9,3.2,8.1,4,12.4c0.8,4.3,1.2,8.7,1.1,13c-0.1,4.4-0.4,8.7-1.3,13c-0.4,2.1-1,4.2-1.6,6.3
				c-0.6,2.1-1.4,4.1-2.3,6.1c0-2.2,0.2-4.3,0.3-6.5c0.1-2.1,0.3-4.3,0.4-6.4c0.3-4.2,0.3-8.4,0.4-12.6c0-4.2-0.1-8.4-0.2-12.6
				C251.4,39.7,251.1,35.4,250.7,31.1z"/>
		</g>
		<path class="st36" d="M210.5,226.8l-10.9,1.7l-3.3-1.7l-3.9,5.5l-4.1,10.7l-3.5,11.4l-1.5,6.6l0,3.7c0,0,36.6,4.9,47.6-73.6
			l17.1-5.9l-2.9-13.5l-22.7,7.2c0,0-9.6,42.1-19.5,53.4"/>
		<path class="st36" d="M165.4,248.6c0,0,11.5-39.9,15.4-40.3s5.6,0.4,5.6,0.4s8.6,1.1,15-27.3L140.6,197
			C140.6,197,152,231.3,165.4,248.6z"/>
		<path class="st37" d="M183.4,261c0,0-13.9-11-17.6-18"/>
		<g>
			<path class="st36" d="M178,251.1c-1.9-1-3.7-2.2-5.4-3.5c-1.7-1.3-3.3-2.7-4.8-4.1c-1.5-1.5-3-3-4.3-4.8
				c-1.3-1.7-2.5-3.5-3.1-5.6c1.3,1.7,2.8,3.1,4.3,4.6c1.5,1.5,3,2.9,4.5,4.4C172.1,245,175.2,247.9,178,251.1z"/>
		</g>
		<line class="st37" x1="196.2" y1="188.1" x2="226" y2="180.2"/>
		<g>
			<path class="st36" d="M209.5,188.1c2-0.8,3.9-1.4,5.9-2c2-0.6,4-1.1,6-1.6c2-0.5,4.1-0.9,6.1-1.3c2.1-0.4,4.1-0.7,6.2-0.9
				c-2,0.8-3.9,1.4-5.9,2.1c-2,0.6-4,1.1-6,1.6c-2,0.5-4.1,0.9-6.1,1.3C213.6,187.6,211.6,187.9,209.5,188.1z"/>
		</g>
		<g>
			<path class="st36" d="M114.4,325.5c0.5,1.5,1.1,2.8,1.7,4.1c0.7,1.2,1.5,2.3,2.5,3.2c1,0.8,2.2,1.5,3.6,1.8l0.5,0.2l0.5,0.1
				l1.1,0.2c0.7,0.1,1.5,0.1,2.3,0.2c-0.7,0.3-1.5,0.6-2.2,0.7l-1.2,0.1c-0.2,0-0.4,0-0.6,0l-0.6,0c-1.6,0-3.3-0.7-4.6-1.8
				c-1.3-1.1-2.2-2.6-2.7-4.1C114.3,328.7,114.1,327,114.4,325.5z"/>
		</g>
		<g>
			<path class="st36" d="M176.2,309.2c0.9,1.5,2,2.9,3.3,3.4c1.3,0.5,2.8,0.1,4.2-0.5c1.4-0.7,2.8-1.7,4.1-2.7
				c1.3-1,2.7-2.1,4.1-3.2c-0.8,1.6-1.8,3-3.1,4.3c-1.2,1.3-2.6,2.5-4.3,3.3c-0.9,0.4-1.8,0.7-2.8,0.8c-1,0.1-2.1-0.1-3-0.7
				c-0.9-0.5-1.5-1.3-1.9-2.1C176.5,310.9,176.2,310.1,176.2,309.2z"/>
		</g>
		<g>
			<path class="st36" d="M69.4,144.2c1.8,1.5,3.7,2.8,5.7,3.8c2,0.9,4.1,1.5,6.1,1c2-0.3,3.8-1.6,5.3-3.2c1.6-1.6,2.9-3.5,4.3-5.4
				c-0.6,2.3-1.6,4.5-3,6.4c-0.7,1-1.6,1.9-2.6,2.6c-1,0.7-2.3,1.3-3.5,1.5c-1.3,0.2-2.6,0.2-3.9-0.1c-1.2-0.3-2.4-0.9-3.4-1.5
				C72.2,148.1,70.6,146.3,69.4,144.2z"/>
		</g>
		<path class="st38" d="M140.6,396.1c0,0,30.9-35.3,31.5-63.6c0,0-3.2-16.8,6.6-13.9c10.3,3,27.4-17.2,17.6-34.3
			c0,0,5.9-5.3,3.5-23.6c0,0,30.6-30.6,31.2-69.5l17.1-5.9l-2.9-13.5l-13.5,2.9c0,0,3.5-13.5,8.8-20c5.3-6.5,4.1-31.8,4.1-31.8
			s27.7,2.9,30-56c2.4-58.9-37.1-59.5-37.1-59.5s-13.9-1.1-56.9,11.8c0,0-38.2-18.3-88.9,1.1c0,0-36.3-9.2-52.1-7.7
			C25.1,14.1-0.5,19.1,4.8,81s25.9,47.9,25.9,47.9s7.1,31,4.1,44.5c-2.9,13.5,19.4,28.9,23.6,45.1s5.3,42.1,18.3,56.8
			c13,14.7,15.9,26.5,15.9,34.7c0,8.2,7.1,24.7,18.3,33.6C122,352.5,122.1,384.3,140.6,396.1z"/>
		<path class="st38" d="M30.8,127.3c0,0,34.2,7.1,49.5,1.6c0,0,67.1,20.3,126,0c0,0,20.5,2.5,37.3-6.1"/>
		<path class="st38" d="M199.8,260.6c0,0-18.8,17.1-38.9-18.3c-12.4-21.8-17.2-34-19.1-40.1c-0.9-2.8,0.8-5.8,3.7-6.5l86.1-21.2"/>
		<g>
			<path class="st36" d="M140.9,299.3c0.2,0,0.7,0.1,1,0.1c0.4,0,0.8,0,1.2,0c0.4,0,0.8-0.1,1.2-0.1c0.4,0,0.8-0.1,1.2-0.2l1.2-0.3
				l1.2-0.4c0.8-0.2,1.5-0.6,2.3-0.9c3-1.5,5.6-3.7,7.8-6.4l0.8-1c0.3-0.3,0.5-0.7,0.8-1.1l1.4-2.2c0.5-0.7,0.8-1.5,1.2-2.3
				c0.4-0.8,0.8-1.6,1.2-2.4c0.6-1.7,1.3-3.3,1.9-5l1.5-5.1l-1,5.3c-0.4,1.7-1,3.5-1.5,5.2c-0.3,0.8-0.7,1.7-1,2.5
				c-0.4,0.8-0.6,1.7-1.1,2.5l-1.3,2.4c-0.2,0.4-0.4,0.8-0.7,1.2l-0.8,1.1c-2.1,3-4.7,5.8-8,7.8c-0.8,0.5-1.6,1-2.5,1.3l-1.3,0.6
				l-1.4,0.4c-0.5,0.2-0.9,0.3-1.4,0.4c-0.5,0.1-1,0.2-1.4,0.3c-0.5,0.1-1,0.1-1.5,0.2c-0.5,0-1,0.1-1.6,0L140.9,299.3z"/>
		</g>
		<g>
			<path class="st36" d="M140.5,276.9c2.5,0,5.1-0.2,7.7-0.5c2.6-0.3,5.1-0.6,7.7-1.1c2.5-0.5,5.1-1.1,7.5-1.9
				c2.4-0.8,4.8-1.9,7-3.3c-2,1.7-4.3,3.1-6.6,4.3c-2.4,1.2-4.9,2.1-7.4,2.9c-2.5,0.8-5.1,1.5-7.7,2.1c-2.6,0.6-5.2,1.1-7.9,1.5
				L140.5,276.9z"/>
		</g>
		<g>
			<path class="st36" d="M164.8,264.7c1.5-1,3.3-1.5,5.2-1.5c1.9,0,4,0.6,5.5,2.2c0.7,0.8,1.3,1.8,1.5,2.7c0.3,1,0.4,2,0.3,2.9
				c-0.1,1.9-0.7,3.6-1.7,5.1c-0.2-1.8-0.3-3.5-0.6-5c-0.3-1.5-0.8-2.8-1.7-3.7c-0.8-0.9-2.1-1.5-3.6-1.9
				C168.2,265.2,166.6,265,164.8,264.7z"/>
		</g>
		<polygon class="st37" points="155.5,350 162.1,325.5 155.5,325.5 148.6,350 		"/>
		<polygon class="st37" points="151.6,243 158.1,257 153.7,261 147.1,246 		"/>
		<g>
			<path class="st36" d="M223.2,127.5c0.2,0.1,0.2,0.2,0.3,0.2c0.1,0.1,0.1,0.1,0.2,0.2c0.1,0.1,0.2,0.2,0.3,0.3
				c0.2,0.2,0.3,0.5,0.4,0.7c0.3,0.4,0.5,0.9,0.6,1.3c0.4,0.9,0.6,1.8,0.8,2.7c0.4,1.8,0.5,3.5,0.6,5.3c0.1,1.7,0.1,3.5,0,5.2
				c-0.1,1.7-0.2,3.4-0.4,5.1c-0.1-1.7-0.2-3.4-0.4-5.1c-0.2-1.7-0.4-3.4-0.7-5c-0.3-1.6-0.7-3.3-1.3-4.8c-0.3-0.8-0.6-1.5-1-2.2
				c-0.2-0.3-0.4-0.6-0.6-0.9c-0.1-0.1-0.2-0.3-0.3-0.4c-0.1-0.1-0.1-0.1-0.1-0.1c0,0,0,0,0,0c0,0,0,0,0.1,0L223.2,127.5z"/>
		</g>
		<g>
			<path class="st36" d="M217,128c0.2,0.2,0.2,0.2,0.2,0.2c0.1,0.1,0.1,0.1,0.1,0.1c0.1,0.1,0.1,0.2,0.2,0.2
				c0.1,0.2,0.1,0.3,0.2,0.4c0.1,0.2,0.2,0.5,0.3,0.7c0.1,0.5,0.2,0.9,0.3,1.3c0.2,0.9,0.2,1.7,0.3,2.6c0.1,1.7,0.1,3.4,0.1,5
				c-0.4-1.6-0.9-3.2-1.5-4.7c-0.3-0.8-0.6-1.5-1-2.2c-0.2-0.3-0.4-0.7-0.6-1c-0.1-0.1-0.2-0.3-0.3-0.4c0,0-0.1-0.1-0.1-0.1
				c0,0,0,0,0,0c0,0,0,0,0,0c0,0,0,0,0.1,0.1L217,128z"/>
		</g>
		<g>
			<path class="st36" d="M47.2,131.8c-0.1,0-0.3,0.1-0.5,0.1c-0.2,0.1-0.4,0.2-0.5,0.3c-0.3,0.2-0.7,0.4-1,0.7
				c-0.6,0.5-1.2,1.3-1.6,2.1c-0.4,0.8-0.7,1.7-0.8,2.7c-0.1,0.5-0.1,1-0.1,1.4l0,1.5l-0.4-1.4c-0.1-0.5-0.2-1-0.2-1.5
				c-0.1-1-0.1-2.1,0.2-3.1c0.2-1,0.7-2.1,1.3-3c0.3-0.5,0.7-0.9,1.1-1.3c0.5-0.4,0.8-0.8,1.5-1.1L47.2,131.8z"/>
		</g>
		<g>
			<path class="st36" d="M54.8,131.3c-1.2,1-2.3,2.2-3.3,3.5c-1,1.3-1.9,2.7-2.6,4.1c-0.8,1.5-1.3,3-1.7,4.6c-0.4,1.6-0.5,3.3-0.5,5
				c-0.2-1.7-0.3-3.4,0-5c0.2-1.7,0.6-3.3,1.3-4.9c0.6-1.6,1.4-3.1,2.3-4.6c0.9-1.5,1.9-2.8,3.2-4.1L54.8,131.3z"/>
		</g>
		<g>
			<path class="st36" d="M45.3,182.6c9.4-3.5,19.9-4,29.9-2c5,1.1,9.8,2.9,14.4,5.4c4.5,2.5,8.6,5.6,12.3,9.2l1.4,1.3
				c0.4,0.5,0.9,0.9,1.3,1.4c0.8,1,1.8,1.9,2.6,2.9l2.4,3c0.8,1,1.5,2.1,2.2,3.2c1.5,2.1,2.7,4.3,4,6.5c0.7,1.1,1.2,2.3,1.8,3.4
				l1.7,3.4c4.2,9.3,7.2,19,9.5,28.9l0.4,1.6l-1.5,0.7c-1.2,0.6-2.3,1.1-3.4,1.5c-1.1,0.4-2.3,0.8-3.5,1.2c-2.3,0.7-4.7,1.3-7.2,1.6
				c-4.9,0.7-10,0.7-14.8-0.7c-4.8-1.3-9.4-3.9-13-7.3c-3.7-3.4-6.3-7.6-8.4-12l-0.8-1.6l-0.7-1.7c-0.4-1.1-0.9-2.2-1.3-3.4
				c-0.7-2.3-1.5-4.6-1.9-6.9l-0.8-3.5c-0.2-1.2-0.4-2.3-0.6-3.5c-0.2-1.2-0.4-2.3-0.5-3.5l-0.4-3.5c-0.9-9.4-0.8-18.9-0.2-28.2
				c0.3,9.4,0.8,18.8,2.3,28l0.5,3.5c0.2,1.1,0.5,2.3,0.7,3.4c0.2,1.1,0.5,2.3,0.7,3.4l0.9,3.3c0.3,1.1,0.6,2.2,1,3.3l1.1,3.3
				c0.4,1.1,0.9,2.1,1.3,3.2l0.7,1.6l0.8,1.5c2.1,4,4.7,7.7,8,10.7c3.3,3,7.2,5.1,11.5,6.1c8.5,2.1,18,0.3,25.8-3.5l-1.1,2.4
				c-2.2-9.6-5.1-19.1-9.1-28.1l-1.6-3.3c-0.5-1.1-1-2.2-1.6-3.3c-1.2-2.1-2.3-4.3-3.7-6.3c-2.6-4.2-5.6-8-9-11.5
				c-6.7-7-15.3-12.3-24.8-14.9C65.3,180.2,55,180.1,45.3,182.6z"/>
		</g>
		<g>
			<path class="st36" d="M139.1,288.1c-1.8-0.5-4-0.7-6-0.8c-2.1-0.1-4.1,0.1-6.2,0.5c-1,0.2-2,0.5-3,0.7c-0.5,0.2-1,0.4-1.5,0.5
				l-0.7,0.3l-0.7,0.3c-1.9,0.8-3.7,2.1-5.4,3.4c1.5-1.5,3.1-3,5-4l0.7-0.4l0.7-0.4c0.5-0.2,1-0.5,1.5-0.7c1-0.4,2-0.8,3.1-1.1
				c2.1-0.6,4.3-1.1,6.5-1.3c2.2-0.2,4.4-0.2,6.7,0.1L139.1,288.1z"/>
		</g>
		<g>
			<path class="st36" d="M107.1,293c0.5,1.4,1.1,2.7,1.7,3.7c0.7,1,1.4,1.8,2.3,2.4c0.9,0.6,2,0.9,3.3,1.3c0.6,0.1,1.3,0.3,2,0.4
				c0.7,0.1,1.4,0.2,2.2,0.5c-0.6,0.4-1.3,0.7-2,1c-0.7,0.2-1.5,0.4-2.3,0.5c-1.6,0.1-3.2-0.2-4.7-1.1c-1.5-0.9-2.5-2.5-2.9-4
				C106.3,296,106.4,294.4,107.1,293z"/>
		</g>
		
			<ellipse transform="matrix(0.9472 -0.3205 0.3205 0.9472 -97.9098 56.6858)" class="st39" cx="123.2" cy="325.8" rx="12.8" ry="15.3"/>
		<path class="st39" d="M62.8,130.4c0,0-4,16.1,14.1,25.5c18.1,9.4,0,0,0,0s22-0.3,18.4-23.3"/>
		<path class="st39" d="M188.9,185.1c0,0,4.8-15.5,14-15.8c9.2-0.3,15.7,7.9,15.7,7.9"/>
		<path class="st40" d="M71.4,267.7c0,0-7.4,13.2-14.6-9.5s1.7-28.5,5.9-24.8"/>
		<path class="st41" d="M146.5,165.7c0,0-4.1,11.5-2.5,20c0.7,3.9,5.1,5.7,8.1,3.3c9.8-7.7,33.6-25.4,49.4-29.7
			c5.1-1.4,10.6-0.5,15.1,2.4c3.1,2,6.7,5.1,9.4,9.6c0,0,0.4-7.6-3.9-14.5c-5-8-14.9-10.5-22.9-6.4l-42.9,22.3c-2,1-4.3,0.4-5.7-1.4
			L146.5,165.7z"/>
		<path class="st41" d="M123.1,167.7c0,0,4.1,11.5,2.5,20c-0.7,3.9-5.1,5.7-8.1,3.3c-9.8-7.7-33.6-25.4-49.4-29.7
			c-5.1-1.4-10.6-0.5-15.1,2.4c-3.1,2-6.7,5.1-9.4,9.6c0,0-0.4-7.6,3.9-14.5c5-8,14.9-10.5,22.9-6.4l42.9,22.3c2,1,4.3,0.4,5.7-1.4
			L123.1,167.7z"/>
		<path class="st42" d="M183.4,263c0,0,8.5-44.1,16.2-34.5c7.7,9.7,22.8-49.7,22.8-49.7"/>
		<path class="st43" d="M165.4,248.6c0,0,10.8-46.9,19.3-40.6c8.5,6.3,16.7-26.5,16.7-26.5"/>
		<path class="st36" d="M206.3,128.9c8.2-42.1-11.7-77.4-11.7-77.4c16.5,47.5-1.8,81-1.8,81"/>
		<g>
			<path class="st36" d="M250.1,109c2.7-6.7,4.9-13.5,6.7-20.4c0.9-3.5,1.7-6.9,2.3-10.4c0.6-3.5,1.2-7,1.5-10.5
				c0.3-3.5,0.6-7.1,0.5-10.6c0-3.5-0.2-7.1-0.5-10.6c-0.7-7.1-2.3-14-4.4-21c1.8,3.1,3.4,6.4,4.6,9.9c0.7,1.7,1.1,3.5,1.7,5.2
				c0.2,0.9,0.4,1.8,0.6,2.7c0.2,0.9,0.4,1.8,0.6,2.7c0.8,3.6,1,7.3,1.2,11c0.2,3.7,0,7.4-0.3,11c-0.7,7.3-2.3,14.5-4.7,21.5
				C257.4,96.4,254.3,103.1,250.1,109z"/>
		</g>
		<g>
			<path class="st36" d="M28,116c-4.2-5.9-7.3-12.6-9.7-19.5c-2.4-6.9-4-14.1-4.7-21.5c-0.3-3.7-0.5-7.4-0.3-11
				c0.2-3.7,0.5-7.4,1.2-11c0.2-0.9,0.3-1.8,0.6-2.7c0.2-0.9,0.4-1.8,0.6-2.7c0.6-1.8,1-3.5,1.7-5.2c1.2-3.5,2.8-6.8,4.6-9.9
				c-2.1,6.9-3.7,13.9-4.4,21C17.2,57,17,60.5,17,64.1c0,3.5,0.2,7.1,0.5,10.6c0.3,3.5,0.8,7,1.5,10.5c0.6,3.5,1.4,7,2.3,10.4
				C23.1,102.5,25.3,109.3,28,116z"/>
		</g>
		<g>
			<path class="st36" d="M212.1,86c0-2.2,0-4.4-0.1-6.6c-0.1-2.2-0.2-4.3-0.5-6.4l-0.2-1.6l-0.3-1.6c-0.2-1.1-0.4-2.1-0.7-3.1
				c-0.5-2.1-1.3-4.1-2.1-6.2c1.5,1.7,2.7,3.6,3.6,5.7c0.8,2.1,1.4,4.3,1.7,6.5c0.3,2.2,0.3,4.5,0.1,6.7
				C213.4,81.7,212.9,83.9,212.1,86z"/>
		</g>
		<g>
			<path class="st36" d="M186.4,115.5c1.4-2.7,2.2-5.5,2.8-8.3c0.6-2.8,1-5.7,1.1-8.6l0.1-2.2l0-2.2c0.1-1.5-0.1-2.9-0.1-4.4
				c-0.1-1.5-0.2-2.9-0.3-4.4c-0.1-1.5-0.3-2.9-0.4-4.4c0.5,1.4,0.9,2.8,1.4,4.3c0.3,1.5,0.7,2.9,0.9,4.4c0.4,3,0.6,6,0.5,9
				c-0.2,3-0.7,6-1.6,8.9C189.8,110.5,188.5,113.3,186.4,115.5z"/>
		</g>
		<path class="st36" d="M85.8,130.8c0,0-21-31.9-8.6-80.6c0,0-16.8,36.8-5.1,78.1"/>
		<g>
			<path class="st36" d="M62.7,86.1c-1-2-1.6-4.2-2-6.4c-0.4-2.2-0.5-4.5-0.5-6.7c0.1-2.3,0.5-4.5,1.2-6.7c0.6-2.2,1.7-4.2,3.1-6
				c-0.6,2.2-1.2,4.2-1.6,6.3c-0.2,1.1-0.3,2.1-0.4,3.2l-0.2,1.6l-0.1,1.6c-0.1,2.1-0.1,4.3,0,6.5C62.3,81.7,62.5,83.9,62.7,86.1z"
				/>
		</g>
		<g>
			<path class="st36" d="M90.8,113.3c-2.2-2-3.8-4.7-5-7.5c-1.2-2.8-1.9-5.8-2.4-8.7c-0.4-3-0.5-6-0.3-9c0.1-1.5,0.3-3,0.5-4.5
				c0.3-1.5,0.6-2.9,1-4.4c0,1.5,0,3,0,4.5c0,1.5,0,2.9,0.1,4.4c0.1,1.5,0.1,2.9,0.2,4.4l0.2,2.2l0.3,2.2c0.4,2.9,1,5.7,1.8,8.5
				C88.1,108,89.2,110.8,90.8,113.3z"/>
		</g>
		<path class="st38" d="M196.2,284.2c0,0-16.6-1.7-22.1,13.3s2.1,21,2.1,21"/>
		<path class="st44" d="M23.7,130H31l1.1,5.5c23.6,4.9,108.5,5.8,108.5,5.8l0-2.7l-0.2-15.9c-8.3-3.3-118.8,4-118.8,4"/>
		<path class="st45" d="M90.7,122.9c0,0-19.4-29.7-13.5-72.7c0,0-12.2,39.5-3.5,61.3l3.2,12.1"/>
		<path class="st44" d="M32.6,126.1c0,0-29.3-50.2-5-110.6L13.3,26.1L4.1,45.5L3.7,75.1l5,32.2l8.9,20l10.4,3.5"/>
		<path class="st46" d="M65.4,145.4c0,0,16.8,3.1,30.3-4.9c0,0,4.9,13.3-12.2,21.6"/>
		<path class="st47" d="M136.2,259c0,0-0.4,12-5.3,11S136.2,259,136.2,259z"/>
		<ellipse class="st48" cx="181.9" cy="308.4" rx="2.3" ry="3.9"/>
		
			<ellipse transform="matrix(0.9833 -0.1818 0.1818 0.9833 -52.5819 39.0584)" class="st48" cx="186.8" cy="306.4" rx="1.3" ry="2.2"/>
		<ellipse class="st48" cx="126.7" cy="329.9" rx="2.3" ry="3.9"/>
		
			<ellipse transform="matrix(0.9833 -0.1818 0.1818 0.9833 -57.4071 29.3795)" class="st48" cx="131.6" cy="327.8" rx="1.3" ry="2.2"/>
		<ellipse class="st49" cx="189.7" cy="290.7" rx="3.7" ry="2.1"/>
		<ellipse class="st49" cx="120.5" cy="316.2" rx="3.7" ry="2.1"/>
		<ellipse class="st14" cx="112.8" cy="81.5" rx="5.8" ry="9.7"/>
		<ellipse class="st14" cx="121.5" cy="93.4" rx="2.9" ry="4.8"/>
		<ellipse class="st14" cx="37.4" cy="41" rx="4.8" ry="10.9"/>
		<ellipse class="st14" cx="48.2" cy="44.2" rx="3.6" ry="6.1"/>
		<ellipse class="st23" cx="129.9" cy="227.2" rx="3.1" ry="5.1"/>
		<ellipse class="st23" cx="127.8" cy="216.9" rx="1.9" ry="3.2"/>
		<ellipse class="st23" cx="49" cy="111.8" rx="6.7" ry="11.3"/>
		<ellipse class="st23" cx="37.4" cy="119.3" rx="3.1" ry="5.1"/>
	</g>
</g>
</svg>
