<?xml version="1.0" encoding="utf-8"?>
<!-- Generator: Adobe Illustrator 24.1.1, SVG Export Plug-In . SVG Version: 6.00 Build 0)  -->
<svg version="1.1" id="Capa_1" xmlns="http://www.w3.org/2000/svg" xmlns:xlink="http://www.w3.org/1999/xlink" x="0px" y="0px"
	 viewBox="0 0 340 700" style="enable-background:new 0 0 340 700;" xml:space="preserve">
<style type="text/css">
	.Sombra_x0020_paralela{fill:none;}
	.Resplandor_x0020_externo_x0020_5_x0020_pt_x002E_{fill:none;}
	.Neón_x0020_azul{fill:none;stroke:#8AACDA;stroke-width:7;stroke-linecap:round;stroke-linejoin:round;}
	.Resalte_x0020_cromado{fill:url(#SVGID_1_);stroke:#FFFFFF;stroke-width:0.3629;stroke-miterlimit:1;}
	.A_x0020_todo_x0020_ritmo_GS{fill:#FFDD00;}
	.Alyssa_GS{fill:#A6D0E4;}
	.st0{fill:#6B982B;}
	.st1{fill:#366B2B;}
	.st2{fill:#002E16;}
	.st3{opacity:0.49;fill:#002E16;enable-background:new    ;}
	.st4{opacity:0.56;fill:#002E16;enable-background:new    ;}
	.st5{opacity:0.5;fill:#001F16;enable-background:new    ;}
	.st6{opacity:0.53;fill:#001F16;enable-background:new    ;}
	.st7{opacity:0.68;fill:#001F16;enable-background:new    ;}
	.st8{opacity:0.71;fill:#001F16;enable-background:new    ;}
	.st9{fill:#FFB400;}
	.st10{fill:#751E1E;}
	.st11{fill:#407710;}
	.st12{fill:#B11A00;}
	.st13{fill:#FFFFFF;}
	.st14{opacity:0.24;fill:#FFFFFF;enable-background:new    ;}
	.st15{opacity:0.74;fill:#430000;enable-background:new    ;}
	.st16{fill:#430000;}
	.st17{fill:#606060;}
	.st18{opacity:0.33;enable-background:new    ;}
	.st19{opacity:0.44;fill:#6A0000;enable-background:new    ;}
	.st20{opacity:0.35;fill:#FFFFFF;enable-background:new    ;}
	.st21{opacity:0.61;fill:#FFFFFF;enable-background:new    ;}
	.st22{opacity:0.19;fill:#FFFFFF;enable-background:new    ;}
	.st23{opacity:0.24;enable-background:new    ;}
	.st24{opacity:0.26;enable-background:new    ;}
	.st25{opacity:0.28;enable-background:new    ;}
	.st26{opacity:0.39;fill:#6A0000;enable-background:new    ;}
	.st27{opacity:0.42;fill:#6A0000;enable-background:new    ;}
	.st28{opacity:0.47;fill:#6A0000;enable-background:new    ;}
	.st29{opacity:0.43;fill:#6A0000;enable-background:new    ;}
	.st30{opacity:0.42;enable-background:new    ;}
	.st31{opacity:0.25;enable-background:new    ;}
	.st32{opacity:0.35;fill:#6A0000;enable-background:new    ;}
	.st33{opacity:0.44;}
	.st34{fill:#6A0000;}
	.st35{fill:#520000;}
	.st36{fill:#020202;}
	.st37{fill:none;stroke:#020202;stroke-width:2.8828;stroke-miterlimit:10;}
	.st38{fill:none;stroke:#020202;stroke-width:5.7657;stroke-miterlimit:10;}
	.st39{fill:none;stroke:#020202;stroke-width:4.3241;stroke-miterlimit:9.9995;}
	.st40{fill:none;stroke:#020202;stroke-width:4.3243;stroke-miterlimit:10;}
	.st41{fill:none;stroke:#020202;stroke-width:3.9687;stroke-miterlimit:10;}
	.st42{fill:#020202;stroke:#020202;stroke-width:4.4727;stroke-miterlimit:10;}
	.st43{fill:none;stroke:#020202;stroke-width:4.4727;stroke-miterlimit:10;}
	.st44{fill:none;stroke:#020202;stroke-width:4.8616;stroke-miterlimit:10;}
	.st45{opacity:0.54;fill:#001F16;enable-background:new    ;}
	.st46{opacity:0.61;fill:#001F16;enable-background:new    ;}
	.st47{opacity:0.49;fill:#001F16;enable-background:new    ;}
	.st48{opacity:0.6;fill:#001F16;enable-background:new    ;}
	.st49{opacity:0.53;enable-background:new    ;}
	.st50{opacity:0.38;fill:#FFFFFF;enable-background:new    ;}
</style>
<linearGradient id="SVGID_1_" gradientUnits="userSpaceOnUse" x1="0" y1="0" x2="6.123234e-17" y2="-1">
	<stop  offset="0" style="stop-color:#656565"/>
	<stop  offset="0.618" style="stop-color:#1B1B1B"/>
	<stop  offset="0.6292" style="stop-color:#545454"/>
	<stop  offset="0.9831" style="stop-color:#3E3E3E"/>
</linearGradient>
<g id="Capa_1_1_">
	<g>
		<path class="st0" d="M0.7,565V165.4h-158.4l4.3,37.9c0,0,5.5,36.6,1.2,44.4c-4.3,7.8,29.4,45.5,30.8,50.7
			c1.6,5.2,11.4,34.4,10.8,48c-0.4,13.5,13.1,39.4,34.3,66.3c0,0,9.7,25.8,9.8,40.1c0,14.3,31,43.8,31,43.8l21,52.3L0.7,565z"/>
		<path class="st1" d="M2.5,10.5c0,0-47.1,1.3-72.4,12.8s-1.3-1.6-1.3-1.6s-73.2-17.3-90.4-6.2s-30.6,13.1-34.4,67.3
			c-3.9,54.1,13.3,90.1,26.7,98.2l19.3-2c0,0,51.5,8.5,63.7,0.9l25.1,5.9l41.8,5.8L5.1,194"/>
		<polyline class="st1" points="-113.9,185 -86.5,176.8 -64,185.2 -64,203.3 -78.3,215.6 -91.1,218.6 -107.7,203.6 		"/>
		<path class="st1" d="M-99.1,379.9c0,0-11.8-35.9-14.7-51c0,0-14.6,2.6-9.9,21.3C-119.1,369.1-111.6,396.6-99.1,379.9z"/>
		<polyline class="st1" points="-28.3,484.1 -17.3,484.4 -8.8,477.7 -5.7,463.7 -10.6,450.7 -28.3,440.7 -37.1,446.2 -43,458.8 
			-40.4,472.7 		"/>
		<path class="st2" d="M-20.4,354.6c0,0-24.6,13.3-50.9-0.7s-31.6-91.4-29.7-100c0,0,41.4,5.5,63.7,53.5S-20.4,354.6-20.4,354.6z"/>
		<path class="st1" d="M-95.8,17.5c0,0-5.5,28.3-3.3,28.3c2.2,0,47.1,3.2,47.1,3.2l-8.5-31.4l-10.7,4.3"/>
		<path class="st3" d="M0.7,541.1c0,0-28.5-38.2-31.4-47.6c-0.3-1-0.9-1.9-1.7-2.6c-5.6-5.2-25.8-24.6-28.5-43.5
			c-2.7-18.5-9.9-51.7-22.2-61.4c-5.8-4.6-10.4-10.7-12.4-17.9c-5.8-20.5-15.1-55.5-14.1-64.1c1.4-12.5-26.1-50.2-31.3-50.2
			c-4.2-0.1-3.3-50.7-2.9-68c0.1-3.2-2.5-5.8-5.6-5.9l0,0c-3.5-0.1-6.2,2.9-5.9,6.3l4,35.5c0,0.3,0,0.4,0,0.7l-0.3,29.7
			c0,1.2,0.3,2.3,1,3.2l29.5,44.4c0.4,0.6,0.7,1.3,0.9,2l8.2,37.8l9.7,35.5c0.1,0.7,0.4,1.3,0.9,1.9l21.3,30.3
			c0.1,0.3,0.3,0.4,0.4,0.7l7.4,14.3c0.3,0.6,0.4,1,0.6,1.6l5.3,28.8c0,0.3,0.1,0.6,0.1,0.9l5.5,16.1c0.3,0.7,0.6,1.3,1.2,1.9
			l13.1,15.3l10.7,11.2c0.6,0.6,1,1.2,1.2,1.9l11,28.7c0,0.1,0.1,0.3,0.3,0.6l11.8,23.8c0.3,0.6,0.7,1.2,1.2,1.6L0.5,565"/>
		<path class="st4" d="M0.4,413.2c0,0-23.8,6.6-33.3,15.4c-9.4,8.6-14.7-12.3-14.7-12.3s-7.6,25.7,14.8,19c0,0,31-13.8,33.4-5.8"/>
		<path class="st5" d="M-66.4,370c37,8.9,49.7-15.9,49.7-15.9c-78.6-5.6-84.2-100.3-84.2-100.3c-19.3-0.3-19.3,1.9-19.3,1.9
			c3.5,23.9,21.2,76.5,33.2,98l0,0C-82.8,361.8-75.3,367.8-66.4,370z"/>
		<path class="st6" d="M-24.6,235.8c0,0,9.5,15,11.2,29.5c1.2,10.5-11.1,17.4-19.6,11.1c-25.1-18.3-80.6-54.1-104.9-28.8l10.2-23.8
			l46,3.7l50.6,31.7l6.6-9.9"/>
		<path class="st7" d="M-39.4,451c0,0,2,32.4,30.6,26.7c0,0-2.7,13.4-9.4,16S-53.8,484-39.4,451z"/>
		<path class="st8" d="M-104,384.4c0,0-17.2-27.8-16-53.3l6.2-3c0,0,10.7,45.8,14.8,51.7"/>
		<path class="st9" d="M0.7,562.7V192.8c0,0,75.2,0.1,89.8-12.5c0,0,49,1.7,58.5-9.2c0,0,6.3,35.6-8.9,52.8s-2.2,37-2.2,37
			L105,314.3l-19,55.4l-0.1,22.5L81,404.4l-33.2,49.9l-3.3,18.3l1.6,7.2l-5.5,19.7L21.9,536l-23.1,27.7"/>
		<path class="st10" d="M0.7,10.5V194c0,0,88.8,3.5,89.8-22.9c0,0-8.1,9.7,7.6,9.2c15.7-0.4,60.4-10.4,60.4-10.4l16.4-11.7
			c0,0,33.9-34.4,9.5-122.1c0,0-10.5-50-99.7-21.9l-26.5,7.5C58.3,21.9,17.1,7.5,0.7,10.5z"/>
		<polyline class="st11" points="12.2,498.6 22.1,498.6 31.7,463.2 22.1,463.2 		"/>
		<polyline class="st11" points="19.6,370.3 25.9,364.5 16.5,344.3 10,348.6 		"/>
		<path class="st12" d="M49.7,450.6c0,0,23.1,12.7,34.2-21.6c11.1-34.4-20.5-22.3-20.5-22.3S51,416.1,49.1,423
			C46.9,429.7,44.3,442,49.7,450.6z"/>
		<path class="st12" d="M70.3,260.9l42.8-11.4c0,0-10.5-13.8-26.1-11.4"/>
		<path class="st12" d="M86.1,241c0,0-17.9,7.1-19.9,30"/>
		<path class="st13" d="M31.7,346.3c0,0,15.3,29.7,35,28.7s39.6-56.6,39.6-56.6l17.6-70.6l-74.2,20.3L31.7,346.3z"/>
		<path class="st13" d="M0.7,396.1c0,0,25.8-3.2,37.8-9.9c0,0-5.3,37.2-37.8,43.5"/>
		<ellipse class="st14" cx="125.5" cy="28.4" rx="11" ry="9.1"/>
		<path class="st15" d="M107.5,178c0,0,0.3-94.4-28.1-109.7c0,0,30.6,83.5,5,113"/>
		<path class="st16" d="M148.7,168.9c0,0,60.8-89.1,2.9-163.3c0,0,25.9,8.8,33,30.4s16.4,62.4,5.5,89.4c-11,27-21.5,35.2-25.1,41.2"
			/>
		<path class="st16" d="M0.4,171.1c0,0,116.8,14.4,144.6,0c0,0-38.5,15.3-60.4,10.4c-21.9-4.9,0,0,0,0l-24.1,7.4l-59.7,3.7"/>
		<path class="st17" d="M37,389.6"/>
		<path class="st18" d="M0.7,407.9c0,0,23.5,2.7,34.9-11c0,0-4.6,30.8-34.9,32.9"/>
		<path class="st19" d="M5,241.5c0,0-10.8,31.1,5,38.9c15.9,7.8,59.2-55.6,80.4-49.9s35,16.9,35,16.9s-16.6-39.6-39.4-28.7
			c-22.8,11.1-67.3,40.8-67.3,40.8"/>
		<ellipse class="st20" cx="-81.2" cy="276.4" rx="9.9" ry="8.4"/>
		<circle class="st21" cx="-81.6" cy="275.4" r="5"/>
		<ellipse class="st20" cx="-64.3" cy="286.7" rx="3.2" ry="2.7"/>
		<circle class="st21" cx="-64.5" cy="286.2" r="1.6"/>
		<path class="st22" d="M-188,40.9c0,0,15.9-27,36.3-27.7C-131.2,12.5-70,23.5-70,23.5s58.2-28,128.3-1.6c0,0,66.6-20.8,82-17.2
			s31.3,6.2,38.6,22.2c0,0-37.8-3.9-65.9,4c0,0-51.9,15.7-90.5,4.9c-6.3-1.7-13-2.5-19.6-2.5h-7.5c-8.2,0-16.3,1.3-24.1,3.9
			c-17.7,5.8-54.8,15-85.5,2.3c-4.5-1.9-9.1-3-13.8-3.7C-143,33.8-173,31.2-188,40.9z"/>
		<path class="st23" d="M-185.8,161.3c0,0,8.6,26.5,29.8,18.3s7.9,14.7,69.6,0.3c0,0,113.2,31,176.9,0.4c0,0,51.3,0.6,60-9.2
			c0,0,17.6-4.5,24.5-9.8l-47.4,7.1c-12.4,1.9-24.9,2.2-37.5,1.2l-77.8-6.9c-8.9-0.7-17.9-0.9-26.7-0.1l-90.8,7.2
			c-12.5,1-25.1,0.6-37.5-1.4L-185.8,161.3z"/>
		<path class="st18" d="M-154.4,196.6c0,0,243.3,27.2,304.7-3.7l0.1-21.9c0,0-97,18.2-151.5,18.2c-54.5,0.1-94.7-8.6-155-9.7"/>
		<path class="st19" d="M0.7,307c0,0,26.7,83.3,85.2,79.1l0.1-16.4c0,0-18.5,16.3-43.2-4.5L0.7,283.9"/>
		<path class="st24" d="M52,417.5c0,0-5.5,40.4,29,12.1c0,0-2.2,23.5-29,23.5C52,453.1,41.2,443.3,52,417.5z"/>
		<polyline class="st25" points="74.2,251.9 104.7,245.7 113.1,249.5 70.3,260.9 		"/>
		<path class="st19" d="M0.7,541.1c0,0,41.1-41.9,42.5-83.3l2.9,22.1c0,0-12.3,57.5-45.4,82.9"/>
		<path class="st26" d="M67,403.6c0,0,10.8-9.2,10.8-28.5l8.2-5.3c0,0-0.3,25.9-5,34"/>
		<path class="st27" d="M131.8,245.7c0,0,25.1-54.1,18.7-74.7c0,0-16.3,9.1-19.3,6.5s5.2,27.7-9.9,71.8"/>
		<path class="st27" d="M0.7,429.7c0,0,28.7-0.4,37.8-43.5c0,0,4.8,50.7-37.8,67"/>
		<polygon class="st28" points="27.3,364.5 28.8,370.3 18,378.9 14.1,371 5,350.9 10,347.2 19.3,369.7 		"/>
		<polygon class="st29" points="10.8,498.6 8.7,506.2 23.4,504.5 37,461.7 32.1,461.7 23.4,498.6 		"/>
		<ellipse class="st18" cx="131.8" cy="151.3" rx="9.5" ry="14.8"/>
		<circle class="st18" cx="145" cy="131.1" r="5.6"/>
		<ellipse class="st22" cx="30.8" cy="68.4" rx="15.3" ry="19.5"/>
		<ellipse class="st22" cx="54.7" cy="84.1" rx="5.6" ry="9.4"/>
		<ellipse class="st30" cx="30.7" cy="176.8" rx="12.7" ry="15.6"/>
		<ellipse class="st31" cx="15.9" cy="148.7" rx="5.9" ry="11.8"/>
		<path class="st32" d="M0.7,192.8v4.9c0,0,72.2,8.4,149.9-15.1v-11.5"/>
		<g class="st33">
			<path class="st34" d="M38.4,435.4c0.6,1.9,0.9,3.7,1.2,5.6c0.1,1.9,0.1,3.7,0,5.6c-0.3,1.9-0.6,3.7-1.6,5.8
				c-0.3,0.4-0.6,1-1.3,1.4c-0.1,0.1-0.4,0.1-0.6,0.3c-0.1,0-0.4,0-0.6,0c-0.4,0-0.7-0.1-1-0.4c-1-0.7-1.3-1.7-1.6-2.6
				c0.7,0.6,1.6,1.3,2.2,1.4c0.3,0,0.4,0,0.4-0.1c0.1-0.1,0.3-0.4,0.3-0.9c0.4-1.4,0.6-3.3,0.7-5c0.1-1.7,0.4-3.6,0.7-5.3
				C37.6,439,37.9,437.1,38.4,435.4z"/>
		</g>
		<g class="st33">
			<path class="st34" d="M33,447.4c0.6,1.9,0.7,3.7,0.6,5.6c-0.1,1-0.3,1.9-0.9,2.9c-0.1,0.3-0.3,0.4-0.6,0.7s-0.9,0.1-1.2,0
				c-0.4-0.4-0.6-0.9-0.7-1.3c0.4,0.3,0.7,0.6,1.2,0.7c0.1,0,0.1,0,0.1-0.1c0-0.1,0.1-0.3,0.1-0.4c0.1-0.7,0.3-1.6,0.4-2.6
				C32.4,451.1,32.5,449.3,33,447.4z"/>
		</g>
		<g class="st33">
			<path class="st34" d="M34.8,206.8c0.7,2.6,1,5.3,1.2,7.9c0.1,2.6,0.1,5.3-0.1,8.1c-0.3,2.7-0.7,5.3-2.2,8.1
				c-0.3,0.6-0.9,1.3-1.6,1.9c-0.3,0.1-0.4,0.3-0.7,0.3s-0.6,0-0.7,0.1c-0.4,0-1-0.1-1.3-0.4c-1.3-1-1.9-2.3-2.3-3.5
				c1,0.9,2,1.9,3,2.2c0.6,0.1,0.7,0.1,1-0.1c0.3-0.3,0.6-0.7,0.7-1.3c0.7-2.2,1-4.8,1.3-7.4C33.5,217.3,33.8,212,34.8,206.8z"/>
		</g>
		<g class="st33">
			<path class="st34" d="M27,224c0.6,1.3,0.9,2.6,1.2,4c0.1,1.3,0.1,2.7,0,4c-0.1,1.4-0.4,2.7-1.3,4.2c-0.1,0.3-0.6,0.7-1,1
				c-0.3,0.1-0.6,0.3-1,0.3c-0.3,0-0.6-0.1-0.9-0.3c-0.7-0.7-0.9-1.3-1-2c0.6,0.3,1.2,0.7,1.7,0.9c0.3,0,0.1-0.1,0-0.1
				c0-0.1,0-0.3,0.1-0.6c0.1-1,0.3-2.3,0.4-3.5c0.1-1.3,0.3-2.6,0.6-3.7C26.2,226.6,26.5,225.3,27,224z"/>
		</g>
		<g>
			<path class="st35" d="M159.4,38.9c2.9,5.6,4.6,11.7,5.8,17.9s1.7,12.5,1.6,18.7c-0.1,6.3-0.6,12.5-1.9,18.7
				c-0.6,3-1.4,6.1-2.3,9.1c-0.9,3-2,5.9-3.3,8.8c0-3.2,0.3-6.2,0.4-9.4c0.1-3,0.4-6.2,0.6-9.2c0.4-6.1,0.4-12.1,0.6-18.2
				c0-6.1-0.1-12.1-0.3-18.2C160.4,51.3,159.9,45.1,159.4,38.9z"/>
		</g>
		<path class="st36" d="M101.4,321l-15.7,2.5L81,321l-5.6,7.9l-5.9,15.4l-5,16.4l-2.2,9.5v5.3c0,0,52.8,7.1,68.6-106.1l24.6-8.5
			l-4.2-19.5l-32.7,10.4c0,0-13.8,60.7-28.1,77"/>
		<path class="st36" d="M36.4,352.4c0,0,16.6-57.5,22.2-58.1c5.6-0.6,8.1,0.6,8.1,0.6s12.4,1.6,21.6-39.4L0.7,278
			C0.7,278,17.1,327.5,36.4,352.4z"/>
		<path class="st37" d="M62.4,370.3c0,0-20-15.9-25.4-25.9"/>
		<g>
			<path class="st36" d="M54.6,356c-2.7-1.4-5.3-3.2-7.8-5c-2.5-1.9-4.8-3.9-6.9-5.9c-2.2-2.2-4.3-4.3-6.2-6.9
				c-1.9-2.5-3.6-5-4.5-8.1c1.9,2.5,4,4.5,6.2,6.6c2.2,2.2,4.3,4.2,6.5,6.3C46.1,347.2,50.5,351.4,54.6,356z"/>
		</g>
		<line class="st37" x1="80.8" y1="265.2" x2="123.8" y2="253.8"/>
		<g>
			<path class="st36" d="M100,265.2c2.9-1.2,5.6-2,8.5-2.9c2.9-0.9,5.8-1.6,8.6-2.3c2.9-0.7,5.9-1.3,8.8-1.9c3-0.6,5.9-1,8.9-1.3
				c-2.9,1.2-5.6,2-8.5,3c-2.9,0.9-5.8,1.6-8.6,2.3s-5.9,1.3-8.8,1.9C105.9,264.5,103,264.9,100,265.2z"/>
		</g>
		<g>
			<path class="st36" d="M-37.1,463.2c0.7,2.2,1.6,4,2.5,5.9c1,1.7,2.2,3.3,3.6,4.6c1.4,1.2,3.2,2.2,5.2,2.6l0.7,0.3l0.7,0.1
				l1.6,0.3c1,0.1,2.2,0.1,3.3,0.3c-1,0.4-2.2,0.9-3.2,1l-1.7,0.1c-0.3,0-0.6,0-0.9,0h-0.9c-2.3,0-4.8-1-6.6-2.6
				c-1.9-1.6-3.2-3.7-3.9-5.9C-37.2,467.8-37.5,465.4-37.1,463.2z"/>
		</g>
		<g>
			<path class="st36" d="M52,439.7c1.3,2.2,2.9,4.2,4.8,4.9s4,0.1,6.1-0.7c2-1,4-2.5,5.9-3.9c1.9-1.4,3.9-3,5.9-4.6
				c-1.2,2.3-2.6,4.3-4.5,6.2c-1.7,1.9-3.7,3.6-6.2,4.8c-1.3,0.6-2.6,1-4,1.2c-1.4,0.1-3-0.1-4.3-1c-1.3-0.7-2.2-1.9-2.7-3
				C52.4,442.2,52,441,52,439.7z"/>
		</g>
		<g>
			<path class="st36" d="M-102,201.9c2.6,2.2,5.3,4,8.2,5.5c2.9,1.3,5.9,2.2,8.8,1.4c2.9-0.4,5.5-2.3,7.6-4.6c2.3-2.3,4.2-5,6.2-7.8
				c-0.9,3.3-2.3,6.5-4.3,9.2c-1,1.4-2.3,2.7-3.7,3.7c-1.4,1-3.3,1.9-5,2.2c-1.9,0.3-3.7,0.3-5.6-0.1c-1.7-0.4-3.5-1.3-4.9-2.2
				C-97.9,207.5-100.2,204.9-102,201.9z"/>
		</g>
		<path class="st38" d="M0.7,565c0,0,44.5-50.9,45.4-91.7c0,0-4.6-24.2,9.5-20c14.8,4.3,39.5-24.8,25.4-49.4c0,0,8.5-7.6,5-34
			c0,0,44.1-44.1,45-100.2l24.6-8.5l-4.2-19.5l-19.5,4.2c0,0,5-19.5,12.7-28.8c7.6-9.4,5.9-45.8,5.9-45.8s39.9,4.2,43.2-80.7
			c3.3-85-53.5-85.8-53.5-85.8s-20-1.7-82,17c0,0-55.1-26.4-128.1,1.6c0,0-52.3-13.3-75.1-11.1c-20.9,2-57.7,9.4-50,98.4
			s37.3,69,37.3,69s10.2,44.7,5.9,64.1c-4.2,19.5,28,41.7,34,65c5.9,23.4,7.6,60.7,26.4,81.9c18.7,21.2,22.9,38.2,22.9,50
			s10.2,35.6,26.4,48.4C-26.1,502.2-26,548,0.7,565z"/>
		<path class="st38" d="M-157.6,177.5c0,0,49.3,10.2,71.4,2.3c0,0,96.7,29.3,181.6,0c0,0,29.5,3.6,53.8-8.8"/>
		<path class="st38" d="M86,369.7c0,0-27.1,24.6-56.1-26.4c-17.9-31.4-24.8-49-27.5-57.8c-1.3-4,1.2-8.4,5.3-9.4l124.1-30.6"/>
		<g>
			<path class="st36" d="M1.1,425.5c0.3,0,1,0.1,1.4,0.1c0.6,0,1.2,0,1.7,0s1.2-0.1,1.7-0.1s1.2-0.1,1.7-0.3l1.7-0.4l1.7-0.6
				c1.2-0.3,2.2-0.9,3.3-1.3c4.3-2.2,8.1-5.3,11.2-9.2l1.2-1.4c0.4-0.4,0.7-1,1.2-1.6l2-3.2c0.7-1,1.2-2.2,1.7-3.3s1.2-2.3,1.7-3.5
				c0.9-2.5,1.9-4.8,2.7-7.2l2.2-7.4l-1.4,7.6c-0.6,2.5-1.4,5-2.2,7.5c-0.4,1.2-1,2.5-1.4,3.6c-0.6,1.2-0.9,2.5-1.6,3.6l-1.9,3.5
				c-0.3,0.6-0.6,1.2-1,1.7l-1.2,1.6c-3,4.3-6.8,8.4-11.5,11.2c-1.2,0.7-2.3,1.4-3.6,1.9l-1.7,1l-2,0.6c-0.7,0.3-1.3,0.4-2,0.6
				c-0.7,0.1-1.4,0.3-2,0.4c-0.7,0.1-1.4,0.1-2.2,0.3c-0.7,0-1.4,0.1-2.3,0L1.1,425.5z"/>
		</g>
		<g>
			<path class="st36" d="M0.5,393.2c3.6,0,7.4-0.3,11.1-0.7s7.4-0.9,11.1-1.6c3.6-0.7,7.4-1.6,10.8-2.7s6.9-2.7,10.1-4.8
				c-2.9,2.5-6.2,4.5-9.5,6.2c-3.5,1.7-7.1,3-10.7,4.2c-3.6,1.2-7.4,2.2-11.1,3c-3.7,0.9-7.5,1.6-11.4,2.2L0.5,393.2z"/>
		</g>
		<g>
			<path class="st36" d="M35.6,375.6c2.2-1.4,4.8-2.2,7.5-2.2c2.7,0,5.8,0.9,7.9,3.2c1,1.2,1.9,2.6,2.2,3.9c0.4,1.4,0.6,2.9,0.4,4.2
				c-0.1,2.7-1,5.2-2.5,7.4c-0.3-2.6-0.4-5-0.9-7.2c-0.4-2.2-1.2-4-2.5-5.3c-1.2-1.3-3-2.2-5.2-2.7C40.5,376.3,38.1,376,35.6,375.6z
				"/>
		</g>
		<polygon class="st37" points="22.1,498.6 31.7,463.2 22.1,463.2 12.2,498.6 		"/>
		<polygon class="st37" points="16.5,344.3 25.9,364.5 19.6,370.3 10,348.6 		"/>
		<g>
			<path class="st36" d="M119.7,177.8c0.3,0.1,0.3,0.3,0.4,0.3c0.1,0.1,0.1,0.1,0.3,0.3c0.1,0.1,0.3,0.3,0.4,0.4
				c0.3,0.3,0.4,0.7,0.6,1c0.4,0.6,0.7,1.3,0.9,1.9c0.6,1.3,0.9,2.6,1.2,3.9c0.6,2.6,0.7,5,0.9,7.6c0.1,2.5,0.1,5,0,7.5
				c-0.1,2.5-0.3,4.9-0.6,7.4c-0.1-2.5-0.3-4.9-0.6-7.4c-0.3-2.5-0.6-4.9-1-7.2c-0.4-2.3-1-4.8-1.9-6.9c-0.4-1.2-0.9-2.2-1.4-3.2
				c-0.3-0.4-0.6-0.9-0.9-1.3c-0.1-0.1-0.3-0.4-0.4-0.6c-0.1-0.1-0.1-0.1-0.1-0.1l0,0c0,0,0,0,0.1,0L119.7,177.8z"/>
		</g>
		<g>
			<path class="st36" d="M110.8,178.6c0.3,0.3,0.3,0.3,0.3,0.3c0.1,0.1,0.1,0.1,0.1,0.1c0.1,0.1,0.1,0.3,0.3,0.3
				c0.1,0.3,0.1,0.4,0.3,0.6c0.1,0.3,0.3,0.7,0.4,1c0.1,0.7,0.3,1.3,0.4,1.9c0.3,1.3,0.3,2.5,0.4,3.7c0.1,2.5,0.1,4.9,0.1,7.2
				c-0.6-2.3-1.3-4.6-2.2-6.8c-0.4-1.2-0.9-2.2-1.4-3.2c-0.3-0.4-0.6-1-0.9-1.4c-0.1-0.1-0.3-0.4-0.4-0.6l-0.1-0.1l0,0l0,0
				c0,0,0,0,0.1,0.1L110.8,178.6z"/>
		</g>
		<g>
			<path class="st36" d="M-134,184c-0.1,0-0.4,0.1-0.7,0.1c-0.3,0.1-0.6,0.3-0.7,0.4c-0.4,0.3-1,0.6-1.4,1c-0.9,0.7-1.7,1.9-2.3,3
				s-1,2.5-1.2,3.9c-0.1,0.7-0.1,1.4-0.1,2v2.2l-0.6-2c-0.1-0.7-0.3-1.4-0.3-2.2c-0.1-1.4-0.1-3,0.3-4.5c0.3-1.4,1-3,1.9-4.3
				c0.4-0.7,1-1.3,1.6-1.9c0.7-0.6,1.2-1.2,2.2-1.6L-134,184z"/>
		</g>
		<g>
			<path class="st36" d="M-123,183.3c-1.7,1.4-3.3,3.2-4.8,5c-1.4,1.9-2.7,3.9-3.7,5.9c-1.2,2.2-1.9,4.3-2.5,6.6
				c-0.6,2.3-0.7,4.8-0.7,7.2c-0.3-2.5-0.4-4.9,0-7.2c0.3-2.5,0.9-4.8,1.9-7.1c0.9-2.3,2-4.5,3.3-6.6c1.3-2.2,2.7-4,4.6-5.9
				L-123,183.3z"/>
		</g>
		<g>
			<path class="st36" d="M-136.7,257.3c13.5-5,28.7-5.8,43.1-2.9c7.2,1.6,14.1,4.2,20.8,7.8c6.5,3.6,12.4,8.1,17.7,13.3l2,1.9
				c0.6,0.7,1.3,1.3,1.9,2c1.2,1.4,2.6,2.7,3.7,4.2l3.5,4.3c1.2,1.4,2.2,3,3.2,4.6c2.2,3,3.9,6.2,5.8,9.4c1,1.6,1.7,3.3,2.6,4.9
				l2.5,4.9C-24,325-19.7,339-16.3,353.3l0.6,2.3l-2.2,1c-1.7,0.9-3.3,1.6-4.9,2.2c-1.6,0.6-3.3,1.2-5,1.7c-3.3,1-6.8,1.9-10.4,2.3
				c-7.1,1-14.4,1-21.3-1c-6.9-1.9-13.5-5.6-18.7-10.5c-5.3-4.9-9.1-11-12.1-17.3l-1.2-2.3l-1-2.5c-0.6-1.6-1.3-3.2-1.9-4.9
				c-1-3.3-2.2-6.6-2.7-9.9l-1.2-5c-0.3-1.7-0.6-3.3-0.9-5c-0.3-1.7-0.6-3.3-0.7-5l-0.6-5c-1.3-13.5-1.2-27.2-0.3-40.6
				c0.4,13.5,1.2,27.1,3.3,40.4l0.7,5c0.3,1.6,0.7,3.3,1,4.9c0.3,1.6,0.7,3.3,1,4.9l1.3,4.8c0.4,1.6,0.9,3.2,1.4,4.8l1.6,4.8
				c0.6,1.6,1.3,3,1.9,4.6l1,2.3l1.2,2.2c3,5.8,6.8,11.1,11.5,15.4c4.8,4.3,10.4,7.4,16.6,8.8c12.3,3,25.9,0.4,37.2-5l-1.6,3.5
				c-3.2-13.8-7.4-27.5-13.1-40.5l-2.3-4.8c-0.7-1.6-1.4-3.2-2.3-4.8c-1.7-3-3.3-6.2-5.3-9.1c-3.7-6.1-8.1-11.5-13-16.6
				c-9.7-10.1-22.1-17.7-35.7-21.5C-107.9,253.8-122.7,253.7-136.7,257.3z"/>
		</g>
		<g>
			<path class="st36" d="M-1.5,409.3c-2.6-0.7-5.8-1-8.6-1.2c-3-0.1-5.9,0.1-8.9,0.7c-1.4,0.3-2.9,0.7-4.3,1
				c-0.7,0.3-1.4,0.6-2.2,0.7l-1,0.4l-1,0.4c-2.7,1.2-5.3,3-7.8,4.9c2.2-2.2,4.5-4.3,7.2-5.8l1-0.6l1-0.6c0.7-0.3,1.4-0.7,2.2-1
				c1.4-0.6,2.9-1.2,4.5-1.6c3-0.9,6.2-1.6,9.4-1.9c3.2-0.3,6.3-0.3,9.7,0.1L-1.5,409.3z"/>
		</g>
		<g>
			<path class="st36" d="M-47.6,416.4c0.7,2,1.6,3.9,2.5,5.3c1,1.4,2,2.6,3.3,3.5c1.3,0.9,2.9,1.3,4.8,1.9c0.9,0.1,1.9,0.4,2.9,0.6
				c1,0.1,2,0.3,3.2,0.7c-0.9,0.6-1.9,1-2.9,1.4c-1,0.3-2.2,0.6-3.3,0.7c-2.3,0.1-4.6-0.3-6.8-1.6s-3.6-3.6-4.2-5.8
				C-48.8,420.7-48.6,418.4-47.6,416.4z"/>
		</g>
		
			<ellipse transform="matrix(0.9472 -0.3205 0.3205 0.9472 -149.8975 16.6417)" class="st39" cx="-24.4" cy="463.7" rx="18.4" ry="22.1"/>
		<path class="st40" d="M-111.5,182c0,0-5.8,23.2,20.3,36.8c26.1,13.5,0,0,0,0s31.7-0.4,26.5-33.6"/>
		<path class="st40" d="M70.3,260.9c0,0,6.9-22.3,20.2-22.8s22.6,11.4,22.6,11.4"/>
		<path class="st41" d="M-99.1,379.9c0,0-10.7,19-21-13.7c-10.4-32.7,2.5-41.1,8.5-35.7"/>
		<path class="st42" d="M9.2,232.9c0,0-5.9,16.6-3.6,28.8c1,5.6,7.4,8.2,11.7,4.8c14.1-11.1,48.4-36.6,71.2-42.8
			c7.4-2,15.3-0.7,21.8,3.5c4.5,2.9,9.7,7.4,13.5,13.8c0,0,0.6-11-5.6-20.9c-7.2-11.5-21.5-15.1-33-9.2L23.3,243
			c-2.9,1.4-6.2,0.6-8.2-2L9.2,232.9z"/>
		<path class="st42" d="M-24.6,235.8c0,0,5.9,16.6,3.6,28.8c-1,5.6-7.4,8.2-11.7,4.8c-14.1-11.1-48.4-36.6-71.2-42.8
			c-7.4-2-15.3-0.7-21.8,3.5c-4.5,2.9-9.7,7.4-13.5,13.8c0,0-0.6-11,5.6-20.9c7.2-11.5,21.5-15.1,33-9.2l61.8,32.1
			c2.9,1.4,6.2,0.6,8.2-2L-24.6,235.8z"/>
		<path class="st43" d="M62.4,373.1c0,0,12.3-63.6,23.4-49.7c11.1,14,32.9-71.6,32.9-71.6"/>
		<path class="st44" d="M36.4,352.4c0,0,15.6-67.6,27.8-58.5s24.1-38.2,24.1-38.2"/>
		<path class="st36" d="M95.4,179.9c11.8-60.7-16.9-111.6-16.9-111.6c23.8,68.5-2.6,116.8-2.6,116.8"/>
		<g>
			<path class="st36" d="M158.5,151.2c3.9-9.7,7.1-19.5,9.7-29.4c1.3-5,2.5-9.9,3.3-15c0.9-5,1.7-10.1,2.2-15.1
				c0.4-5,0.9-10.2,0.7-15.3c0-5-0.3-10.2-0.7-15.3c-1-10.2-3.3-20.2-6.3-30.3c2.6,4.5,4.9,9.2,6.6,14.3c1,2.5,1.6,5,2.5,7.5
				c0.3,1.3,0.6,2.6,0.9,3.9c0.3,1.3,0.6,2.6,0.9,3.9c1.2,5.2,1.4,10.5,1.7,15.9s0,10.7-0.4,15.9c-1,10.5-3.3,20.9-6.8,31
				C169,133,164.6,142.7,158.5,151.2z"/>
		</g>
		<g>
			<path class="st36" d="M-161.6,161.3c-6.1-8.5-10.5-18.2-14-28.1c-3.5-9.9-5.8-20.3-6.8-31c-0.4-5.3-0.7-10.7-0.4-15.9
				c0.3-5.3,0.7-10.7,1.7-15.9c0.3-1.3,0.4-2.6,0.9-3.9c0.3-1.3,0.6-2.6,0.9-3.9c0.9-2.6,1.4-5,2.5-7.5c1.7-5,4-9.8,6.6-14.3
				c-3,9.9-5.3,20-6.3,30.3c-0.6,5-0.9,10.2-0.7,15.3c0,5,0.3,10.2,0.7,15.3s1.2,10.1,2.2,15.1c0.9,5,2,10.1,3.3,15
				C-168.7,141.8-165.5,151.6-161.6,161.3z"/>
		</g>
		<g>
			<path class="st36" d="M103.7,118c0-3.2,0-6.3-0.1-9.5c-0.1-3.2-0.3-6.2-0.7-9.2l-0.3-2.3l-0.4-2.3c-0.3-1.6-0.6-3-1-4.5
				c-0.7-3-1.9-5.9-3-8.9c2.2,2.5,3.9,5.2,5.2,8.2c1.2,3,2,6.2,2.5,9.4c0.4,3.2,0.4,6.5,0.1,9.7C105.6,111.8,104.9,115,103.7,118z"
				/>
		</g>
		<g>
			<path class="st36" d="M66.7,160.5c2-3.9,3.2-7.9,4-12c0.9-4,1.4-8.2,1.6-12.4l0.1-3.2v-3.2c0.1-2.2-0.1-4.2-0.1-6.3
				c-0.1-2.2-0.3-4.2-0.4-6.3c-0.1-2.2-0.4-4.2-0.6-6.3c0.7,2,1.3,4,2,6.2c0.4,2.2,1,4.2,1.3,6.3c0.6,4.3,0.9,8.6,0.7,13
				c-0.3,4.3-1,8.6-2.3,12.8C71.6,153.3,69.7,157.4,66.7,160.5z"/>
		</g>
		<path class="st36" d="M-78.3,182.6c0,0-30.3-46-12.4-116.2c0,0-24.2,53-7.4,112.6"/>
		<g>
			<path class="st36" d="M-111.6,118.2c-1.4-2.9-2.3-6.1-2.9-9.2c-0.6-3.2-0.7-6.5-0.7-9.7c0.1-3.3,0.7-6.5,1.7-9.7
				c0.9-3.2,2.5-6.1,4.5-8.6c-0.9,3.2-1.7,6.1-2.3,9.1c-0.3,1.6-0.4,3-0.6,4.6l-0.3,2.3l-0.1,2.3c-0.1,3-0.1,6.2,0,9.4
				C-112.2,111.8-111.9,115-111.6,118.2z"/>
		</g>
		<g>
			<path class="st36" d="M-71.1,157.4c-3.2-2.9-5.5-6.8-7.2-10.8c-1.7-4-2.7-8.4-3.5-12.5c-0.6-4.3-0.7-8.6-0.4-13
				c0.1-2.2,0.4-4.3,0.7-6.5c0.4-2.2,0.9-4.2,1.4-6.3c0,2.2,0,4.3,0,6.5c0,2.2,0,4.2,0.1,6.3c0.1,2.2,0.1,4.2,0.3,6.3l0.3,3.2
				l0.4,3.2c0.6,4.2,1.4,8.2,2.6,12.3C-75,149.7-73.4,153.8-71.1,157.4z"/>
		</g>
		<path class="st38" d="M80.8,403.7c0,0-23.9-2.5-31.9,19.2s3,30.3,3,30.3"/>
		<path class="st45" d="M-167.8,181.4h10.5l1.6,7.9c34,7.1,156.4,8.4,156.4,8.4v-3.9l-0.3-22.9c-12-4.8-171.2,5.8-171.2,5.8"/>
		<path class="st46" d="M-71.3,171.2c0,0-28-42.8-19.5-104.8c0,0-17.6,56.9-5,88.4l4.6,17.4"/>
		<path class="st45" d="M-155,175.8c0,0-42.2-72.4-7.2-159.4l-20.6,15.3l-13.3,28l-0.6,42.7l7.2,46.4l12.8,28.8l15,5"/>
		<path class="st47" d="M-107.7,203.6c0,0,24.2,4.5,43.7-7.1c0,0,7.1,19.2-17.6,31.1"/>
		<path class="st48" d="M-5.7,367.4c0,0-0.6,17.3-7.6,15.9C-20.4,381.8-5.7,367.4-5.7,367.4z"/>
		<ellipse class="st49" cx="60.2" cy="438.6" rx="3.3" ry="5.6"/>
		
			<ellipse transform="matrix(0.9833 -0.1818 0.1818 0.9833 -78.0881 19.4917)" class="st49" cx="67.3" cy="435.7" rx="1.9" ry="3.2"/>
		<ellipse class="st49" cx="-19.4" cy="469.6" rx="3.3" ry="5.6"/>
		
			<ellipse transform="matrix(0.9833 -0.1818 0.1818 0.9833 -85.0223 5.5367)" class="st49" cx="-12.3" cy="466.5" rx="1.9" ry="3.2"/>
		<ellipse class="st50" cx="71.4" cy="413.1" rx="5.3" ry="3"/>
		<ellipse class="st50" cx="-28.3" cy="449.8" rx="5.3" ry="3"/>
		<ellipse class="st14" cx="-39.4" cy="111.5" rx="8.4" ry="14"/>
		<ellipse class="st14" cx="-26.9" cy="128.7" rx="4.2" ry="6.9"/>
		<ellipse class="st14" cx="-148.1" cy="53.2" rx="6.9" ry="15.7"/>
		<ellipse class="st14" cx="-132.5" cy="57.8" rx="5.2" ry="8.8"/>
		<ellipse class="st23" cx="-14.8" cy="321.5" rx="4.5" ry="7.4"/>
		<ellipse class="st23" cx="-17.8" cy="306.7" rx="2.7" ry="4.6"/>
		<ellipse class="st23" cx="-131.4" cy="155.2" rx="9.7" ry="16.3"/>
		<ellipse class="st23" cx="-148.1" cy="166" rx="4.5" ry="7.4"/>
	</g>
</g>
</svg>
