<?xml version="1.0" encoding="utf-8"?>
<!-- Generator: Adobe Illustrator 24.1.1, SVG Export Plug-In . SVG Version: 6.00 Build 0)  -->
<svg version="1.1" id="Capa_1" xmlns="http://www.w3.org/2000/svg" xmlns:xlink="http://www.w3.org/1999/xlink" x="0px" y="0px"
	 viewBox="0 0 290 700" style="enable-background:new 0 0 290 700;" xml:space="preserve">
<style type="text/css">
	.Sombra_x0020_paralela{fill:none;}
	.Resplandor_x0020_externo_x0020_5_x0020_pt_x002E_{fill:none;}
	.Neón_x0020_azul{fill:none;stroke:#8AACDA;stroke-width:7;stroke-linecap:round;stroke-linejoin:round;}
	.Resalte_x0020_cromado{fill:url(#SVGID_1_);stroke:#FFFFFF;stroke-width:0.3629;stroke-miterlimit:1;}
	.A_x0020_todo_x0020_ritmo_GS{fill:#FFDD00;}
	.Alyssa_GS{fill:#A6D0E4;}
	.st0{fill:#6B982B;}
	.st1{fill:#366B2B;}
	.st2{fill:#002E16;}
	.st3{opacity:0.49;fill:#002E16;enable-background:new    ;}
	.st4{opacity:0.56;fill:#002E16;enable-background:new    ;}
	.st5{opacity:0.5;fill:#001F16;enable-background:new    ;}
	.st6{opacity:0.53;fill:#001F16;enable-background:new    ;}
	.st7{opacity:0.68;fill:#001F16;enable-background:new    ;}
	.st8{opacity:0.71;fill:#001F16;enable-background:new    ;}
	.st9{fill:#FFB400;}
	.st10{fill:#751E1E;}
	.st11{fill:#407710;}
	.st12{fill:#B11A00;}
	.st13{fill:#FFFFFF;}
	.st14{opacity:0.24;fill:#FFFFFF;enable-background:new    ;}
	.st15{opacity:0.74;fill:#430000;enable-background:new    ;}
	.st16{fill:#430000;}
	.st17{fill:#606060;}
	.st18{opacity:0.33;enable-background:new    ;}
	.st19{opacity:0.44;fill:#6A0000;enable-background:new    ;}
	.st20{opacity:0.35;fill:#FFFFFF;enable-background:new    ;}
	.st21{opacity:0.61;fill:#FFFFFF;enable-background:new    ;}
	.st22{opacity:0.19;fill:#FFFFFF;enable-background:new    ;}
	.st23{opacity:0.24;enable-background:new    ;}
	.st24{opacity:0.26;enable-background:new    ;}
	.st25{opacity:0.28;enable-background:new    ;}
	.st26{opacity:0.39;fill:#6A0000;enable-background:new    ;}
	.st27{opacity:0.42;fill:#6A0000;enable-background:new    ;}
	.st28{opacity:0.47;fill:#6A0000;enable-background:new    ;}
	.st29{opacity:0.43;fill:#6A0000;enable-background:new    ;}
	.st30{opacity:0.42;enable-background:new    ;}
	.st31{opacity:0.25;enable-background:new    ;}
	.st32{opacity:0.35;fill:#6A0000;enable-background:new    ;}
	.st33{opacity:0.44;}
	.st34{fill:#6A0000;}
	.st35{fill:#520000;}
	.st36{fill:#020202;}
	.st37{fill:none;stroke:#020202;stroke-width:2.8149;stroke-miterlimit:10;}
	.st38{fill:none;stroke:#020202;stroke-width:5.6298;stroke-miterlimit:10;}
	.st39{fill:none;stroke:#020202;stroke-width:4.2222;stroke-miterlimit:9.9995;}
	.st40{fill:none;stroke:#020202;stroke-width:4.2224;stroke-miterlimit:10;}
	.st41{fill:none;stroke:#020202;stroke-width:3.8751;stroke-miterlimit:10;}
	.st42{fill:#020202;stroke:#020202;stroke-width:4.3673;stroke-miterlimit:10;}
	.st43{fill:none;stroke:#020202;stroke-width:4.3673;stroke-miterlimit:10;}
	.st44{fill:none;stroke:#020202;stroke-width:4.7471;stroke-miterlimit:10;}
	.st45{opacity:0.54;fill:#001F16;enable-background:new    ;}
	.st46{opacity:0.61;fill:#001F16;enable-background:new    ;}
	.st47{opacity:0.49;fill:#001F16;enable-background:new    ;}
	.st48{opacity:0.6;fill:#001F16;enable-background:new    ;}
	.st49{opacity:0.53;enable-background:new    ;}
	.st50{opacity:0.38;fill:#FFFFFF;enable-background:new    ;}
</style>
<linearGradient id="SVGID_1_" gradientUnits="userSpaceOnUse" x1="0" y1="0" x2="6.123234e-17" y2="-1">
	<stop  offset="0" style="stop-color:#656565"/>
	<stop  offset="0.618" style="stop-color:#1B1B1B"/>
	<stop  offset="0.6292" style="stop-color:#545454"/>
	<stop  offset="0.9831" style="stop-color:#3E3E3E"/>
</linearGradient>
<g id="Capa_1_1_">
	<g>
		<path class="st0" d="M1.3,554V163.9h-154.7l4.2,37c0,0,5.3,35.7,1.1,43.3c-4.2,7.6,28.7,44.5,30.1,49.5
			c1.5,5.1,11.1,33.6,10.6,46.9c-0.4,13.2,12.8,38.4,33.5,64.7c0,0,9.4,25.2,9.6,39.1c0,13.9,30.3,42.8,30.3,42.8l20.5,51.1L1.3,554
			z"/>
		<path class="st1" d="M3.1,12.6c0,0-46,1.3-70.7,12.5s-1.3-1.5-1.3-1.5s-71.5-16.9-88.2-6.1s-29.8,12.8-33.6,65.7
			c-3.8,52.8,12.9,88,26,95.8l18.9-2c0,0,50.2,8.3,62.2,0.8l24.5,5.8l40.8,5.6l23.9,2.4"/>
		<polyline class="st1" points="-110.6,183 -83.8,175 -61.9,183.1 -61.9,200.9 -75.8,212.8 -88.3,215.8 -104.5,201.2 		"/>
		<path class="st1" d="M-96.1,373.3c0,0-11.5-35-14.4-49.8c0,0-14.2,2.5-9.7,20.8C-115.6,362.7-108.3,389.6-96.1,373.3z"/>
		<polyline class="st1" points="-27,475 -16.3,475.3 -8,468.7 -4.9,455.1 -9.7,442.4 -27,432.7 -35.6,438 -41.3,450.3 -38.8,463.9 
					"/>
		<path class="st2" d="M-19.2,348.5c0,0-24.1,12.9-49.7-0.7c-25.6-13.7-30.8-89.2-29-97.7c0,0,40.4,5.3,62.2,52.2
			S-19.2,348.5-19.2,348.5z"/>
		<path class="st1" d="M-92.8,19.4c0,0-5.3,27.6-3.2,27.6s46,3.1,46,3.1l-8.3-30.7l-10.4,4.2"/>
		<path class="st3" d="M1.3,530.6c0,0-27.9-37.3-30.7-46.4c-0.3-1-0.8-1.8-1.7-2.5c-5.5-5.1-25.2-24.1-27.9-42.5
			c-2.7-18-9.7-50.5-21.7-60c-5.6-4.5-10.1-10.4-12.1-17.5c-5.6-20-14.8-54.2-13.8-62.6c1.4-12.2-25.5-49-30.5-49
			c-4.1-0.1-3.2-49.5-2.8-66.4c0.1-3.1-2.4-5.6-5.5-5.8l0,0c-3.4-0.1-6.1,2.8-5.8,6.2l3.9,34.6c0,0.3,0,0.4,0,0.7l-0.3,29
			c0,1.1,0.3,2.3,1,3.1l28.9,43.3c0.4,0.6,0.7,1.3,0.8,2l8,36.9l9.4,34.6c0.1,0.7,0.4,1.3,0.8,1.8l20.8,29.6
			c0.1,0.3,0.3,0.4,0.4,0.7l7.2,13.9c0.3,0.6,0.4,1,0.6,1.5l5.2,28.1c0,0.3,0.1,0.6,0.1,0.8l5.3,15.8c0.3,0.7,0.6,1.3,1.1,1.8
			l12.8,14.9l10.4,11c0.6,0.6,1,1.1,1.1,1.8l10.7,28c0,0.1,0.1,0.3,0.3,0.6l11.5,23.2c0.3,0.6,0.7,1.1,1.1,1.5L1.2,554"/>
		<path class="st4" d="M1,405.8c0,0-23.2,6.5-32.5,15.1c-9.1,8.4-14.4-12-14.4-12s-7.5,25.1,14.5,18.6c0,0,30.3-13.5,32.7-5.6"/>
		<path class="st5" d="M-64.1,363.6c36.2,8.7,48.6-15.5,48.6-15.5c-76.7-5.5-82.2-98-82.2-98c-18.9-0.3-18.9,1.8-18.9,1.8
			c3.4,23.4,20.7,74.7,32.4,95.7l0,0C-80.2,355.5-72.9,361.5-64.1,363.6z"/>
		<path class="st6" d="M-23.3,232.5c0,0,9.3,14.6,11,28.9c1.1,10.3-10.8,17-19.1,10.8c-24.5-17.9-78.7-52.8-102.5-28.1l10-23.2
			l44.9,3.7l49.4,31l6.5-9.7"/>
		<path class="st7" d="M-37.8,442.7c0,0,2,31.7,29.8,26c0,0-2.7,13.1-9.1,15.6S-51.9,474.9-37.8,442.7z"/>
		<path class="st8" d="M-100.9,377.6c0,0-16.7-27.2-15.6-52.1l6.1-3c0,0,10.4,44.8,14.5,50.5"/>
		<path class="st9" d="M1.3,551.7V190.6c0,0,73.5,0.1,87.7-12.2c0,0,47.9,1.7,57.1-9c0,0,6.2,34.8-8.7,51.5
			c-14.9,16.7-2.1,36.2-2.1,36.2l-32.1,52.2l-18.6,54l-0.1,22l-4.8,12l-32.4,48.7l-3.2,17.9l1.5,7l-5.3,19.3L22,525.7l-22.5,27"/>
		<path class="st10" d="M1.3,12.6v179.2c0,0,86.7,3.4,87.7-22.4c0,0-7.9,9.4,7.5,9s59-10.1,59-10.1l16-11.4c0,0,33.1-33.6,9.3-119.2
			c0,0-10.3-48.8-97.4-21.4l-25.9,7.3C57.6,23.7,17.4,9.6,1.3,12.6z"/>
		<polyline class="st11" points="12.6,489.1 22.3,489.1 31.6,454.6 22.3,454.6 		"/>
		<polyline class="st11" points="19.8,363.9 25.9,358.2 16.8,338.5 10.5,342.7 		"/>
		<path class="st12" d="M49.2,442.2c0,0,22.5,12.4,33.4-21.1c10.8-33.6-20-21.8-20-21.8s-12.1,9.3-13.9,16
			C46.5,421.8,44,433.9,49.2,442.2z"/>
		<path class="st12" d="M69.3,257l41.8-11.1c0,0-10.3-13.5-25.5-11.1"/>
		<path class="st12" d="M84.8,237.6c0,0-17.5,6.9-19.4,29.3"/>
		<path class="st13" d="M31.6,340.5c0,0,14.9,29,34.2,28c19.3-1,38.7-55.3,38.7-55.3l17.2-69l-72.5,19.8L31.6,340.5z"/>
		<path class="st13" d="M1.3,389c0,0,25.2-3.1,36.9-9.7c0,0-5.2,36.3-36.9,42.5"/>
		<ellipse class="st14" cx="123.2" cy="30" rx="10.7" ry="8.9"/>
		<path class="st15" d="M105.6,176.1c0,0,0.3-92.2-27.4-107.1c0,0,29.8,81.5,4.9,110.3"/>
		<path class="st16" d="M145.9,167.2c0,0,59.4-87,2.8-159.5c0,0,25.3,8.6,32.2,29.7c6.9,21.1,16,60.9,5.3,87.3
			c-10.7,26.3-21,34.3-24.5,40.3"/>
		<path class="st16" d="M1,169.3c0,0,114,14.1,141.2,0c0,0-37.6,14.9-59,10.1s0,0,0,0l-23.5,7.2l-58.3,3.7"/>
		<path class="st17" d="M36.8,382.7"/>
		<path class="st18" d="M1.3,400.6c0,0,22.9,2.7,34.1-10.7c0,0-4.5,30.1-34.1,32.1"/>
		<path class="st19" d="M5.5,238.2c0,0-10.6,30.4,4.9,38s57.8-54.3,78.5-48.7s34.2,16.5,34.2,16.5s-16.2-38.7-38.4-28
			C62.5,226.8,19,255.8,19,255.8"/>
		<ellipse class="st20" cx="-78.6" cy="272.2" rx="9.7" ry="8.2"/>
		<circle class="st21" cx="-79.1" cy="271.2" r="4.9"/>
		<ellipse class="st20" cx="-62.2" cy="282.2" rx="3.1" ry="2.7"/>
		<circle class="st21" cx="-62.3" cy="281.8" r="1.5"/>
		<path class="st22" d="M-182.9,42.2c0,0,15.5-26.3,35.5-27s79.8,10,79.8,10s56.9-27.3,125.3-1.5c0,0,65-20.3,80.1-16.7
			s30.5,6.1,37.7,21.7c0,0-36.9-3.8-64.3,3.9c0,0-50.7,15.3-88.4,4.8c-6.2-1.7-12.7-2.4-19.1-2.4h-7.3c-8,0-15.9,1.3-23.5,3.8
			c-17.3,5.6-53.5,14.6-83.5,2.3c-4.4-1.8-8.9-3-13.5-3.7C-139,35.4-168.3,32.8-182.9,42.2z"/>
		<path class="st23" d="M-180.8,159.8c0,0,8.4,25.9,29.1,17.9s7.7,14.4,68,0.3c0,0,110.5,30.3,172.7,0.4c0,0,50.1,0.6,58.6-9
			c0,0,17.2-4.4,23.9-9.6l-46.3,6.9c-12.1,1.8-24.3,2.1-36.6,1.1l-76-6.8c-8.7-0.7-17.5-0.8-26-0.1l-88.7,7
			c-12.2,1-24.5,0.6-36.6-1.4L-180.8,159.8z"/>
		<path class="st18" d="M-150.1,194.3c0,0,237.6,26.6,297.5-3.7l0.1-21.4c0,0-94.7,17.7-147.9,17.7c-53.2,0.1-92.5-8.4-151.3-9.4"/>
		<path class="st19" d="M1.3,302.1c0,0,26,81.4,83.2,77.3l0.1-16c0,0-18,15.9-42.2-4.4L1.3,279.5"/>
		<path class="st24" d="M51.4,410c0,0-5.3,39.4,28.3,11.8c0,0-2.1,22.9-28.3,22.9C51.4,444.8,40.9,435.2,51.4,410z"/>
		<polyline class="st25" points="73.1,248.3 102.9,242.2 111.1,245.9 69.3,257 		"/>
		<path class="st19" d="M1.3,530.6c0,0,40.1-41,41.5-81.4l2.8,21.5c0,0-12,56.2-44.3,80.9"/>
		<path class="st26" d="M66.1,396.4c0,0,10.6-9,10.6-27.9l8-5.2c0,0-0.3,25.3-4.9,33.2"/>
		<path class="st27" d="M129.4,242.2c0,0,24.5-52.8,18.3-72.9c0,0-15.9,8.9-18.9,6.3c-3-2.5,5.1,27-9.7,70.1"/>
		<path class="st27" d="M1.3,421.8c0,0,28-0.4,36.9-42.5c0,0,4.6,49.5-36.9,65.4"/>
		<polygon class="st28" points="27.4,358.2 28.8,363.9 18.2,372.3 14.4,364.6 5.5,345 10.5,341.3 19.5,363.3 		"/>
		<polygon class="st29" points="11.2,489.1 9.2,496.6 23.6,494.9 36.8,453.1 32,453.1 23.6,489.1 		"/>
		<ellipse class="st18" cx="129.4" cy="150.1" rx="9.3" ry="14.5"/>
		<circle class="st18" cx="142.2" cy="130.4" r="5.5"/>
		<ellipse class="st22" cx="30.7" cy="69.1" rx="14.9" ry="19"/>
		<ellipse class="st22" cx="54.1" cy="84.5" rx="5.5" ry="9.1"/>
		<ellipse class="st30" cx="30.6" cy="175" rx="12.4" ry="15.2"/>
		<ellipse class="st31" cx="16.2" cy="147.5" rx="5.8" ry="11.5"/>
		<path class="st32" d="M1.3,190.6v4.8c0,0,70.5,8.2,146.4-14.8v-11.3"/>
		<g class="st33">
			<path class="st34" d="M38.2,427.5c0.6,1.8,0.8,3.7,1.1,5.5c0.1,1.8,0.1,3.7,0,5.5c-0.3,1.8-0.6,3.7-1.5,5.6
				c-0.3,0.4-0.6,1-1.3,1.4c-0.1,0.1-0.4,0.1-0.6,0.3c-0.1,0-0.4,0-0.6,0c-0.4,0-0.7-0.1-1-0.4c-1-0.7-1.3-1.7-1.5-2.5
				c0.7,0.6,1.5,1.3,2.1,1.4c0.3,0,0.4,0,0.4-0.1c0.1-0.1,0.3-0.4,0.3-0.8c0.4-1.4,0.6-3.2,0.7-4.9c0.1-1.7,0.4-3.5,0.7-5.2
				C37.3,431,37.6,429.2,38.2,427.5z"/>
		</g>
		<g class="st33">
			<path class="st34" d="M32.8,439.2c0.6,1.8,0.7,3.7,0.6,5.5c-0.1,1-0.3,1.8-0.8,2.8c-0.1,0.3-0.3,0.4-0.6,0.7
				c-0.3,0.3-0.8,0.1-1.1,0c-0.4-0.4-0.6-0.8-0.7-1.3c0.4,0.3,0.7,0.6,1.1,0.7c0.1,0,0.1,0,0.1-0.1c0-0.1,0.1-0.3,0.1-0.4
				c0.1-0.7,0.3-1.5,0.4-2.5C32.3,442.8,32.4,441,32.8,439.2z"/>
		</g>
		<g class="st33">
			<path class="st34" d="M34.7,204.2c0.7,2.5,1,5.2,1.1,7.7c0.1,2.5,0.1,5.2-0.1,7.9c-0.3,2.7-0.7,5.2-2.1,7.9
				c-0.3,0.6-0.8,1.3-1.5,1.8c-0.3,0.1-0.4,0.3-0.7,0.3s-0.6,0-0.7,0.1c-0.4,0-1-0.1-1.3-0.4c-1.3-1-1.8-2.3-2.3-3.4
				c1,0.8,2,1.8,3,2.1c0.6,0.1,0.7,0.1,1-0.1c0.3-0.3,0.6-0.7,0.7-1.3c0.7-2.1,1-4.6,1.3-7.2C33.4,214.5,33.7,209.3,34.7,204.2z"/>
		</g>
		<g class="st33">
			<path class="st34" d="M27.1,221c0.6,1.3,0.8,2.5,1.1,3.9c0.1,1.3,0.1,2.7,0,3.9c-0.1,1.4-0.4,2.7-1.3,4.1c-0.1,0.3-0.6,0.7-1,1
				c-0.3,0.1-0.6,0.3-1,0.3c-0.3,0-0.6-0.1-0.8-0.3c-0.7-0.7-0.8-1.3-1-2c0.6,0.3,1.1,0.7,1.7,0.8c0.3,0,0.1-0.1,0-0.1
				c0-0.1,0-0.3,0.1-0.6c0.1-1,0.3-2.3,0.4-3.4c0.1-1.3,0.3-2.5,0.6-3.7C26.2,223.5,26.5,222.3,27.1,221z"/>
		</g>
		<g>
			<path class="st35" d="M156.3,40.3c2.8,5.5,4.5,11.4,5.6,17.5c1.1,6.1,1.7,12.2,1.5,18.3c-0.1,6.2-0.6,12.2-1.8,18.3
				c-0.6,3-1.4,5.9-2.3,8.9c-0.8,3-2,5.8-3.2,8.6c0-3.1,0.3-6.1,0.4-9.1c0.1-3,0.4-6.1,0.6-9c0.4-5.9,0.4-11.8,0.6-17.7
				c0-5.9-0.1-11.8-0.3-17.7C157.3,52.4,156.8,46.3,156.3,40.3z"/>
		</g>
		<path class="st36" d="M99.7,315.7l-15.3,2.4l-4.6-2.4l-5.5,7.7l-5.8,15.1l-4.9,16l-2.1,9.3v5.2c0,0,51.5,6.9,67-103.6l24.1-8.3
			l-4.1-19l-31.9,10.1c0,0-13.5,59.3-27.4,75.2"/>
		<path class="st36" d="M36.2,346.4c0,0,16.2-56.2,21.7-56.7s7.9,0.6,7.9,0.6s12.1,1.5,21.1-38.4l-85.6,22
			C1.3,273.8,17.4,322.1,36.2,346.4z"/>
		<path class="st37" d="M61.6,363.9c0,0-19.6-15.5-24.8-25.3"/>
		<g>
			<path class="st36" d="M54,349.9c-2.7-1.4-5.2-3.1-7.6-4.9c-2.4-1.8-4.6-3.8-6.8-5.8c-2.1-2.1-4.2-4.2-6.1-6.8
				c-1.8-2.4-3.5-4.9-4.4-7.9c1.8,2.4,3.9,4.4,6.1,6.5c2.1,2.1,4.2,4.1,6.3,6.2C45.6,341.3,50,345.4,54,349.9z"/>
		</g>
		<line class="st37" x1="79.6" y1="261.2" x2="121.5" y2="250.1"/>
		<g>
			<path class="st36" d="M98.3,261.2c2.8-1.1,5.5-2,8.3-2.8s5.6-1.5,8.4-2.3s5.8-1.3,8.6-1.8c3-0.6,5.8-1,8.7-1.3
				c-2.8,1.1-5.5,2-8.3,3c-2.8,0.8-5.6,1.5-8.4,2.3s-5.8,1.3-8.6,1.8C104.1,260.5,101.2,261,98.3,261.2z"/>
		</g>
		<g>
			<path class="st36" d="M-35.6,454.6c0.7,2.1,1.5,3.9,2.4,5.8c1,1.7,2.1,3.2,3.5,4.5c1.4,1.1,3.1,2.1,5.1,2.5l0.7,0.3l0.7,0.1
				l1.5,0.3c1,0.1,2.1,0.1,3.2,0.3c-1,0.4-2.1,0.8-3.1,1l-1.7,0.1c-0.3,0-0.6,0-0.8,0h-0.8c-2.3,0-4.6-1-6.5-2.5
				c-1.8-1.5-3.1-3.7-3.8-5.8C-35.7,459.1-36,456.7-35.6,454.6z"/>
		</g>
		<g>
			<path class="st36" d="M51.4,431.7c1.3,2.1,2.8,4.1,4.6,4.8c1.8,0.7,3.9,0.1,5.9-0.7c2-1,3.9-2.4,5.8-3.8c1.8-1.4,3.8-3,5.8-4.5
				c-1.1,2.3-2.5,4.2-4.4,6.1c-1.7,1.8-3.7,3.5-6.1,4.6c-1.3,0.6-2.5,1-3.9,1.1c-1.4,0.1-3-0.1-4.2-1c-1.3-0.7-2.1-1.8-2.7-3
				C51.8,434.1,51.4,433,51.4,431.7z"/>
		</g>
		<g>
			<path class="st36" d="M-98.9,199.5c2.5,2.1,5.2,3.9,8,5.3c2.8,1.3,5.8,2.1,8.6,1.4c2.8-0.4,5.3-2.3,7.5-4.5
				c2.3-2.3,4.1-4.9,6.1-7.6c-0.8,3.2-2.3,6.3-4.2,9c-1,1.4-2.3,2.7-3.7,3.7c-1.4,1-3.2,1.8-4.9,2.1c-1.8,0.3-3.7,0.3-5.5-0.1
				c-1.7-0.4-3.4-1.3-4.8-2.1C-95,205-97.2,202.4-98.9,199.5z"/>
		</g>
		<path class="st38" d="M1.3,554c0,0,43.5-49.7,44.3-89.5c0,0-4.5-23.6,9.3-19.6c14.5,4.2,38.6-24.2,24.8-48.3c0,0,8.3-7.5,4.9-33.2
			c0,0,43.1-43.1,43.9-97.8l24.1-8.3l-4.1-19l-19,4.1c0,0,4.9-19,12.4-28.1s5.8-44.8,5.8-44.8s39,4.1,42.2-78.8
			c3.2-83-52.2-83.7-52.2-83.7s-19.6-1.7-80.1,16.6c0,0-53.8-25.8-125.1,1.5c0,0-51.1-12.9-73.3-10.8c-20.4,2-56.3,9.1-48.8,96.1
			s36.5,67.4,36.5,67.4s10,43.6,5.8,62.6c-4.1,19,27.3,40.7,33.2,63.5c5.8,22.8,7.5,59.3,25.8,79.9c18.3,20.7,22.4,37.3,22.4,48.8
			c0,11.5,10,34.8,25.8,47.3C-24.9,492.6-24.7,537.4,1.3,554z"/>
		<path class="st38" d="M-153.2,175.7c0,0,48.1,10,69.7,2.3c0,0,94.4,28.6,177.3,0c0,0,28.9,3.5,52.5-8.6"/>
		<path class="st38" d="M84.6,363.3c0,0-26.5,24.1-54.8-25.8C12.4,306.9,5.7,289.7,3,281.1c-1.3-3.9,1.1-8.2,5.2-9.1l121.2-29.8"/>
		<g>
			<path class="st36" d="M1.7,417.8c0.3,0,1,0.1,1.4,0.1c0.6,0,1.1,0,1.7,0s1.1-0.1,1.7-0.1s1.1-0.1,1.7-0.3l1.7-0.4l1.7-0.6
				c1.1-0.3,2.1-0.8,3.2-1.3c4.2-2.1,7.9-5.2,11-9l1.1-1.4c0.4-0.4,0.7-1,1.1-1.5l2-3.1c0.7-1,1.1-2.1,1.7-3.2
				c0.6-1.1,1.1-2.3,1.7-3.4c0.8-2.4,1.8-4.6,2.7-7l2.1-7.2l-1.4,7.5c-0.6,2.4-1.4,4.9-2.1,7.3c-0.4,1.1-1,2.4-1.4,3.5
				c-0.6,1.1-0.8,2.4-1.5,3.5l-1.8,3.4c-0.3,0.6-0.6,1.1-1,1.7l-1.1,1.5c-3,4.2-6.6,8.2-11.3,11c-1.1,0.7-2.3,1.4-3.5,1.8l-1.7,1
				l-2,0.6c-0.7,0.3-1.3,0.4-2,0.6s-1.4,0.3-2,0.4c-0.7,0.1-1.4,0.1-2.1,0.3c-0.7,0-1.4,0.1-2.3,0L1.7,417.8z"/>
		</g>
		<g>
			<path class="st36" d="M1.2,386.2c3.5,0,7.2-0.3,10.8-0.7c3.7-0.4,7.2-0.8,10.8-1.5c3.5-0.7,7.2-1.5,10.6-2.7
				c3.4-1.1,6.8-2.7,9.9-4.6c-2.8,2.4-6.1,4.4-9.3,6.1c-3.4,1.7-6.9,3-10.4,4.1s-7.2,2.1-10.8,3s-7.3,1.5-11.1,2.1L1.2,386.2z"/>
		</g>
		<g>
			<path class="st36" d="M35.4,369.1c2.1-1.4,4.6-2.1,7.3-2.1c2.7,0,5.6,0.8,7.7,3.1c1,1.1,1.8,2.5,2.1,3.8c0.4,1.4,0.6,2.8,0.4,4.1
				c-0.1,2.7-1,5.1-2.4,7.2c-0.3-2.5-0.4-4.9-0.8-7c-0.4-2.1-1.1-3.9-2.4-5.2c-1.1-1.3-3-2.1-5.1-2.7
				C40.2,369.8,37.9,369.5,35.4,369.1z"/>
		</g>
		<polygon class="st37" points="22.3,489.1 31.6,454.6 22.3,454.6 12.6,489.1 		"/>
		<polygon class="st37" points="16.8,338.5 25.9,358.2 19.8,363.9 10.5,342.7 		"/>
		<g>
			<path class="st36" d="M117.6,176c0.3,0.1,0.3,0.3,0.4,0.3c0.1,0.1,0.1,0.1,0.3,0.3c0.1,0.1,0.3,0.3,0.4,0.4
				c0.3,0.3,0.4,0.7,0.6,1c0.4,0.6,0.7,1.3,0.8,1.8c0.6,1.3,0.8,2.5,1.1,3.8c0.6,2.5,0.7,4.9,0.8,7.5c0.1,2.4,0.1,4.9,0,7.3
				c-0.1,2.4-0.3,4.8-0.6,7.2c-0.1-2.4-0.3-4.8-0.6-7.2c-0.3-2.4-0.6-4.8-1-7c-0.4-2.3-1-4.6-1.8-6.8c-0.4-1.1-0.8-2.1-1.4-3.1
				c-0.3-0.4-0.6-0.8-0.8-1.3c-0.1-0.1-0.3-0.4-0.4-0.6c-0.1-0.1-0.1-0.1-0.1-0.1l0,0c0,0,0,0,0.1,0L117.6,176z"/>
		</g>
		<g>
			<path class="st36" d="M108.8,176.7c0.3,0.3,0.3,0.3,0.3,0.3c0.1,0.1,0.1,0.1,0.1,0.1c0.1,0.1,0.1,0.3,0.3,0.3
				c0.1,0.3,0.1,0.4,0.3,0.6c0.1,0.3,0.3,0.7,0.4,1c0.1,0.7,0.3,1.3,0.4,1.8c0.3,1.3,0.3,2.4,0.4,3.7c0.1,2.4,0.1,4.8,0.1,7
				c-0.6-2.3-1.3-4.5-2.1-6.6c-0.4-1.1-0.8-2.1-1.4-3.1c-0.3-0.4-0.6-1-0.8-1.4c-0.1-0.1-0.3-0.4-0.4-0.6l-0.1-0.1l0,0l0,0
				c0,0,0,0,0.1,0.1L108.8,176.7z"/>
		</g>
		<g>
			<path class="st36" d="M-130.1,182c-0.1,0-0.4,0.1-0.7,0.1c-0.3,0.1-0.6,0.3-0.7,0.4c-0.4,0.3-1,0.6-1.4,1c-0.8,0.7-1.7,1.8-2.3,3
				c-0.6,1.1-1,2.4-1.1,3.8c-0.1,0.7-0.1,1.4-0.1,2v2.1l-0.6-2c-0.1-0.7-0.3-1.4-0.3-2.1c-0.1-1.4-0.1-3,0.3-4.4
				c0.3-1.4,1-3,1.8-4.2c0.4-0.7,1-1.3,1.5-1.8c0.7-0.6,1.1-1.1,2.1-1.5L-130.1,182z"/>
		</g>
		<g>
			<path class="st36" d="M-119.4,181.3c-1.7,1.4-3.2,3.1-4.6,4.9s-2.7,3.8-3.7,5.8c-1.1,2.1-1.8,4.2-2.4,6.5c-0.6,2.3-0.7,4.6-0.7,7
				c-0.3-2.4-0.4-4.8,0-7c0.3-2.4,0.8-4.6,1.8-6.9c0.8-2.3,2-4.4,3.2-6.5c1.3-2.1,2.7-3.9,4.5-5.8L-119.4,181.3z"/>
		</g>
		<g>
			<path class="st36" d="M-132.8,253.5c13.2-4.9,28-5.6,42.1-2.8c7,1.5,13.8,4.1,20.3,7.6c6.3,3.5,12.1,7.9,17.3,12.9l2,1.8
				c0.6,0.7,1.3,1.3,1.8,2c1.1,1.4,2.5,2.7,3.7,4.1l3.4,4.2c1.1,1.4,2.1,3,3.1,4.5c2.1,3,3.8,6.1,5.6,9.1c1,1.5,1.7,3.2,2.5,4.8
				l2.4,4.8c5.9,13.1,10.1,26.7,13.4,40.7l0.6,2.3l-2.1,1c-1.7,0.8-3.2,1.5-4.8,2.1c-1.5,0.6-3.2,1.1-4.9,1.7
				c-3.2,1-6.6,1.8-10.1,2.3c-6.9,1-14.1,1-20.8-1c-6.8-1.8-13.2-5.5-18.3-10.3c-5.2-4.8-8.9-10.7-11.8-16.9l-1.1-2.3l-1-2.4
				c-0.6-1.5-1.3-3.1-1.8-4.8c-1-3.2-2.1-6.5-2.7-9.7l-1.1-4.9c-0.3-1.7-0.6-3.2-0.8-4.9c-0.3-1.7-0.6-3.2-0.7-4.9l-0.6-4.9
				c-1.3-13.2-1.1-26.6-0.3-39.7c0.4,13.2,1.1,26.5,3.2,39.4l0.7,4.9c0.3,1.5,0.7,3.2,1,4.8s0.7,3.2,1,4.8l1.3,4.6
				c0.4,1.5,0.8,3.1,1.4,4.6l1.5,4.6c0.6,1.5,1.3,3,1.8,4.5l1,2.3l1.1,2.1c3,5.6,6.6,10.8,11.3,15.1c4.6,4.2,10.1,7.2,16.2,8.6
				c12,3,25.3,0.4,36.3-4.9l-1.5,3.4c-3.1-13.5-7.2-26.9-12.8-39.5l-2.3-4.6c-0.7-1.5-1.4-3.1-2.3-4.6c-1.7-3-3.2-6.1-5.2-8.9
				c-3.7-5.9-7.9-11.3-12.7-16.2c-9.4-9.9-21.5-17.3-34.9-21C-104.7,250.1-119.2,250-132.8,253.5z"/>
		</g>
		<g>
			<path class="st36" d="M-0.8,402c-2.5-0.7-5.6-1-8.4-1.1c-3-0.1-5.8,0.1-8.7,0.7c-1.4,0.3-2.8,0.7-4.2,1c-0.7,0.3-1.4,0.6-2.1,0.7
				l-1,0.4l-1,0.4c-2.7,1.1-5.2,3-7.6,4.8c2.1-2.1,4.4-4.2,7-5.6l1-0.6l1-0.6c0.7-0.3,1.4-0.7,2.1-1c1.4-0.6,2.8-1.1,4.4-1.5
				c3-0.8,6.1-1.5,9.1-1.8c3.1-0.3,6.2-0.3,9.4,0.1L-0.8,402z"/>
		</g>
		<g>
			<path class="st36" d="M-45.8,408.9c0.7,2,1.5,3.8,2.4,5.2c1,1.4,2,2.5,3.2,3.4s2.8,1.3,4.6,1.8c0.8,0.1,1.8,0.4,2.8,0.6
				c1,0.1,2,0.3,3.1,0.7c-0.8,0.6-1.8,1-2.8,1.4c-1,0.3-2.1,0.6-3.2,0.7c-2.3,0.1-4.5-0.3-6.6-1.5c-2.1-1.3-3.5-3.5-4.1-5.6
				C-47,413.1-46.8,410.9-45.8,408.9z"/>
		</g>
		
			<ellipse transform="matrix(0.9472 -0.3205 0.3205 0.9472 -147.0719 16.5835)" class="st39" cx="-23.2" cy="455" rx="18" ry="21.5"/>
		<path class="st40" d="M-108.2,180c0,0-5.6,22.7,19.8,35.9s0,0,0,0s31-0.4,25.9-32.8"/>
		<path class="st40" d="M69.3,257c0,0,6.8-21.8,19.7-22.2c12.9-0.4,22.1,11.1,22.1,11.1"/>
		<path class="st41" d="M-96.1,373.3c0,0-10.4,18.6-20.5-13.4s2.4-40.1,8.3-34.9"/>
		<path class="st42" d="M9.6,229.7c0,0-5.8,16.2-3.5,28.1c1,5.5,7.2,8,11.4,4.6c13.8-10.8,47.3-35.7,69.5-41.8
			c7.2-2,14.9-0.7,21.3,3.4c4.4,2.8,9.4,7.2,13.2,13.5c0,0,0.6-10.7-5.5-20.4c-7-11.3-21-14.8-32.2-9l-60.4,31.4
			c-2.8,1.4-6.1,0.6-8-2L9.6,229.7z"/>
		<path class="st42" d="M-23.3,232.5c0,0,5.8,16.2,3.5,28.1c-1,5.5-7.2,8-11.4,4.6c-13.8-10.8-47.3-35.7-69.5-41.8
			c-7.2-2-14.9-0.7-21.3,3.4c-4.4,2.8-9.4,7.2-13.2,13.5c0,0-0.6-10.7,5.5-20.4c7-11.3,21-14.8,32.2-9l60.4,31.4
			c2.8,1.4,6.1,0.6,8-2L-23.3,232.5z"/>
		<path class="st43" d="M61.6,366.7c0,0,12-62.1,22.8-48.6c10.8,13.7,32.1-70,32.1-70"/>
		<path class="st44" d="M36.2,346.4c0,0,15.2-66,27.2-57.1S86.9,252,86.9,252"/>
		<path class="st36" d="M93.8,177.9C105.3,118.7,77.3,69,77.3,69c23.2,66.9-2.5,114-2.5,114"/>
		<g>
			<path class="st36" d="M155.4,149.9c3.8-9.4,6.9-19,9.4-28.7c1.3-4.9,2.4-9.7,3.2-14.6c0.8-4.9,1.7-9.9,2.1-14.8s0.8-10,0.7-14.9
				c0-4.9-0.3-10-0.7-14.9c-1-10-3.2-19.7-6.2-29.6c2.5,4.4,4.8,9,6.5,13.9c1,2.4,1.5,4.9,2.4,7.3c0.3,1.3,0.6,2.5,0.8,3.8
				c0.3,1.3,0.6,2.5,0.8,3.8c1.1,5.1,1.4,10.3,1.7,15.5c0.3,5.2,0,10.4-0.4,15.5c-1,10.3-3.2,20.4-6.6,30.3
				C165.7,132.2,161.3,141.6,155.4,149.9z"/>
		</g>
		<g>
			<path class="st36" d="M-157.2,159.8c-5.9-8.3-10.3-17.7-13.7-27.4c-3.4-9.7-5.6-19.8-6.6-30.3c-0.4-5.2-0.7-10.4-0.4-15.5
				c0.3-5.2,0.7-10.4,1.7-15.5c0.3-1.3,0.4-2.5,0.8-3.8c0.3-1.3,0.6-2.5,0.8-3.8c0.8-2.5,1.4-4.9,2.4-7.3c1.7-4.9,3.9-9.6,6.5-13.9
				c-3,9.7-5.2,19.6-6.2,29.6c-0.6,4.9-0.8,10-0.7,14.9c0,4.9,0.3,10,0.7,14.9s1.1,9.9,2.1,14.8c0.8,4.9,2,9.9,3.2,14.6
				C-164.1,140.8-161,150.3-157.2,159.8z"/>
		</g>
		<g>
			<path class="st36" d="M101.9,117.5c0-3.1,0-6.2-0.1-9.3c-0.1-3.1-0.3-6.1-0.7-9l-0.3-2.3l-0.4-2.3c-0.3-1.5-0.6-3-1-4.4
				c-0.7-3-1.8-5.8-3-8.7c2.1,2.4,3.8,5.1,5.1,8c1.1,3,2,6.1,2.4,9.1c0.4,3.1,0.4,6.3,0.1,9.4C103.8,111.5,103.1,114.6,101.9,117.5z
				"/>
		</g>
		<g>
			<path class="st36" d="M65.8,159.1c2-3.8,3.1-7.7,3.9-11.7c0.8-3.9,1.4-8,1.5-12.1l0.1-3.1v-3.1c0.1-2.1-0.1-4.1-0.1-6.2
				c-0.1-2.1-0.3-4.1-0.4-6.2c-0.1-2.1-0.4-4.1-0.6-6.2c0.7,2,1.3,3.9,2,6.1c0.4,2.1,1,4.1,1.3,6.2c0.6,4.2,0.8,8.4,0.7,12.7
				c-0.3,4.2-1,8.4-2.3,12.5C70.6,152,68.7,156,65.8,159.1z"/>
		</g>
		<path class="st36" d="M-75.8,180.6c0,0-29.6-44.9-12.1-113.4c0,0-23.6,51.8-7.2,109.9"/>
		<g>
			<path class="st36" d="M-108.3,117.7c-1.4-2.8-2.3-5.9-2.8-9c-0.6-3.1-0.7-6.3-0.7-9.4c0.1-3.2,0.7-6.3,1.7-9.4
				c0.8-3.1,2.4-5.9,4.4-8.4c-0.8,3.1-1.7,5.9-2.3,8.9c-0.3,1.5-0.4,3-0.6,4.5l-0.3,2.3l-0.1,2.3c-0.1,3-0.1,6.1,0,9.1
				S-108.6,114.6-108.3,117.7z"/>
		</g>
		<g>
			<path class="st36" d="M-68.8,156c-3.1-2.8-5.3-6.6-7-10.6c-1.7-3.9-2.7-8.2-3.4-12.2c-0.6-4.2-0.7-8.4-0.4-12.7
				c0.1-2.1,0.4-4.2,0.7-6.3c0.4-2.1,0.8-4.1,1.4-6.2c0,2.1,0,4.2,0,6.3s0,4.1,0.1,6.2c0.1,2.1,0.1,4.1,0.3,6.2l0.3,3.1l0.4,3.1
				c0.6,4.1,1.4,8,2.5,12C-72.6,148.5-71,152.5-68.8,156z"/>
		</g>
		<path class="st38" d="M79.6,396.5c0,0-23.4-2.4-31.1,18.7c-7.7,21.1,3,29.6,3,29.6"/>
		<path class="st45" d="M-163.2,179.5h10.3l1.5,7.7c33.2,6.9,152.7,8.2,152.7,8.2v-3.8L1,169.2c-11.7-4.6-167.2,5.6-167.2,5.6"/>
		<path class="st46" d="M-68.9,169.5c0,0-27.3-41.8-19-102.3c0,0-17.2,55.6-4.9,86.3l4.5,17"/>
		<path class="st45" d="M-150.7,174c0,0-41.2-70.7-7-155.7l-20.1,14.9l-12.9,27.3l-0.6,41.7l7,45.3l12.5,28.1l14.6,4.9"/>
		<path class="st47" d="M-104.5,201.2c0,0,23.6,4.4,42.6-6.9c0,0,6.9,18.7-17.2,30.4"/>
		<path class="st48" d="M-4.9,361c0,0-0.6,16.9-7.5,15.5C-19.2,375.1-4.9,361-4.9,361z"/>
		<ellipse class="st49" cx="59.4" cy="430.6" rx="3.2" ry="5.5"/>
		
			<ellipse transform="matrix(0.9833 -0.1818 0.1818 0.9833 -76.6576 19.1911)" class="st49" cx="66.3" cy="427.7" rx="1.8" ry="3.1"/>
		<ellipse class="st49" cx="-18.2" cy="460.8" rx="3.2" ry="5.5"/>
		
			<ellipse transform="matrix(0.9833 -0.1818 0.1818 0.9833 -83.4284 5.5649)" class="st49" cx="-11.4" cy="457.8" rx="1.8" ry="3.1"/>
		<ellipse class="st50" cx="70.4" cy="405.7" rx="5.2" ry="3"/>
		<ellipse class="st50" cx="-27" cy="441.5" rx="5.2" ry="3"/>
		<ellipse class="st14" cx="-37.8" cy="111.2" rx="8.2" ry="13.7"/>
		<ellipse class="st14" cx="-25.6" cy="128" rx="4.1" ry="6.8"/>
		<ellipse class="st14" cx="-143.9" cy="54.2" rx="6.8" ry="15.3"/>
		<ellipse class="st14" cx="-128.7" cy="58.7" rx="5.1" ry="8.6"/>
		<ellipse class="st23" cx="-13.7" cy="316.3" rx="4.4" ry="7.2"/>
		<ellipse class="st23" cx="-16.7" cy="301.8" rx="2.7" ry="4.5"/>
		<ellipse class="st23" cx="-127.6" cy="153.9" rx="9.4" ry="15.9"/>
		<ellipse class="st23" cx="-143.9" cy="164.4" rx="4.4" ry="7.2"/>
	</g>
</g>
</svg>
