<?xml version="1.0" encoding="utf-8"?>
<!-- Generator: Adobe Illustrator 24.1.1, SVG Export Plug-In . SVG Version: 6.00 Build 0)  -->
<svg version="1.1" id="Capa_1" xmlns="http://www.w3.org/2000/svg" xmlns:xlink="http://www.w3.org/1999/xlink" x="0px" y="0px"
	 viewBox="0 0 390 700" style="enable-background:new 0 0 390 700;" xml:space="preserve">
<style type="text/css">
	.Sombra_x0020_paralela{fill:none;}
	.Resplandor_x0020_externo_x0020_5_x0020_pt_x002E_{fill:none;}
	.Neón_x0020_azul{fill:none;stroke:#8AACDA;stroke-width:7;stroke-linecap:round;stroke-linejoin:round;}
	.Resalte_x0020_cromado{fill:url(#SVGID_1_);stroke:#FFFFFF;stroke-width:0.3629;stroke-miterlimit:1;}
	.A_x0020_todo_x0020_ritmo_GS{fill:#FFDD00;}
	.Alyssa_GS{fill:#A6D0E4;}
	.st0{fill:#6B982B;}
	.st1{fill:#366B2B;}
	.st2{fill:#002E16;}
	.st3{opacity:0.49;fill:#002E16;enable-background:new    ;}
	.st4{opacity:0.56;fill:#002E16;enable-background:new    ;}
	.st5{opacity:0.5;fill:#001F16;enable-background:new    ;}
	.st6{opacity:0.53;fill:#001F16;enable-background:new    ;}
	.st7{opacity:0.68;fill:#001F16;enable-background:new    ;}
	.st8{opacity:0.71;fill:#001F16;enable-background:new    ;}
	.st9{fill:#FFB400;}
	.st10{fill:#751E1E;}
	.st11{fill:#407710;}
	.st12{fill:#B11A00;}
	.st13{fill:#FFFFFF;}
	.st14{opacity:0.24;fill:#FFFFFF;enable-background:new    ;}
	.st15{opacity:0.74;fill:#430000;enable-background:new    ;}
	.st16{fill:#430000;}
	.st17{fill:#606060;}
	.st18{opacity:0.33;enable-background:new    ;}
	.st19{opacity:0.44;fill:#6A0000;enable-background:new    ;}
	.st20{opacity:0.35;fill:#FFFFFF;enable-background:new    ;}
	.st21{opacity:0.61;fill:#FFFFFF;enable-background:new    ;}
	.st22{opacity:0.19;fill:#FFFFFF;enable-background:new    ;}
	.st23{opacity:0.24;enable-background:new    ;}
	.st24{opacity:0.26;enable-background:new    ;}
	.st25{opacity:0.28;enable-background:new    ;}
	.st26{opacity:0.39;fill:#6A0000;enable-background:new    ;}
	.st27{opacity:0.42;fill:#6A0000;enable-background:new    ;}
	.st28{opacity:0.47;fill:#6A0000;enable-background:new    ;}
	.st29{opacity:0.43;fill:#6A0000;enable-background:new    ;}
	.st30{opacity:0.42;enable-background:new    ;}
	.st31{opacity:0.25;enable-background:new    ;}
	.st32{opacity:0.35;fill:#6A0000;enable-background:new    ;}
	.st33{opacity:0.44;}
	.st34{fill:#6A0000;}
	.st35{fill:#520000;}
	.st36{fill:#020202;}
	.st37{fill:none;stroke:#020202;stroke-width:2.9022;stroke-miterlimit:10;}
	.st38{fill:none;stroke:#020202;stroke-width:5.8043;stroke-miterlimit:10;}
	.st39{fill:none;stroke:#020202;stroke-width:4.353;stroke-miterlimit:9.9995;}
	.st40{fill:none;stroke:#020202;stroke-width:4.3532;stroke-miterlimit:10;}
	.st41{fill:none;stroke:#020202;stroke-width:3.9953;stroke-miterlimit:10;}
	.st42{fill:#020202;stroke:#020202;stroke-width:4.5027;stroke-miterlimit:10;}
	.st43{fill:none;stroke:#020202;stroke-width:4.5027;stroke-miterlimit:10;}
	.st44{fill:none;stroke:#020202;stroke-width:4.8942;stroke-miterlimit:10;}
	.st45{opacity:0.54;fill:#001F16;enable-background:new    ;}
	.st46{opacity:0.61;fill:#001F16;enable-background:new    ;}
	.st47{opacity:0.49;fill:#001F16;enable-background:new    ;}
	.st48{opacity:0.6;fill:#001F16;enable-background:new    ;}
	.st49{opacity:0.53;enable-background:new    ;}
	.st50{opacity:0.38;fill:#FFFFFF;enable-background:new    ;}
</style>
<linearGradient id="SVGID_1_" gradientUnits="userSpaceOnUse" x1="0" y1="0" x2="6.123234e-17" y2="-1">
	<stop  offset="0" style="stop-color:#656565"/>
	<stop  offset="0.618" style="stop-color:#1B1B1B"/>
	<stop  offset="0.6292" style="stop-color:#545454"/>
	<stop  offset="0.9831" style="stop-color:#3E3E3E"/>
</linearGradient>
<g id="Capa_1_1_">
	<g>
		<path class="st0" d="M0.3,573.3V171.1h-159.5l4.4,38.2c0,0,5.5,36.9,1.2,44.7c-4.4,7.8,29.6,45.9,31.1,51.1
			c1.6,5.2,11.5,34.7,10.9,48.3c-0.4,13.6,13.2,39.6,34.5,66.7c0,0,9.7,26,9.9,40.3c0,14.4,31.2,44.1,31.2,44.1l21.2,52.7L0.3,573.3
			z"/>
		<path class="st1" d="M2.2,15.1c0,0-47.5,1.3-72.8,12.9s-1.3-1.6-1.3-1.6s-73.7-17.4-91-6.2s-30.8,13.2-34.7,67.8
			c-3.9,54.4,13.3,90.7,26.8,98.8l19.4-2c0,0,51.8,8.6,64.1,0.9l25.2,5.9l42.1,5.8l24.7,2.5"/>
		<polyline class="st1" points="-115.1,190.8 -87.5,182.5 -64.9,191 -64.9,209.2 -79.2,221.6 -92.2,224.6 -108.8,209.5 		"/>
		<path class="st1" d="M-100.1,387c0,0-11.9-36.1-14.8-51.4c0,0-14.7,2.6-10,21.5C-120.3,376.1-112.8,403.8-100.1,387z"/>
		<polyline class="st1" points="-28.9,491.9 -17.9,492.2 -9.3,485.4 -6.1,471.3 -11,458.3 -28.9,448.2 -37.7,453.8 -43.7,466.4 
			-41.1,480.5 		"/>
		<path class="st2" d="M-20.9,361.5c0,0-24.8,13.3-51.2-0.7s-31.8-92-29.9-100.7c0,0,41.6,5.5,64.1,53.8S-20.9,361.5-20.9,361.5z"/>
		<path class="st1" d="M-96.8,22.2c0,0-5.5,28.4-3.3,28.4c2.2,0,47.5,3.2,47.5,3.2l-8.6-31.6L-72,26.6"/>
		<path class="st3" d="M0.3,549.2c0,0-28.7-38.5-31.6-47.9c-0.3-1-0.9-1.9-1.7-2.6c-5.7-5.2-26-24.8-28.7-43.8
			c-2.8-18.6-10-52.1-22.3-61.8c-5.8-4.6-10.4-10.7-12.5-18c-5.8-20.6-15.2-55.9-14.2-64.6c1.5-12.6-26.3-50.5-31.5-50.5
			c-4.2-0.1-3.3-51.1-2.9-68.5c0.1-3.2-2.5-5.8-5.7-5.9l0,0c-3.5-0.1-6.2,2.9-5.9,6.4l4.1,35.7c0,0.3,0,0.4,0,0.7l-0.3,29.9
			c0,1.2,0.3,2.3,1,3.2l29.7,44.7c0.4,0.6,0.7,1.3,0.9,2l8.3,38l9.7,35.7c0.1,0.7,0.4,1.3,0.9,1.9l21.5,30.5
			c0.1,0.3,0.3,0.4,0.4,0.7l7.4,14.4c0.3,0.6,0.4,1,0.6,1.6l5.4,29c0,0.3,0.1,0.6,0.1,0.9l5.5,16.3c0.3,0.7,0.6,1.3,1.2,1.9
			l13.2,15.4l10.7,11.3c0.6,0.6,1,1.2,1.2,1.9l11,28.9c0,0.1,0.1,0.3,0.3,0.6l11.9,23.9c0.3,0.6,0.7,1.2,1.2,1.6l11.2,10.7"/>
		<path class="st4" d="M0,420.5c0,0-23.9,6.7-33.5,15.5c-9.4,8.7-14.8-12.3-14.8-12.3s-7.7,25.8,14.9,19.2c0,0,31.2-13.9,33.7-5.8"
			/>
		<path class="st5" d="M-67.2,377c37.3,9,50.1-16,50.1-16c-79.1-5.7-84.7-101-84.7-101c-19.4-0.3-19.4,1.9-19.4,1.9
			c3.5,24.1,21.3,77.1,33.4,98.7l0,0C-83.7,368.7-76.2,374.8-67.2,377z"/>
		<path class="st6" d="M-25.1,241.9c0,0,9.6,15.1,11.3,29.7c1.2,10.6-11.2,17.6-19.7,11.2c-25.2-18.4-81.1-54.4-105.6-29l10.3-23.9
			l46.3,3.8l50.9,31.9l6.7-10"/>
		<path class="st7" d="M-40.1,458.5c0,0,2,32.6,30.8,26.8c0,0-2.8,13.5-9.4,16.1S-54.6,491.8-40.1,458.5z"/>
		<path class="st8" d="M-105.1,391.5c0,0-17.3-28-16.1-53.7l6.2-3c0,0,10.7,46.1,14.9,52.1"/>
		<path class="st9" d="M0.3,571V198.7c0,0,75.7,0.1,90.4-12.6c0,0,49.3,1.7,58.9-9.3c0,0,6.4,35.8-9,53.1s-2.2,37.3-2.2,37.3
			L105.3,321l-19.2,55.7L86,399.3l-4.9,12.3l-33.4,50.2l-3.3,18.4l1.6,7.3l-5.5,19.9l-18.9,36.7L-1.6,572"/>
		<path class="st10" d="M0.3,15.1v184.7c0,0,89.4,3.5,90.4-23.1c0,0-8.1,9.7,7.7,9.3s60.8-10.4,60.8-10.4l16.5-11.8
			c0,0,34.1-34.7,9.6-122.9c0,0-10.6-50.4-100.4-22.1l-26.7,7.5C58.3,26.6,16.8,12,0.3,15.1z"/>
		<polyline class="st11" points="11.9,506.4 21.9,506.4 31.5,470.9 21.9,470.9 		"/>
		<polyline class="st11" points="19.3,377.3 25.7,371.5 16.2,351.2 9.7,355.5 		"/>
		<path class="st12" d="M49.6,458.1c0,0,23.2,12.8,34.4-21.8c11.2-34.7-20.6-22.5-20.6-22.5s-12.5,9.6-14.4,16.5
			C46.9,437.1,44.2,449.5,49.6,458.1z"/>
		<path class="st12" d="M70.4,267.1l43.1-11.5c0,0-10.6-13.9-26.3-11.5"/>
		<path class="st12" d="M86.3,247.1c0,0-18,7.1-20,30.2"/>
		<path class="st13" d="M31.5,353.2c0,0,15.4,29.9,35.3,28.9s39.9-57,39.9-57l17.7-71.1l-74.7,20.5L31.5,353.2z"/>
		<path class="st13" d="M0.3,403.3c0,0,26-3.2,38-10c0,0-5.4,37.4-38,43.8"/>
		<ellipse class="st14" cx="125.9" cy="33.1" rx="11" ry="9.1"/>
		<path class="st15" d="M107.8,183.7c0,0,0.3-95-28.3-110.4c0,0,30.8,84,5.1,113.8"/>
		<path class="st16" d="M149.3,174.6c0,0,61.2-89.7,2.9-164.4c0,0,26.1,8.9,33.2,30.6c7.1,21.8,16.5,62.8,5.5,90
			c-11,27.1-21.6,35.4-25.2,41.5"/>
		<path class="st16" d="M0,176.7c0,0,117.5,14.5,145.5,0c0,0-38.7,15.4-60.8,10.4c-22.1-4.9,0,0,0,0l-24.2,7.4l-60.1,3.8"/>
		<path class="st17" d="M36.8,396.7"/>
		<path class="st18" d="M0.3,415.2c0,0,23.7,2.8,35.1-11c0,0-4.6,31.1-35.1,33.1"/>
		<path class="st19" d="M4.6,247.7c0,0-10.9,31.3,5.1,39.2s59.6-56,81-50.2s35.3,17,35.3,17s-16.7-39.9-39.6-28.9
			c-22.9,11.2-67.8,41.1-67.8,41.1"/>
		<ellipse class="st20" cx="-82.1" cy="282.8" rx="10" ry="8.4"/>
		<circle class="st21" cx="-82.6" cy="281.8" r="5.1"/>
		<ellipse class="st20" cx="-65.2" cy="293.1" rx="3.2" ry="2.8"/>
		<circle class="st21" cx="-65.3" cy="292.7" r="1.6"/>
		<path class="st22" d="M-189.7,45.7c0,0,16-27.1,36.6-27.9c20.6-0.7,82.3,10.3,82.3,10.3S-12.2,0,58.3,26.6c0,0,67-20.9,82.6-17.3
			s31.5,6.2,38.9,22.3c0,0-38-3.9-66.3,4.1c0,0-52.2,15.8-91.1,4.9c-6.4-1.7-13.1-2.5-19.7-2.5h-7.5c-8.3,0-16.4,1.3-24.2,3.9
			c-17.8,5.8-55.1,15.1-86,2.3c-4.5-1.9-9.1-3-13.9-3.8C-144.4,38.6-174.6,36-189.7,45.7z"/>
		<path class="st23" d="M-187.5,166.9c0,0,8.7,26.7,30,18.4s8,14.8,70.1,0.3c0,0,113.9,31.2,178,0.4c0,0,51.7,0.6,60.4-9.3
			c0,0,17.7-4.5,24.7-9.9L128,174c-12.5,1.9-25.1,2.2-37.7,1.2l-78.4-7c-9-0.7-18-0.9-26.8-0.1l-91.4,7.3c-12.6,1-25.2,0.6-37.7-1.5
			L-187.5,166.9z"/>
		<path class="st18" d="M-155.9,202.4c0,0,244.9,27.4,306.8-3.8l0.1-22.1c0,0-97.7,18.3-152.5,18.3c-54.9,0.1-95.3-8.7-156-9.7"/>
		<path class="st19" d="M0.3,313.6c0,0,26.8,83.9,85.8,79.7l0.1-16.5c0,0-18.6,16.4-43.5-4.5L0.3,290.4"/>
		<path class="st24" d="M51.9,424.9c0,0-5.5,40.6,29.2,12.2c0,0-2.2,23.7-29.2,23.7C51.9,460.7,41.1,450.9,51.9,424.9z"/>
		<polyline class="st25" points="74.3,258.1 105,251.9 113.5,255.7 70.4,267.1 		"/>
		<path class="st19" d="M0.3,549.2c0,0,41.4-42.2,42.8-83.9l2.9,22.2c0,0-12.3,57.9-45.7,83.4"/>
		<path class="st26" d="M67,410.8c0,0,10.9-9.3,10.9-28.7l8.3-5.4c0,0-0.3,26.1-5.1,34.2"/>
		<path class="st27" d="M132.3,251.9c0,0,25.2-54.4,18.9-75.2c0,0-16.4,9.1-19.4,6.5c-3-2.6,5.2,27.9-10,72.3"/>
		<path class="st27" d="M0.3,437.1c0,0,28.9-0.4,38-43.8c0,0,4.8,51.1-38,67.5"/>
		<polygon class="st28" points="27.1,371.5 28.6,377.3 17.7,386 13.8,378 4.6,357.8 9.7,354.1 19,376.7 		"/>
		<polygon class="st29" points="10.4,506.4 8.4,514.1 23.2,512.4 36.8,469.3 31.9,469.3 23.2,506.4 		"/>
		<ellipse class="st18" cx="132.3" cy="156.9" rx="9.6" ry="14.9"/>
		<circle class="st18" cx="145.5" cy="136.5" r="5.7"/>
		<ellipse class="st22" cx="30.6" cy="73.4" rx="15.4" ry="19.6"/>
		<ellipse class="st22" cx="54.7" cy="89.2" rx="5.7" ry="9.4"/>
		<ellipse class="st30" cx="30.5" cy="182.5" rx="12.8" ry="15.7"/>
		<ellipse class="st31" cx="15.7" cy="154.3" rx="5.9" ry="11.9"/>
		<path class="st32" d="M0.3,198.7v4.9c0,0,72.7,8.4,150.9-15.2v-11.6"/>
		<g class="st33">
			<path class="st34" d="M38.3,442.9c0.6,1.9,0.9,3.8,1.2,5.7c0.1,1.9,0.1,3.8,0,5.7c-0.3,1.9-0.6,3.8-1.6,5.8
				c-0.3,0.4-0.6,1-1.3,1.5c-0.1,0.1-0.4,0.1-0.6,0.3c-0.1,0-0.4,0-0.6,0c-0.4,0-0.7-0.1-1-0.4c-1-0.7-1.3-1.7-1.6-2.6
				c0.7,0.6,1.6,1.3,2.2,1.5c0.3,0,0.4,0,0.4-0.1c0.1-0.1,0.3-0.4,0.3-0.9c0.4-1.5,0.6-3.3,0.7-5.1s0.4-3.6,0.7-5.4
				C37.4,446.5,37.7,444.6,38.3,442.9z"/>
		</g>
		<g class="st33">
			<path class="st34" d="M32.8,454.9c0.6,1.9,0.7,3.8,0.6,5.7c-0.1,1-0.3,1.9-0.9,2.9c-0.1,0.3-0.3,0.4-0.6,0.7s-0.9,0.1-1.2,0
				c-0.4-0.4-0.6-0.9-0.7-1.3c0.4,0.3,0.7,0.6,1.2,0.7c0.1,0,0.1,0,0.1-0.1c0-0.1,0.1-0.3,0.1-0.4c0.1-0.7,0.3-1.6,0.4-2.6
				C32.2,458.7,32.3,456.8,32.8,454.9z"/>
		</g>
		<g class="st33">
			<path class="st34" d="M34.7,212.7c0.7,2.6,1,5.4,1.2,8c0.1,2.6,0.1,5.4-0.1,8.1c-0.3,2.8-0.7,5.4-2.2,8.1
				c-0.3,0.6-0.9,1.3-1.6,1.9c-0.3,0.1-0.4,0.3-0.7,0.3s-0.6,0-0.7,0.1c-0.4,0-1-0.1-1.3-0.4c-1.3-1-1.9-2.3-2.3-3.5
				c1,0.9,2,1.9,3,2.2c0.6,0.1,0.7,0.1,1-0.1c0.3-0.3,0.6-0.7,0.7-1.3c0.7-2.2,1-4.8,1.3-7.4C33.4,223.3,33.7,218,34.7,212.7z"/>
		</g>
		<g class="st33">
			<path class="st34" d="M26.8,230c0.6,1.3,0.9,2.6,1.2,4.1c0.1,1.3,0.1,2.8,0,4.1c-0.1,1.5-0.4,2.8-1.3,4.2c-0.1,0.3-0.6,0.7-1,1
				c-0.3,0.1-0.6,0.3-1,0.3c-0.3,0-0.6-0.1-0.9-0.3c-0.7-0.7-0.9-1.3-1-2c0.6,0.3,1.2,0.7,1.7,0.9c0.3,0,0.1-0.1,0-0.1
				c0-0.1,0-0.3,0.1-0.6c0.1-1,0.3-2.3,0.4-3.5c0.1-1.3,0.3-2.6,0.6-3.8C26,232.6,26.3,231.3,26.8,230z"/>
		</g>
		<g>
			<path class="st35" d="M160,43.7c2.9,5.7,4.6,11.8,5.8,18c1.2,6.2,1.7,12.6,1.6,18.9c-0.1,6.4-0.6,12.6-1.9,18.9
				c-0.6,3-1.5,6.1-2.3,9.1c-0.9,3-2,5.9-3.3,8.9c0-3.2,0.3-6.2,0.4-9.4c0.1-3,0.4-6.2,0.6-9.3c0.4-6.1,0.4-12.2,0.6-18.3
				c0-6.1-0.1-12.2-0.3-18.3C161.1,56.2,160.6,49.9,160,43.7z"/>
		</g>
		<path class="st36" d="M101.7,327.7l-15.8,2.5l-4.8-2.5l-5.7,8l-5.9,15.5l-5.1,16.5l-2.2,9.6v5.4c0,0,53.1,7.1,69.1-106.8l24.8-8.6
			l-4.2-19.6L119,258.1c0,0-13.9,61.1-28.3,77.5"/>
		<path class="st36" d="M36.3,359.3c0,0,16.7-57.9,22.3-58.5c5.7-0.6,8.1,0.6,8.1,0.6s12.5,1.6,21.8-39.6L0.3,284.4
			C0.3,284.4,16.8,334.2,36.3,359.3z"/>
		<path class="st37" d="M62.4,377.3c0,0-20.2-16-25.5-26.1"/>
		<g>
			<path class="st36" d="M54.5,362.9c-2.8-1.5-5.4-3.2-7.8-5.1c-2.5-1.9-4.8-3.9-7-5.9c-2.2-2.2-4.4-4.4-6.2-7
				c-1.9-2.5-3.6-5.1-4.5-8.1c1.9,2.5,4.1,4.5,6.2,6.7c2.2,2.2,4.4,4.2,6.5,6.4C46,354.1,50.5,358.3,54.5,362.9z"/>
		</g>
		<line class="st37" x1="81" y1="271.5" x2="124.2" y2="260"/>
		<g>
			<path class="st36" d="M100.3,271.5c2.9-1.2,5.7-2,8.6-2.9c2.9-0.9,5.8-1.6,8.7-2.3c2.9-0.7,5.9-1.3,8.9-1.9c3-0.6,5.9-1,9-1.3
				c-2.9,1.2-5.7,2-8.6,3c-2.9,0.9-5.8,1.6-8.7,2.3c-2.9,0.7-5.9,1.3-8.9,1.9C106.2,270.8,103.3,271.2,100.3,271.5z"/>
		</g>
		<g>
			<path class="st36" d="M-37.7,470.9c0.7,2.2,1.6,4.1,2.5,5.9c1,1.7,2.2,3.3,3.6,4.6c1.5,1.2,3.2,2.2,5.2,2.6l0.7,0.3l0.7,0.1
				l1.6,0.3c1,0.1,2.2,0.1,3.3,0.3c-1,0.4-2.2,0.9-3.2,1l-1.7,0.1c-0.3,0-0.6,0-0.9,0h-0.9c-2.3,0-4.8-1-6.7-2.6
				c-1.9-1.6-3.2-3.8-3.9-5.9C-37.9,475.5-38.2,473.1-37.7,470.9z"/>
		</g>
		<g>
			<path class="st36" d="M51.9,447.2c1.3,2.2,2.9,4.2,4.8,4.9c1.9,0.7,4.1,0.1,6.1-0.7c2-1,4.1-2.5,5.9-3.9s3.9-3,5.9-4.6
				c-1.2,2.3-2.6,4.4-4.5,6.2c-1.7,1.9-3.8,3.6-6.2,4.8c-1.3,0.6-2.6,1-4.1,1.2c-1.5,0.1-3-0.1-4.4-1c-1.3-0.7-2.2-1.9-2.8-3
				C52.4,449.7,51.9,448.5,51.9,447.2z"/>
		</g>
		<g>
			<path class="st36" d="M-103,207.8c2.6,2.2,5.4,4.1,8.3,5.5c2.9,1.3,5.9,2.2,8.9,1.5c2.9-0.4,5.5-2.3,7.7-4.6
				c2.3-2.3,4.2-5.1,6.2-7.8c-0.9,3.3-2.3,6.5-4.4,9.3c-1,1.5-2.3,2.8-3.8,3.8c-1.5,1-3.3,1.9-5.1,2.2c-1.9,0.3-3.8,0.3-5.7-0.1
				c-1.7-0.4-3.5-1.3-4.9-2.2C-99,213.5-101.3,210.8-103,207.8z"/>
		</g>
		<path class="st38" d="M0.3,573.3c0,0,44.8-51.2,45.7-92.3c0,0-4.6-24.4,9.6-20.2c14.9,4.4,39.8-25,25.5-49.8c0,0,8.6-7.7,5.1-34.2
			c0,0,44.4-44.4,45.3-100.8l24.8-8.6l-4.2-19.6l-19.6,4.2c0,0,5.1-19.6,12.8-29c7.7-9.4,5.9-46.1,5.9-46.1s40.2,4.2,43.5-81.3
			c3.3-85.6-53.8-86.3-53.8-86.3s-20.2-1.7-82.6,17.1c0,0-55.4-26.6-129,1.6c0,0-52.7-13.3-75.6-11.2c-21,2-58,9.4-50.4,99.1
			s37.6,69.5,37.6,69.5s10.3,45,5.9,64.6c-4.2,19.6,28.2,41.9,34.2,65.4c5.9,23.5,7.7,61.1,26.6,82.4c18.9,21.3,23.1,38.5,23.1,50.4
			c0,11.9,10.3,35.8,26.6,48.8C-26.7,510.1-26.6,556.2,0.3,573.3z"/>
		<path class="st38" d="M-159.1,183.3c0,0,49.6,10.3,71.8,2.3c0,0,97.4,29.5,182.8,0c0,0,29.7,3.6,54.1-8.9"/>
		<path class="st38" d="M86.2,376.7c0,0-27.3,24.8-56.4-26.6c-18-31.6-25-49.3-27.7-58.2c-1.3-4.1,1.2-8.4,5.4-9.4l124.9-30.8"/>
		<g>
			<path class="st36" d="M0.7,432.9c0.3,0,1,0.1,1.5,0.1c0.6,0,1.2,0,1.7,0s1.2-0.1,1.7-0.1s1.2-0.1,1.7-0.3l1.7-0.4l1.7-0.6
				c1.2-0.3,2.2-0.9,3.3-1.3c4.4-2.2,8.1-5.4,11.3-9.3l1.2-1.5c0.4-0.4,0.7-1,1.2-1.6l2-3.2c0.7-1,1.2-2.2,1.7-3.3
				c0.6-1.2,1.2-2.3,1.7-3.5c0.9-2.5,1.9-4.8,2.8-7.3l2.2-7.4l-1.5,7.7c-0.6,2.5-1.5,5.1-2.2,7.5c-0.4,1.2-1,2.5-1.5,3.6
				c-0.6,1.2-0.9,2.5-1.6,3.6l-1.9,3.5c-0.3,0.6-0.6,1.2-1,1.7l-1.2,1.6c-3,4.4-6.8,8.4-11.6,11.3c-1.2,0.7-2.3,1.5-3.6,1.9l-1.7,1
				l-2,0.6c-0.7,0.3-1.3,0.4-2,0.6s-1.5,0.3-2,0.4c-0.7,0.1-1.5,0.1-2.2,0.3c-0.7,0-1.5,0.1-2.3,0L0.7,432.9z"/>
		</g>
		<g>
			<path class="st36" d="M0.1,400.4c3.6,0,7.4-0.3,11.2-0.7s7.4-0.9,11.2-1.6c3.6-0.7,7.4-1.6,10.9-2.8c3.5-1.2,7-2.8,10.2-4.8
				c-2.9,2.5-6.2,4.5-9.6,6.2c-3.5,1.7-7.1,3-10.7,4.2c-3.6,1.2-7.4,2.2-11.2,3c-3.8,0.9-7.5,1.6-11.5,2.2L0.1,400.4z"/>
		</g>
		<g>
			<path class="st36" d="M35.4,382.6c2.2-1.5,4.8-2.2,7.5-2.2c2.8,0,5.8,0.9,8,3.2c1,1.2,1.9,2.6,2.2,3.9c0.4,1.5,0.6,2.9,0.4,4.2
				c-0.1,2.8-1,5.2-2.5,7.4c-0.3-2.6-0.4-5.1-0.9-7.3s-1.2-4.1-2.5-5.4c-1.2-1.3-3-2.2-5.2-2.8C40.3,383.4,38,383.1,35.4,382.6z"/>
		</g>
		<polygon class="st37" points="21.9,506.4 31.5,470.9 21.9,470.9 11.9,506.4 		"/>
		<polygon class="st37" points="16.2,351.2 25.7,371.5 19.3,377.3 9.7,355.5 		"/>
		<g>
			<path class="st36" d="M120.1,183.6c0.3,0.1,0.3,0.3,0.4,0.3c0.1,0.1,0.1,0.1,0.3,0.3c0.1,0.1,0.3,0.3,0.4,0.4
				c0.3,0.3,0.4,0.7,0.6,1c0.4,0.6,0.7,1.3,0.9,1.9c0.6,1.3,0.9,2.6,1.2,3.9c0.6,2.6,0.7,5.1,0.9,7.7c0.1,2.5,0.1,5.1,0,7.5
				c-0.1,2.5-0.3,4.9-0.6,7.4c-0.1-2.5-0.3-4.9-0.6-7.4c-0.3-2.5-0.6-4.9-1-7.3c-0.4-2.3-1-4.8-1.9-7c-0.4-1.2-0.9-2.2-1.5-3.2
				c-0.3-0.4-0.6-0.9-0.9-1.3c-0.1-0.1-0.3-0.4-0.4-0.6c-0.1-0.1-0.1-0.1-0.1-0.1l0,0c0,0,0,0,0.1,0L120.1,183.6z"/>
		</g>
		<g>
			<path class="st36" d="M111.1,184.3c0.3,0.3,0.3,0.3,0.3,0.3c0.1,0.1,0.1,0.1,0.1,0.1c0.1,0.1,0.1,0.3,0.3,0.3
				c0.1,0.3,0.1,0.4,0.3,0.6c0.1,0.3,0.3,0.7,0.4,1c0.1,0.7,0.3,1.3,0.4,1.9c0.3,1.3,0.3,2.5,0.4,3.8c0.1,2.5,0.1,4.9,0.1,7.3
				c-0.6-2.3-1.3-4.6-2.2-6.8c-0.4-1.2-0.9-2.2-1.5-3.2c-0.3-0.4-0.6-1-0.9-1.5c-0.1-0.1-0.3-0.4-0.4-0.6l-0.1-0.1l0,0l0,0
				c0,0,0,0,0.1,0.1L111.1,184.3z"/>
		</g>
		<g>
			<path class="st36" d="M-135.3,189.8c-0.1,0-0.4,0.1-0.7,0.1c-0.3,0.1-0.6,0.3-0.7,0.4c-0.4,0.3-1,0.6-1.5,1
				c-0.9,0.7-1.7,1.9-2.3,3c-0.6,1.2-1,2.5-1.2,3.9c-0.1,0.7-0.1,1.5-0.1,2v2.2l-0.6-2c-0.1-0.7-0.3-1.5-0.3-2.2
				c-0.1-1.5-0.1-3,0.3-4.5c0.3-1.5,1-3,1.9-4.4c0.4-0.7,1-1.3,1.6-1.9c0.7-0.6,1.2-1.2,2.2-1.6L-135.3,189.8z"/>
		</g>
		<g>
			<path class="st36" d="M-124.2,189.1c-1.7,1.5-3.3,3.2-4.8,5.1c-1.5,1.9-2.8,3.9-3.8,5.9c-1.2,2.2-1.9,4.4-2.5,6.7
				c-0.6,2.3-0.7,4.8-0.7,7.3c-0.3-2.5-0.4-4.9,0-7.3c0.3-2.5,0.9-4.8,1.9-7.1c0.9-2.3,2-4.5,3.3-6.7c1.3-2.2,2.8-4.1,4.6-5.9
				L-124.2,189.1z"/>
		</g>
		<g>
			<path class="st36" d="M-138,263.5c13.6-5.1,28.9-5.8,43.4-2.9c7.3,1.6,14.2,4.2,20.9,7.8c6.5,3.6,12.5,8.1,17.8,13.3l2,1.9
				c0.6,0.7,1.3,1.3,1.9,2c1.2,1.5,2.6,2.8,3.8,4.2l3.5,4.4c1.2,1.5,2.2,3,3.2,4.6c2.2,3,3.9,6.2,5.8,9.4c1,1.6,1.7,3.3,2.6,4.9
				l2.5,4.9c6.1,13.5,10.4,27.6,13.8,41.9l0.6,2.3l-2.2,1c-1.7,0.9-3.3,1.6-4.9,2.2c-1.6,0.6-3.3,1.2-5.1,1.7
				c-3.3,1-6.8,1.9-10.4,2.3c-7.1,1-14.5,1-21.5-1c-7-1.9-13.6-5.7-18.9-10.6c-5.4-4.9-9.1-11-12.2-17.4l-1.2-2.3l-1-2.5
				c-0.6-1.6-1.3-3.2-1.9-4.9c-1-3.3-2.2-6.7-2.8-10l-1.2-5.1c-0.3-1.7-0.6-3.3-0.9-5.1c-0.3-1.7-0.6-3.3-0.7-5.1l-0.6-5.1
				c-1.3-13.6-1.2-27.4-0.3-40.9c0.4,13.6,1.2,27.3,3.3,40.6l0.7,5.1c0.3,1.6,0.7,3.3,1,4.9c0.3,1.6,0.7,3.3,1,4.9l1.3,4.8
				c0.4,1.6,0.9,3.2,1.5,4.8l1.6,4.8c0.6,1.6,1.3,3,1.9,4.6l1,2.3l1.2,2.2c3,5.8,6.8,11.2,11.6,15.5c4.8,4.4,10.4,7.4,16.7,8.9
				c12.3,3,26.1,0.4,37.4-5.1l-1.6,3.5c-3.2-13.9-7.4-27.7-13.2-40.8l-2.3-4.8c-0.7-1.6-1.5-3.2-2.3-4.8c-1.7-3-3.3-6.2-5.4-9.1
				c-3.8-6.1-8.1-11.6-13.1-16.7c-9.7-10.2-22.2-17.8-36-21.6C-109,260-123.9,259.9-138,263.5z"/>
		</g>
		<g>
			<path class="st36" d="M-1.9,416.6c-2.6-0.7-5.8-1-8.7-1.2c-3-0.1-5.9,0.1-9,0.7c-1.5,0.3-2.9,0.7-4.4,1c-0.7,0.3-1.5,0.6-2.2,0.7
				l-1,0.4l-1,0.4c-2.8,1.2-5.4,3-7.8,4.9c2.2-2.2,4.5-4.4,7.3-5.8l1-0.6l1-0.6c0.7-0.3,1.5-0.7,2.2-1c1.5-0.6,2.9-1.2,4.5-1.6
				c3-0.9,6.2-1.6,9.4-1.9c3.2-0.3,6.4-0.3,9.7,0.1L-1.9,416.6z"/>
		</g>
		<g>
			<path class="st36" d="M-48.3,423.7c0.7,2,1.6,3.9,2.5,5.4c1,1.5,2,2.6,3.3,3.5c1.3,0.9,2.9,1.3,4.8,1.9c0.9,0.1,1.9,0.4,2.9,0.6
				s2,0.3,3.2,0.7c-0.9,0.6-1.9,1-2.9,1.5c-1,0.3-2.2,0.6-3.3,0.7c-2.3,0.1-4.6-0.3-6.8-1.6c-2.2-1.3-3.6-3.6-4.2-5.8
				C-49.5,428.1-49.4,425.7-48.3,423.7z"/>
		</g>
		
			<ellipse transform="matrix(0.9472 -0.3205 0.3205 0.9472 -152.3765 16.8649)" class="st39" cx="-25" cy="471.3" rx="18.6" ry="22.2"/>
		<path class="st40" d="M-112.6,187.8c0,0-5.8,23.4,20.5,37s0,0,0,0s31.9-0.4,26.7-33.8"/>
		<path class="st40" d="M70.4,267.1c0,0,7-22.5,20.3-22.9c13.3-0.4,22.8,11.5,22.8,11.5"/>
		<path class="st41" d="M-100.1,387c0,0-10.7,19.2-21.2-13.8c-10.4-32.9,2.5-41.4,8.6-36"/>
		<path class="st42" d="M8.8,239c0,0-5.9,16.7-3.6,29c1,5.7,7.4,8.3,11.8,4.8c14.2-11.2,48.8-36.9,71.7-43.1
			c7.4-2,15.4-0.7,21.9,3.5c4.5,2.9,9.7,7.4,13.6,13.9c0,0,0.6-11-5.7-21c-7.3-11.6-21.6-15.2-33.2-9.3l-62.3,32.4
			c-2.9,1.5-6.2,0.6-8.3-2L8.8,239z"/>
		<path class="st42" d="M-25.1,241.9c0,0,5.9,16.7,3.6,29c-1,5.7-7.4,8.3-11.8,4.8c-14.2-11.2-48.8-36.9-71.7-43.1
			c-7.4-2-15.4-0.7-21.9,3.5c-4.5,2.9-9.7,7.4-13.6,13.9c0,0-0.6-11,5.7-21c7.3-11.6,21.6-15.2,33.2-9.3l62.3,32.4
			c2.9,1.5,6.2,0.6,8.3-2L-25.1,241.9z"/>
		<path class="st43" d="M62.4,380.2c0,0,12.3-64,23.5-50.1C97.1,344.2,119,258,119,258"/>
		<path class="st44" d="M36.3,359.3c0,0,15.7-68.1,28-58.9c12.3,9.1,24.2-38.5,24.2-38.5"/>
		<path class="st36" d="M95.6,185.6c11.9-61.1-17-112.3-17-112.3c23.9,68.9-2.6,117.5-2.6,117.5"/>
		<g>
			<path class="st36" d="M159.2,156.7c3.9-9.7,7.1-19.6,9.7-29.6c1.3-5.1,2.5-10,3.3-15.1c0.9-5.1,1.7-10.2,2.2-15.2
				c0.4-5.1,0.9-10.3,0.7-15.4c0-5.1-0.3-10.3-0.7-15.4c-1-10.3-3.3-20.3-6.4-30.5c2.6,4.5,4.9,9.3,6.7,14.4c1,2.5,1.6,5.1,2.5,7.5
				c0.3,1.3,0.6,2.6,0.9,3.9c0.3,1.3,0.6,2.6,0.9,3.9c1.2,5.2,1.5,10.6,1.7,16c0.3,5.4,0,10.7-0.4,16c-1,10.6-3.3,21-6.8,31.2
				C169.8,138.4,165.3,148.2,159.2,156.7z"/>
		</g>
		<g>
			<path class="st36" d="M-163.1,166.9c-6.1-8.6-10.6-18.3-14.1-28.3c-3.5-10-5.8-20.5-6.8-31.2c-0.4-5.4-0.7-10.7-0.4-16
				c0.3-5.4,0.7-10.7,1.7-16c0.3-1.3,0.4-2.6,0.9-3.9c0.3-1.3,0.6-2.6,0.9-3.9c0.9-2.6,1.5-5.1,2.5-7.5c1.7-5.1,4.1-9.9,6.7-14.4
				c-3,10-5.4,20.2-6.4,30.5c-0.6,5.1-0.9,10.3-0.7,15.4c0,5.1,0.3,10.3,0.7,15.4c0.4,5.1,1.2,10.2,2.2,15.2
				c0.9,5.1,2,10.2,3.3,15.1C-170.2,147.3-167,157.2-163.1,166.9z"/>
		</g>
		<g>
			<path class="st36" d="M104,123.3c0-3.2,0-6.4-0.1-9.6c-0.1-3.2-0.3-6.2-0.7-9.3l-0.3-2.3l-0.4-2.3c-0.3-1.6-0.6-3-1-4.5
				c-0.7-3-1.9-5.9-3-9c2.2,2.5,3.9,5.2,5.2,8.3c1.2,3,2,6.2,2.5,9.4c0.4,3.2,0.4,6.5,0.1,9.7C105.9,117.1,105.2,120.3,104,123.3z"
				/>
		</g>
		<g>
			<path class="st36" d="M66.7,166.1c2-3.9,3.2-8,4.1-12c0.9-4.1,1.5-8.3,1.6-12.5l0.1-3.2v-3.2c0.1-2.2-0.1-4.2-0.1-6.4
				c-0.1-2.2-0.3-4.2-0.4-6.4c-0.1-2.2-0.4-4.2-0.6-6.4c0.7,2,1.3,4.1,2,6.2c0.4,2.2,1,4.2,1.3,6.4c0.6,4.4,0.9,8.7,0.7,13.1
				c-0.3,4.4-1,8.7-2.3,12.9C71.7,158.9,69.8,163,66.7,166.1z"/>
		</g>
		<path class="st36" d="M-79.2,188.4c0,0-30.5-46.3-12.5-117c0,0-24.4,53.4-7.4,113.3"/>
		<g>
			<path class="st36" d="M-112.8,123.5c-1.5-2.9-2.3-6.1-2.9-9.3c-0.6-3.2-0.7-6.5-0.7-9.7c0.1-3.3,0.7-6.5,1.7-9.7
				c0.9-3.2,2.5-6.1,4.5-8.7c-0.9,3.2-1.7,6.1-2.3,9.1c-0.3,1.6-0.4,3-0.6,4.6l-0.3,2.3l-0.1,2.3c-0.1,3-0.1,6.2,0,9.4
				C-113.3,117.1-113.1,120.3-112.8,123.5z"/>
		</g>
		<g>
			<path class="st36" d="M-72,163c-3.2-2.9-5.5-6.8-7.3-10.9s-2.8-8.4-3.5-12.6c-0.6-4.4-0.7-8.7-0.4-13.1c0.1-2.2,0.4-4.4,0.7-6.5
				c0.4-2.2,0.9-4.2,1.5-6.4c0,2.2,0,4.4,0,6.5s0,4.2,0.1,6.4c0.1,2.2,0.1,4.2,0.3,6.4l0.3,3.2l0.4,3.2c0.6,4.2,1.5,8.3,2.6,12.3
				C-75.9,155.3-74.3,159.3-72,163z"/>
		</g>
		<path class="st38" d="M81,410.9c0,0-24.1-2.5-32.1,19.3c-8,21.8,3,30.5,3,30.5"/>
		<path class="st45" d="M-169.4,187.2h10.6l1.6,8c34.2,7.1,157.4,8.4,157.4,8.4v-3.9L0,176.6c-12-4.8-172.4,5.8-172.4,5.8"/>
		<path class="st46" d="M-72.1,176.9c0,0-28.2-43.1-19.6-105.5c0,0-17.7,57.3-5.1,89l4.6,17.6"/>
		<path class="st45" d="M-156.4,181.5c0,0-42.5-72.8-7.3-160.5l-20.8,15.4l-13.3,28.2l-0.6,43l7.3,46.7l12.9,29l15.1,5.1"/>
		<path class="st47" d="M-108.8,209.5c0,0,24.4,4.5,44-7.1c0,0,7.1,19.3-17.7,31.3"/>
		<path class="st48" d="M-6.1,374.4c0,0-0.6,17.4-7.7,16C-20.9,388.9-6.1,374.4-6.1,374.4z"/>
		<ellipse class="st49" cx="60.2" cy="446.1" rx="3.3" ry="5.7"/>
		
			<ellipse transform="matrix(0.9833 -0.1818 0.1818 0.9833 -79.4426 19.6255)" class="st49" cx="67.3" cy="443.1" rx="1.9" ry="3.2"/>
		<ellipse class="st49" cx="-19.9" cy="477.3" rx="3.3" ry="5.7"/>
		
			<ellipse transform="matrix(0.9833 -0.1818 0.1818 0.9833 -86.4232 5.577)" class="st49" cx="-12.8" cy="474.2" rx="1.9" ry="3.2"/>
		<ellipse class="st50" cx="71.5" cy="420.4" rx="5.4" ry="3"/>
		<ellipse class="st50" cx="-28.9" cy="457.4" rx="5.4" ry="3"/>
		<ellipse class="st14" cx="-40.1" cy="116.8" rx="8.4" ry="14.1"/>
		<ellipse class="st14" cx="-27.4" cy="134.1" rx="4.2" ry="7"/>
		<ellipse class="st14" cx="-149.5" cy="58" rx="7" ry="15.8"/>
		<ellipse class="st14" cx="-133.8" cy="62.7" rx="5.2" ry="8.9"/>
		<ellipse class="st23" cx="-15.3" cy="328.2" rx="4.5" ry="7.4"/>
		<ellipse class="st23" cx="-18.3" cy="313.3" rx="2.8" ry="4.6"/>
		<ellipse class="st23" cx="-132.6" cy="160.8" rx="9.7" ry="16.4"/>
		<ellipse class="st23" cx="-149.5" cy="171.7" rx="4.5" ry="7.4"/>
	</g>
</g>
</svg>
