<?xml version="1.0" encoding="utf-8"?>
<!-- Generator: Adobe Illustrator 24.1.1, SVG Export Plug-In . SVG Version: 6.00 Build 0)  -->
<svg version="1.1" id="Capa_1" xmlns="http://www.w3.org/2000/svg" xmlns:xlink="http://www.w3.org/1999/xlink" x="0px" y="0px"
	 viewBox="0 0 140 700" style="enable-background:new 0 0 140 700;" xml:space="preserve">
<style type="text/css">
	.st0{fill:#6B982B;}
	.st1{fill:#366B2B;}
	.st2{fill:#002E16;}
	.st3{opacity:0.49;fill:#002E16;enable-background:new    ;}
	.st4{opacity:0.56;fill:#002E16;enable-background:new    ;}
	.st5{opacity:0.5;fill:#001F16;enable-background:new    ;}
	.st6{opacity:0.53;fill:#001F16;enable-background:new    ;}
	.st7{opacity:0.68;fill:#001F16;enable-background:new    ;}
	.st8{opacity:0.71;fill:#001F16;enable-background:new    ;}
	.st9{fill:#FFB400;}
	.st10{fill:#751E1E;}
	.st11{fill:#407710;}
	.st12{fill:#B11A00;}
	.st13{fill:#FFFFFF;}
	.st14{opacity:0.24;fill:#FFFFFF;enable-background:new    ;}
	.st15{opacity:0.74;fill:#430000;enable-background:new    ;}
	.st16{fill:#430000;}
	.st17{fill:#606060;}
	.st18{opacity:0.33;enable-background:new    ;}
	.st19{opacity:0.44;fill:#6A0000;enable-background:new    ;}
	.st20{opacity:0.35;fill:#FFFFFF;enable-background:new    ;}
	.st21{opacity:0.61;fill:#FFFFFF;enable-background:new    ;}
	.st22{opacity:0.19;fill:#FFFFFF;enable-background:new    ;}
	.st23{opacity:0.24;enable-background:new    ;}
	.st24{opacity:0.26;enable-background:new    ;}
	.st25{opacity:0.28;enable-background:new    ;}
	.st26{opacity:0.39;fill:#6A0000;enable-background:new    ;}
	.st27{opacity:0.42;fill:#6A0000;enable-background:new    ;}
	.st28{opacity:0.47;fill:#6A0000;enable-background:new    ;}
	.st29{opacity:0.43;fill:#6A0000;enable-background:new    ;}
	.st30{opacity:0.42;enable-background:new    ;}
	.st31{opacity:0.25;enable-background:new    ;}
	.st32{opacity:0.35;fill:#6A0000;enable-background:new    ;}
	.st33{opacity:0.44;}
	.st34{fill:#6A0000;}
	.st35{fill:#520000;}
	.st36{fill:#020202;}
	.st37{fill:none;stroke:#020202;stroke-width:2;stroke-miterlimit:10;}
	.st38{fill:none;stroke:#020202;stroke-width:4;stroke-miterlimit:10;}
	.st39{fill:none;stroke:#020202;stroke-width:2.9999;stroke-miterlimit:9.9995;}
	.st40{fill:none;stroke:#020202;stroke-width:3;stroke-miterlimit:10;}
	.st41{fill:none;stroke:#020202;stroke-width:2.7533;stroke-miterlimit:10;}
	.st42{fill:#020202;stroke:#020202;stroke-width:3.103;stroke-miterlimit:10;}
	.st43{fill:none;stroke:#020202;stroke-width:3.103;stroke-miterlimit:10;}
	.st44{fill:none;stroke:#020202;stroke-width:3.3728;stroke-miterlimit:10;}
	.st45{opacity:0.54;fill:#001F16;enable-background:new    ;}
	.st46{opacity:0.61;fill:#001F16;enable-background:new    ;}
	.st47{opacity:0.49;fill:#001F16;enable-background:new    ;}
	.st48{opacity:0.6;fill:#001F16;enable-background:new    ;}
	.st49{opacity:0.53;enable-background:new    ;}
	.st50{opacity:0.38;fill:#FFFFFF;enable-background:new    ;}
</style>
<g id="Capa_2_1_">
	<g>
		
			<image style="overflow:visible;enable-background:new    ;" width="289" height="437" xlink:href="534D8B0E.png"  transform="matrix(1 0 0 1 -146 -20)">
		</image>
	</g>
</g>
<g id="Capa_1_1_">
	<g>
		<path class="st0" d="M0.6,396.1V118.9h-109.9l3,26.3c0,0,3.8,25.4,0.8,30.8c-3,5.4,20.4,31.6,21.4,35.2c1.1,3.6,7.9,23.9,7.5,33.3
			c-0.3,9.4,9.1,27.3,23.8,46c0,0,6.7,17.9,6.8,27.8c0,9.9,21.5,30.4,21.5,30.4L-9.9,385L0.6,396.1z"/>
		<path class="st1" d="M1.9,11.4c0,0-32.7,0.9-50.2,8.9s-0.9-1.1-0.9-1.1s-50.8-12-62.7-4.3s-21.2,9.1-23.9,46.7
			c-2.7,37.5,9.2,62.5,18.5,68.1l13.4-1.4c0,0,35.7,5.9,44.2,0.6l17.4,4.1l29,4l17,1.7"/>
		<polyline class="st1" points="-78.9,132.5 -59.9,126.8 -44.3,132.6 -44.3,145.2 -54.2,153.7 -63.1,155.8 -74.6,145.4 		"/>
		<path class="st1" d="M-68.6,267.7c0,0-8.2-24.9-10.2-35.4c0,0-10.1,1.8-6.9,14.8C-82.5,260.2-77.3,279.3-68.6,267.7z"/>
		<polyline class="st1" points="-19.5,340 -11.9,340.2 -6,335.5 -3.8,325.8 -7.2,316.8 -19.5,309.9 -25.6,313.7 -29.7,322.4 
			-27.9,332.1 		"/>
		<path class="st2" d="M-14,250.1c0,0-17.1,9.2-35.3-0.5s-21.9-63.4-20.6-69.4c0,0,28.7,3.8,44.2,37.1S-14,250.1-14,250.1z"/>
		<path class="st1" d="M-66.3,16.3c0,0-3.8,19.6-2.3,19.6s32.7,2.2,32.7,2.2l-5.9-21.8l-7.4,3"/>
		<path class="st3" d="M0.6,379.5c0,0-19.8-26.5-21.8-33c-0.2-0.7-0.6-1.3-1.2-1.8c-3.9-3.6-17.9-17.1-19.8-30.2
			c-1.9-12.8-6.9-35.9-15.4-42.6c-4-3.2-7.2-7.4-8.6-12.4c-4-14.2-10.5-38.5-9.8-44.5c1-8.7-18.1-34.8-21.7-34.8
			c-2.9-0.1-2.3-35.2-2-47.2c0.1-2.2-1.7-4-3.9-4.1l0,0c-2.4-0.1-4.3,2-4.1,4.4l2.8,24.6c0,0.2,0,0.3,0,0.5l-0.2,20.6
			c0,0.8,0.2,1.6,0.7,2.2l20.5,30.8c0.3,0.4,0.5,0.9,0.6,1.4l5.7,26.2l6.7,24.6c0.1,0.5,0.3,0.9,0.6,1.3l14.8,21
			c0.1,0.2,0.2,0.3,0.3,0.5l5.1,9.9c0.2,0.4,0.3,0.7,0.4,1.1l3.7,20c0,0.2,0.1,0.4,0.1,0.6l3.8,11.2c0.2,0.5,0.4,0.9,0.8,1.3
			l9.1,10.6l7.4,7.8c0.4,0.4,0.7,0.8,0.8,1.3l7.6,19.9c0,0.1,0.1,0.2,0.2,0.4l8.2,16.5c0.2,0.4,0.5,0.8,0.8,1.1l7.7,7.4"/>
		<path class="st4" d="M0.4,290.8c0,0-16.5,4.6-23.1,10.7c-6.5,6-10.2-8.5-10.2-8.5s-5.3,17.8,10.3,13.2c0,0,21.5-9.6,23.2-4"/>
		<path class="st5" d="M-45.9,260.8c25.7,6.2,34.5-11,34.5-11c-54.5-3.9-58.4-69.6-58.4-69.6c-13.4-0.2-13.4,1.3-13.4,1.3
			c2.4,16.6,14.7,53.1,23,68l0,0C-57.3,255.1-52.1,259.3-45.9,260.8z"/>
		<path class="st6" d="M-16.9,167.7c0,0,6.6,10.4,7.8,20.5c0.8,7.3-7.7,12.1-13.6,7.7c-17.4-12.7-55.9-37.5-72.8-20l7.1-16.5
			l31.9,2.6l35.1,22l4.6-6.9"/>
		<path class="st7" d="M-27.2,317c0,0,1.4,22.5,21.2,18.5c0,0-1.9,9.3-6.5,11.1S-37.2,339.9-27.2,317z"/>
		<path class="st8" d="M-72,270.8c0,0-11.9-19.3-11.1-37l4.3-2.1c0,0,7.4,31.8,10.3,35.9"/>
		<path class="st9" d="M0.6,394.5V137.9c0,0,52.2,0.1,62.3-8.7c0,0,34,1.2,40.6-6.4c0,0,4.4,24.7-6.2,36.6s-1.5,25.7-1.5,25.7
			L73,222.2l-13.2,38.4l-0.1,15.6l-3.4,8.5l-23,34.6L31,332l1.1,5l-3.8,13.7l-13,25.3l-16,19.2"/>
		<path class="st10" d="M0.6,11.4v127.3c0,0,61.6,2.4,62.3-15.9c0,0-5.6,6.7,5.3,6.4s41.9-7.2,41.9-7.2l11.4-8.1
			c0,0,23.5-23.9,6.6-84.7c0,0-7.3-34.7-69.2-15.2l-18.4,5.2C40.6,19.3,12,9.3,0.6,11.4z"/>
		<polyline class="st11" points="8.6,350 15.5,350 22.1,325.5 15.5,325.5 		"/>
		<polyline class="st11" points="13.7,261 18.1,257 11.6,243 7.1,246 		"/>
		<path class="st12" d="M34.6,316.7c0,0,16,8.8,23.7-15c7.7-23.9-14.2-15.5-14.2-15.5s-8.6,6.6-9.9,11.4
			C32.7,302.2,30.9,310.8,34.6,316.7z"/>
		<path class="st12" d="M48.9,185.1l29.7-7.9c0,0-7.3-9.6-18.1-7.9"/>
		<path class="st12" d="M59.9,171.3c0,0-12.4,4.9-13.8,20.8"/>
		<path class="st13" d="M22.1,244.4c0,0,10.6,20.6,24.3,19.9S73.9,225,73.9,225l12.2-49l-51.5,14.1L22.1,244.4z"/>
		<path class="st13" d="M0.6,278.9c0,0,17.9-2.2,26.2-6.9c0,0-3.7,25.8-26.2,30.2"/>
		<ellipse class="st14" cx="87.2" cy="23.8" rx="7.6" ry="6.3"/>
		<path class="st15" d="M74.7,127.6c0,0,0.2-65.5-19.5-76.1c0,0,21.2,57.9,3.5,78.4"/>
		<path class="st16" d="M103.3,121.3c0,0,42.2-61.8,2-113.3c0,0,18,6.1,22.9,21.1s11.4,43.3,3.8,62s-14.9,24.4-17.4,28.6"/>
		<path class="st16" d="M0.4,122.8c0,0,81,10,100.3,0c0,0-26.7,10.6-41.9,7.2c-15.2-3.4,0,0,0,0l-16.7,5.1l-41.4,2.6"/>
		<path class="st17" d="M25.8,274.4"/>
		<path class="st18" d="M0.6,287.1c0,0,16.3,1.9,24.2-7.6c0,0-3.2,21.4-24.2,22.8"/>
		<path class="st19" d="M3.6,171.7c0,0-7.5,21.6,3.5,27s41.1-38.6,55.8-34.6s24.3,11.7,24.3,11.7s-11.5-27.5-27.3-19.9
			c-15.8,7.7-46.7,28.3-46.7,28.3"/>
		<ellipse class="st20" cx="-56.2" cy="195.9" rx="6.9" ry="5.8"/>
		<circle class="st21" cx="-56.5" cy="195.2" r="3.5"/>
		<ellipse class="st20" cx="-44.5" cy="203" rx="2.2" ry="1.9"/>
		<circle class="st21" cx="-44.6" cy="202.7" r="1.1"/>
		<path class="st22" d="M-130.3,32.5c0,0,11-18.7,25.2-19.2s56.7,7.1,56.7,7.1S-8,1,40.6,19.3c0,0,46.2-14.4,56.9-11.9
			s21.7,4.3,26.8,15.4c0,0-26.2-2.7-45.7,2.8c0,0-36,10.9-62.8,3.4c-4.4-1.2-9-1.7-13.6-1.7H-3c-5.7,0-11.3,0.9-16.7,2.7
			c-12.3,4-38,10.4-59.3,1.6c-3.1-1.3-6.3-2.1-9.6-2.6C-99.1,27.6-119.9,25.8-130.3,32.5z"/>
		<path class="st23" d="M-128.8,116c0,0,6,18.4,20.7,12.7s5.5,10.2,48.3,0.2c0,0,78.5,21.5,122.7,0.3c0,0,35.6,0.4,41.6-6.4
			c0,0,12.2-3.1,17-6.8l-32.9,4.9c-8.6,1.3-17.3,1.5-26,0.8l-54-4.8c-6.2-0.5-12.4-0.6-18.5-0.1l-63,5c-8.7,0.7-17.4,0.4-26-1
			L-128.8,116z"/>
		<path class="st18" d="M-107,140.5c0,0,168.8,18.9,211.4-2.6l0.1-15.2c0,0-67.3,12.6-105.1,12.6c-37.8,0.1-65.7-6-107.5-6.7"/>
		<path class="st19" d="M0.6,217.1c0,0,18.5,57.8,59.1,54.9l0.1-11.4c0,0-12.8,11.3-30-3.1L0.6,201.1"/>
		<path class="st24" d="M36.2,293.8c0,0-3.8,28,20.1,8.4c0,0-1.5,16.3-20.1,16.3C36.2,318.5,28.7,311.7,36.2,293.8z"/>
		<polyline class="st25" points="51.6,178.9 72.8,174.6 78.6,177.2 48.9,185.1 		"/>
		<path class="st19" d="M0.6,379.5c0,0,28.5-29.1,29.5-57.8l2,15.3c0,0-8.5,39.9-31.5,57.5"/>
		<path class="st26" d="M46.6,284.1c0,0,7.5-6.4,7.5-19.8l5.7-3.7c0,0-0.2,18-3.5,23.6"/>
		<path class="st27" d="M91.6,174.6c0,0,17.4-37.5,13-51.8c0,0-11.3,6.3-13.4,4.5s3.6,19.2-6.9,49.8"/>
		<path class="st27" d="M0.6,302.2c0,0,19.9-0.3,26.2-30.2c0,0,3.3,35.2-26.2,46.5"/>
		<polygon class="st28" points="19.1,257 20.1,261 12.6,267 9.9,261.5 3.6,247.6 7.1,245 13.5,260.6 		"/>
		<polygon class="st29" points="7.6,350 6.2,355.3 16.4,354.1 25.8,324.4 22.4,324.4 16.4,350 		"/>
		<ellipse class="st18" cx="91.6" cy="109.1" rx="6.6" ry="10.3"/>
		<circle class="st18" cx="100.7" cy="95.1" r="3.9"/>
		<ellipse class="st22" cx="21.5" cy="51.6" rx="10.6" ry="13.5"/>
		<ellipse class="st22" cx="38.1" cy="62.5" rx="3.9" ry="6.5"/>
		<ellipse class="st30" cx="21.4" cy="126.8" rx="8.8" ry="10.8"/>
		<ellipse class="st31" cx="11.2" cy="107.3" rx="4.1" ry="8.2"/>
		<path class="st32" d="M0.6,137.9v3.4c0,0,50.1,5.8,104-10.5v-8"/>
		<g class="st33">
			<path class="st34" d="M26.8,306.2c0.4,1.3,0.6,2.6,0.8,3.9c0.1,1.3,0.1,2.6,0,3.9c-0.2,1.3-0.4,2.6-1.1,4c-0.2,0.3-0.4,0.7-0.9,1
				c-0.1,0.1-0.3,0.1-0.4,0.2c-0.1,0-0.3,0-0.4,0c-0.3,0-0.5-0.1-0.7-0.3c-0.7-0.5-0.9-1.2-1.1-1.8c0.5,0.4,1.1,0.9,1.5,1
				c0.2,0,0.3,0,0.3-0.1c0.1-0.1,0.2-0.3,0.2-0.6c0.3-1,0.4-2.3,0.5-3.5s0.3-2.5,0.5-3.7C26.2,308.7,26.4,307.4,26.8,306.2z"/>
		</g>
		<g class="st33">
			<path class="st34" d="M23,314.5c0.4,1.3,0.5,2.6,0.4,3.9c-0.1,0.7-0.2,1.3-0.6,2c-0.1,0.2-0.2,0.3-0.4,0.5
				c-0.2,0.2-0.6,0.1-0.8,0c-0.3-0.3-0.4-0.6-0.5-0.9c0.3,0.2,0.5,0.4,0.8,0.5c0.1,0,0.1,0,0.1-0.1s0.1-0.2,0.1-0.3
				c0.1-0.5,0.2-1.1,0.3-1.8C22.6,317.1,22.7,315.8,23,314.5z"/>
		</g>
		<g class="st33">
			<path class="st34" d="M24.3,147.6c0.5,1.8,0.7,3.7,0.8,5.5c0.1,1.8,0.1,3.7-0.1,5.6c-0.2,1.9-0.5,3.7-1.5,5.6
				c-0.2,0.4-0.6,0.9-1.1,1.3c-0.2,0.1-0.3,0.2-0.5,0.2s-0.4,0-0.5,0.1c-0.3,0-0.7-0.1-0.9-0.3c-0.9-0.7-1.3-1.6-1.6-2.4
				c0.7,0.6,1.4,1.3,2.1,1.5c0.4,0.1,0.5,0.1,0.7-0.1c0.2-0.2,0.4-0.5,0.5-0.9c0.5-1.5,0.7-3.3,0.9-5.1
				C23.4,154.9,23.6,151.2,24.3,147.6z"/>
		</g>
		<g class="st33">
			<path class="st34" d="M18.9,159.5c0.4,0.9,0.6,1.8,0.8,2.8c0.1,0.9,0.1,1.9,0,2.8c-0.1,1-0.3,1.9-0.9,2.9
				c-0.1,0.2-0.4,0.5-0.7,0.7c-0.2,0.1-0.4,0.2-0.7,0.2c-0.2,0-0.4-0.1-0.6-0.2c-0.5-0.5-0.6-0.9-0.7-1.4c0.4,0.2,0.8,0.5,1.2,0.6
				c0.2,0,0.1-0.1,0-0.1c0-0.1,0-0.2,0.1-0.4c0.1-0.7,0.2-1.6,0.3-2.4c0.1-0.9,0.2-1.8,0.4-2.6C18.3,161.3,18.5,160.4,18.9,159.5z"
				/>
		</g>
		<g>
			<path class="st35" d="M110.7,31.1c2,3.9,3.2,8.1,4,12.4s1.2,8.7,1.1,13c-0.1,4.4-0.4,8.7-1.3,13c-0.4,2.1-1,4.2-1.6,6.3
				c-0.6,2.1-1.4,4.1-2.3,6.1c0-2.2,0.2-4.3,0.3-6.5c0.1-2.1,0.3-4.3,0.4-6.4c0.3-4.2,0.3-8.4,0.4-12.6c0-4.2-0.1-8.4-0.2-12.6
				C111.4,39.7,111.1,35.4,110.7,31.1z"/>
		</g>
		<path class="st36" d="M70.5,226.8l-10.9,1.7l-3.3-1.7l-3.9,5.5L48.3,243l-3.5,11.4l-1.5,6.6v3.7c0,0,36.6,4.9,47.6-73.6l17.1-5.9
			l-2.9-13.5l-22.7,7.2c0,0-9.6,42.1-19.5,53.4"/>
		<path class="st36" d="M25.4,248.6c0,0,11.5-39.9,15.4-40.3s5.6,0.4,5.6,0.4s8.6,1.1,15-27.3L0.6,197C0.6,197,12,231.3,25.4,248.6z
			"/>
		<path class="st37" d="M43.4,261c0,0-13.9-11-17.6-18"/>
		<g>
			<path class="st36" d="M38,251.1c-1.9-1-3.7-2.2-5.4-3.5s-3.3-2.7-4.8-4.1c-1.5-1.5-3-3-4.3-4.8c-1.3-1.7-2.5-3.5-3.1-5.6
				c1.3,1.7,2.8,3.1,4.3,4.6c1.5,1.5,3,2.9,4.5,4.4C32.1,245,35.2,247.9,38,251.1z"/>
		</g>
		<line class="st37" x1="56.2" y1="188.1" x2="86" y2="180.2"/>
		<g>
			<path class="st36" d="M69.5,188.1c2-0.8,3.9-1.4,5.9-2s4-1.1,6-1.6s4.1-0.9,6.1-1.3c2.1-0.4,4.1-0.7,6.2-0.9
				c-2,0.8-3.9,1.4-5.9,2.1c-2,0.6-4,1.1-6,1.6s-4.1,0.9-6.1,1.3C73.6,187.6,71.6,187.9,69.5,188.1z"/>
		</g>
		<g>
			<path class="st36" d="M-25.6,325.5c0.5,1.5,1.1,2.8,1.7,4.1c0.7,1.2,1.5,2.3,2.5,3.2c1,0.8,2.2,1.5,3.6,1.8l0.5,0.2l0.5,0.1
				l1.1,0.2c0.7,0.1,1.5,0.1,2.3,0.2c-0.7,0.3-1.5,0.6-2.2,0.7l-1.2,0.1c-0.2,0-0.4,0-0.6,0H-18c-1.6,0-3.3-0.7-4.6-1.8
				c-1.3-1.1-2.2-2.6-2.7-4.1C-25.7,328.7-25.9,327-25.6,325.5z"/>
		</g>
		<g>
			<path class="st36" d="M36.2,309.2c0.9,1.5,2,2.9,3.3,3.4s2.8,0.1,4.2-0.5c1.4-0.7,2.8-1.7,4.1-2.7s2.7-2.1,4.1-3.2
				c-0.8,1.6-1.8,3-3.1,4.3c-1.2,1.3-2.6,2.5-4.3,3.3c-0.9,0.4-1.8,0.7-2.8,0.8c-1,0.1-2.1-0.1-3-0.7c-0.9-0.5-1.5-1.3-1.9-2.1
				C36.5,310.9,36.2,310.1,36.2,309.2z"/>
		</g>
		<g>
			<path class="st36" d="M-70.6,144.2c1.8,1.5,3.7,2.8,5.7,3.8c2,0.9,4.1,1.5,6.1,1c2-0.3,3.8-1.6,5.3-3.2c1.6-1.6,2.9-3.5,4.3-5.4
				c-0.6,2.3-1.6,4.5-3,6.4c-0.7,1-1.6,1.9-2.6,2.6c-1,0.7-2.3,1.3-3.5,1.5c-1.3,0.2-2.6,0.2-3.9-0.1c-1.2-0.3-2.4-0.9-3.4-1.5
				C-67.8,148.1-69.4,146.3-70.6,144.2z"/>
		</g>
		<path class="st38" d="M0.6,396.1c0,0,30.9-35.3,31.5-63.6c0,0-3.2-16.8,6.6-13.9c10.3,3,27.4-17.2,17.6-34.3c0,0,5.9-5.3,3.5-23.6
			c0,0,30.6-30.6,31.2-69.5l17.1-5.9l-2.9-13.5l-13.5,2.9c0,0,3.5-13.5,8.8-20s4.1-31.8,4.1-31.8s27.7,2.9,30-56
			c2.3-59-37.1-59.5-37.1-59.5S83.6,6.2,40.6,19.2c0,0-38.2-18.3-88.9,1.1c0,0-36.3-9.2-52.1-7.7c-14.5,1.4-40,6.5-34.7,68.3
			s25.9,47.9,25.9,47.9s7.1,31,4.1,44.5c-2.9,13.5,19.4,28.9,23.6,45.1c4.1,16.2,5.3,42.1,18.3,56.8c13,14.7,15.9,26.5,15.9,34.7
			s7.1,24.7,18.3,33.6C-18,352.5-17.9,384.3,0.6,396.1z"/>
		<path class="st38" d="M-109.2,127.3c0,0,34.2,7.1,49.5,1.6c0,0,67.1,20.3,126,0c0,0,20.5,2.5,37.3-6.1"/>
		<path class="st38" d="M59.8,260.6c0,0-18.8,17.1-38.9-18.3c-12.4-21.8-17.2-34-19.1-40.1c-0.9-2.8,0.8-5.8,3.7-6.5l86.1-21.2"/>
		<g>
			<path class="st36" d="M0.9,299.3c0.2,0,0.7,0.1,1,0.1c0.4,0,0.8,0,1.2,0s0.8-0.1,1.2-0.1s0.8-0.1,1.2-0.2l1.2-0.3l1.2-0.4
				c0.8-0.2,1.5-0.6,2.3-0.9c3-1.5,5.6-3.7,7.8-6.4l0.8-1c0.3-0.3,0.5-0.7,0.8-1.1l1.4-2.2c0.5-0.7,0.8-1.5,1.2-2.3
				c0.4-0.8,0.8-1.6,1.2-2.4c0.6-1.7,1.3-3.3,1.9-5l1.5-5.1l-1,5.3c-0.4,1.7-1,3.5-1.5,5.2c-0.3,0.8-0.7,1.7-1,2.5
				c-0.4,0.8-0.6,1.7-1.1,2.5l-1.3,2.4c-0.2,0.4-0.4,0.8-0.7,1.2l-0.8,1.1c-2.1,3-4.7,5.8-8,7.8c-0.8,0.5-1.6,1-2.5,1.3L7.7,302
				l-1.4,0.4c-0.5,0.2-0.9,0.3-1.4,0.4s-1,0.2-1.4,0.3c-0.5,0.1-1,0.1-1.5,0.2c-0.5,0-1,0.1-1.6,0L0.9,299.3z"/>
		</g>
		<g>
			<path class="st36" d="M0.5,276.9c2.5,0,5.1-0.2,7.7-0.5s5.1-0.6,7.7-1.1c2.5-0.5,5.1-1.1,7.5-1.9s4.8-1.9,7-3.3
				c-2,1.7-4.3,3.1-6.6,4.3c-2.4,1.2-4.9,2.1-7.4,2.9s-5.1,1.5-7.7,2.1s-5.2,1.1-7.9,1.5L0.5,276.9z"/>
		</g>
		<g>
			<path class="st36" d="M24.8,264.7c1.5-1,3.3-1.5,5.2-1.5c1.9,0,4,0.6,5.5,2.2c0.7,0.8,1.3,1.8,1.5,2.7c0.3,1,0.4,2,0.3,2.9
				c-0.1,1.9-0.7,3.6-1.7,5.1c-0.2-1.8-0.3-3.5-0.6-5s-0.8-2.8-1.7-3.7c-0.8-0.9-2.1-1.5-3.6-1.9C28.2,265.2,26.6,265,24.8,264.7z"
				/>
		</g>
		<polygon class="st37" points="15.5,350 22.1,325.5 15.5,325.5 8.6,350 		"/>
		<polygon class="st37" points="11.6,243 18.1,257 13.7,261 7.1,246 		"/>
		<g>
			<path class="st36" d="M83.2,127.5c0.2,0.1,0.2,0.2,0.3,0.2c0.1,0.1,0.1,0.1,0.2,0.2s0.2,0.2,0.3,0.3c0.2,0.2,0.3,0.5,0.4,0.7
				c0.3,0.4,0.5,0.9,0.6,1.3c0.4,0.9,0.6,1.8,0.8,2.7c0.4,1.8,0.5,3.5,0.6,5.3c0.1,1.7,0.1,3.5,0,5.2s-0.2,3.4-0.4,5.1
				c-0.1-1.7-0.2-3.4-0.4-5.1c-0.2-1.7-0.4-3.4-0.7-5c-0.3-1.6-0.7-3.3-1.3-4.8c-0.3-0.8-0.6-1.5-1-2.2c-0.2-0.3-0.4-0.6-0.6-0.9
				c-0.1-0.1-0.2-0.3-0.3-0.4c-0.1-0.1-0.1-0.1-0.1-0.1l0,0c0,0,0,0,0.1,0L83.2,127.5z"/>
		</g>
		<g>
			<path class="st36" d="M77,128c0.2,0.2,0.2,0.2,0.2,0.2c0.1,0.1,0.1,0.1,0.1,0.1c0.1,0.1,0.1,0.2,0.2,0.2c0.1,0.2,0.1,0.3,0.2,0.4
				c0.1,0.2,0.2,0.5,0.3,0.7c0.1,0.5,0.2,0.9,0.3,1.3c0.2,0.9,0.2,1.7,0.3,2.6c0.1,1.7,0.1,3.4,0.1,5c-0.4-1.6-0.9-3.2-1.5-4.7
				c-0.3-0.8-0.6-1.5-1-2.2c-0.2-0.3-0.4-0.7-0.6-1c-0.1-0.1-0.2-0.3-0.3-0.4l-0.1-0.1l0,0l0,0c0,0,0,0,0.1,0.1L77,128z"/>
		</g>
		<g>
			<path class="st36" d="M-92.8,131.8c-0.1,0-0.3,0.1-0.5,0.1c-0.2,0.1-0.4,0.2-0.5,0.3c-0.3,0.2-0.7,0.4-1,0.7
				c-0.6,0.5-1.2,1.3-1.6,2.1s-0.7,1.7-0.8,2.7c-0.1,0.5-0.1,1-0.1,1.4v1.5l-0.4-1.4c-0.1-0.5-0.2-1-0.2-1.5c-0.1-1-0.1-2.1,0.2-3.1
				c0.2-1,0.7-2.1,1.3-3c0.3-0.5,0.7-0.9,1.1-1.3c0.5-0.4,0.8-0.8,1.5-1.1L-92.8,131.8z"/>
		</g>
		<g>
			<path class="st36" d="M-85.2,131.3c-1.2,1-2.3,2.2-3.3,3.5s-1.9,2.7-2.6,4.1c-0.8,1.5-1.3,3-1.7,4.6c-0.4,1.6-0.5,3.3-0.5,5
				c-0.2-1.7-0.3-3.4,0-5c0.2-1.7,0.6-3.3,1.3-4.9c0.6-1.6,1.4-3.1,2.3-4.6s1.9-2.8,3.2-4.1L-85.2,131.3z"/>
		</g>
		<g>
			<path class="st36" d="M-94.7,182.6c9.4-3.5,19.9-4,29.9-2c5,1.1,9.8,2.9,14.4,5.4c4.5,2.5,8.6,5.6,12.3,9.2l1.4,1.3
				c0.4,0.5,0.9,0.9,1.3,1.4c0.8,1,1.8,1.9,2.6,2.9l2.4,3c0.8,1,1.5,2.1,2.2,3.2c1.5,2.1,2.7,4.3,4,6.5c0.7,1.1,1.2,2.3,1.8,3.4
				l1.7,3.4c4.2,9.3,7.2,19,9.5,28.9l0.4,1.6l-1.5,0.7c-1.2,0.6-2.3,1.1-3.4,1.5s-2.3,0.8-3.5,1.2c-2.3,0.7-4.7,1.3-7.2,1.6
				c-4.9,0.7-10,0.7-14.8-0.7c-4.8-1.3-9.4-3.9-13-7.3c-3.7-3.4-6.3-7.6-8.4-12l-0.8-1.6l-0.7-1.7c-0.4-1.1-0.9-2.2-1.3-3.4
				c-0.7-2.3-1.5-4.6-1.9-6.9l-0.8-3.5c-0.2-1.2-0.4-2.3-0.6-3.5s-0.4-2.3-0.5-3.5l-0.4-3.5c-0.9-9.4-0.8-18.9-0.2-28.2
				c0.3,9.4,0.8,18.8,2.3,28l0.5,3.5c0.2,1.1,0.5,2.3,0.7,3.4c0.2,1.1,0.5,2.3,0.7,3.4l0.9,3.3c0.3,1.1,0.6,2.2,1,3.3l1.1,3.3
				c0.4,1.1,0.9,2.1,1.3,3.2l0.7,1.6l0.8,1.5c2.1,4,4.7,7.7,8,10.7s7.2,5.1,11.5,6.1c8.5,2.1,18,0.3,25.8-3.5l-1.1,2.4
				c-2.2-9.6-5.1-19.1-9.1-28.1l-1.6-3.3c-0.5-1.1-1-2.2-1.6-3.3c-1.2-2.1-2.3-4.3-3.7-6.3c-2.6-4.2-5.6-8-9-11.5
				c-6.7-7-15.3-12.3-24.8-14.9C-74.7,180.2-85,180.1-94.7,182.6z"/>
		</g>
		<g>
			<path class="st36" d="M-0.9,288.1c-1.8-0.5-4-0.7-6-0.8c-2.1-0.1-4.1,0.1-6.2,0.5c-1,0.2-2,0.5-3,0.7c-0.5,0.2-1,0.4-1.5,0.5
				l-0.7,0.3l-0.7,0.3c-1.9,0.8-3.7,2.1-5.4,3.4c1.5-1.5,3.1-3,5-4l0.7-0.4l0.7-0.4c0.5-0.2,1-0.5,1.5-0.7c1-0.4,2-0.8,3.1-1.1
				c2.1-0.6,4.3-1.1,6.5-1.3c2.2-0.2,4.4-0.2,6.7,0.1L-0.9,288.1z"/>
		</g>
		<g>
			<path class="st36" d="M-32.9,293c0.5,1.4,1.1,2.7,1.7,3.7c0.7,1,1.4,1.8,2.3,2.4s2,0.9,3.3,1.3c0.6,0.1,1.3,0.3,2,0.4
				s1.4,0.2,2.2,0.5c-0.6,0.4-1.3,0.7-2,1c-0.7,0.2-1.5,0.4-2.3,0.5c-1.6,0.1-3.2-0.2-4.7-1.1s-2.5-2.5-2.9-4
				C-33.7,296-33.6,294.4-32.9,293z"/>
		</g>
		
			<ellipse transform="matrix(0.9472 -0.3205 0.3205 0.9472 -105.308 11.8064)" class="st39" cx="-16.8" cy="325.8" rx="12.8" ry="15.3"/>
		<path class="st40" d="M-77.2,130.4c0,0-4,16.1,14.1,25.5s0,0,0,0s22-0.3,18.4-23.3"/>
		<path class="st40" d="M48.9,185.1c0,0,4.8-15.5,14-15.8s15.7,7.9,15.7,7.9"/>
		<path class="st41" d="M-68.6,267.7c0,0-7.4,13.2-14.6-9.5s1.7-28.5,5.9-24.8"/>
		<path class="st42" d="M6.5,165.7c0,0-4.1,11.5-2.5,20c0.7,3.9,5.1,5.7,8.1,3.3c9.8-7.7,33.6-25.4,49.4-29.7
			c5.1-1.4,10.6-0.5,15.1,2.4c3.1,2,6.7,5.1,9.4,9.6c0,0,0.4-7.6-3.9-14.5c-5-8-14.9-10.5-22.9-6.4l-42.9,22.3c-2,1-4.3,0.4-5.7-1.4
			L6.5,165.7z"/>
		<path class="st42" d="M-16.9,167.7c0,0,4.1,11.5,2.5,20c-0.7,3.9-5.1,5.7-8.1,3.3c-9.8-7.7-33.6-25.4-49.4-29.7
			c-5.1-1.4-10.6-0.5-15.1,2.4c-3.1,2-6.7,5.1-9.4,9.6c0,0-0.4-7.6,3.9-14.5c5-8,14.9-10.5,22.9-6.4l42.9,22.3c2,1,4.3,0.4,5.7-1.4
			L-16.9,167.7z"/>
		<path class="st43" d="M43.4,263c0,0,8.5-44.1,16.2-34.5c7.7,9.7,22.8-49.7,22.8-49.7"/>
		<path class="st44" d="M25.4,248.6c0,0,10.8-46.9,19.3-40.6s16.7-26.5,16.7-26.5"/>
		<path class="st36" d="M66.3,128.9c8.2-42.1-11.7-77.4-11.7-77.4c16.5,47.5-1.8,81-1.8,81"/>
		<g>
			<path class="st36" d="M110.1,109c2.7-6.7,4.9-13.5,6.7-20.4c0.9-3.5,1.7-6.9,2.3-10.4c0.6-3.5,1.2-7,1.5-10.5s0.6-7.1,0.5-10.6
				c0-3.5-0.2-7.1-0.5-10.6c-0.7-7.1-2.3-14-4.4-21c1.8,3.1,3.4,6.4,4.6,9.9c0.7,1.7,1.1,3.5,1.7,5.2c0.2,0.9,0.4,1.8,0.6,2.7
				s0.4,1.8,0.6,2.7c0.8,3.6,1,7.3,1.2,11s0,7.4-0.3,11c-0.7,7.3-2.3,14.5-4.7,21.5C117.4,96.4,114.3,103.1,110.1,109z"/>
		</g>
		<g>
			<path class="st36" d="M-112,116c-4.2-5.9-7.3-12.6-9.7-19.5c-2.4-6.9-4-14.1-4.7-21.5c-0.3-3.7-0.5-7.4-0.3-11
				c0.2-3.7,0.5-7.4,1.2-11c0.2-0.9,0.3-1.8,0.6-2.7c0.2-0.9,0.4-1.8,0.6-2.7c0.6-1.8,1-3.5,1.7-5.2c1.2-3.5,2.8-6.8,4.6-9.9
				c-2.1,6.9-3.7,13.9-4.4,21c-0.4,3.5-0.6,7.1-0.5,10.6c0,3.5,0.2,7.1,0.5,10.6s0.8,7,1.5,10.5c0.6,3.5,1.4,7,2.3,10.4
				C-116.9,102.5-114.7,109.3-112,116z"/>
		</g>
		<g>
			<path class="st36" d="M72.1,86c0-2.2,0-4.4-0.1-6.6s-0.2-4.3-0.5-6.4l-0.2-1.6L71,69.8c-0.2-1.1-0.4-2.1-0.7-3.1
				c-0.5-2.1-1.3-4.1-2.1-6.2c1.5,1.7,2.7,3.6,3.6,5.7c0.8,2.1,1.4,4.3,1.7,6.5c0.3,2.2,0.3,4.5,0.1,6.7
				C73.4,81.7,72.9,83.9,72.1,86z"/>
		</g>
		<g>
			<path class="st36" d="M46.4,115.5c1.4-2.7,2.2-5.5,2.8-8.3s1-5.7,1.1-8.6l0.1-2.2v-2.2c0.1-1.5-0.1-2.9-0.1-4.4
				c-0.1-1.5-0.2-2.9-0.3-4.4s-0.3-2.9-0.4-4.4c0.5,1.4,0.9,2.8,1.4,4.3c0.3,1.5,0.7,2.9,0.9,4.4c0.4,3,0.6,6,0.5,9
				c-0.2,3-0.7,6-1.6,8.9C49.8,110.5,48.5,113.3,46.4,115.5z"/>
		</g>
		<path class="st36" d="M-54.2,130.8c0,0-21-31.9-8.6-80.6c0,0-16.8,36.8-5.1,78.1"/>
		<g>
			<path class="st36" d="M-77.3,86.1c-1-2-1.6-4.2-2-6.4c-0.4-2.2-0.5-4.5-0.5-6.7c0.1-2.3,0.5-4.5,1.2-6.7c0.6-2.2,1.7-4.2,3.1-6
				c-0.6,2.2-1.2,4.2-1.6,6.3c-0.2,1.1-0.3,2.1-0.4,3.2l-0.2,1.6l-0.1,1.6c-0.1,2.1-0.1,4.3,0,6.5C-77.7,81.7-77.5,83.9-77.3,86.1z"
				/>
		</g>
		<g>
			<path class="st36" d="M-49.2,113.3c-2.2-2-3.8-4.7-5-7.5s-1.9-5.8-2.4-8.7c-0.4-3-0.5-6-0.3-9c0.1-1.5,0.3-3,0.5-4.5
				c0.3-1.5,0.6-2.9,1-4.4c0,1.5,0,3,0,4.5s0,2.9,0.1,4.4s0.1,2.9,0.2,4.4l0.2,2.2l0.3,2.2c0.4,2.9,1,5.7,1.8,8.5
				C-51.9,108-50.8,110.8-49.2,113.3z"/>
		</g>
		<path class="st38" d="M56.2,284.2c0,0-16.6-1.7-22.1,13.3s2.1,21,2.1,21"/>
		<path class="st45" d="M-116.3,130h7.3l1.1,5.5c23.6,4.9,108.5,5.8,108.5,5.8v-2.7l-0.2-15.9c-8.3-3.3-118.8,4-118.8,4"/>
		<path class="st46" d="M-49.3,122.9c0,0-19.4-29.7-13.5-72.7c0,0-12.2,39.5-3.5,61.3l3.2,12.1"/>
		<path class="st45" d="M-107.4,126.1c0,0-29.3-50.2-5-110.6l-14.3,10.6l-9.2,19.4l-0.4,29.6l5,32.2l8.9,20l10.4,3.5"/>
		<path class="st47" d="M-74.6,145.4c0,0,16.8,3.1,30.3-4.9c0,0,4.9,13.3-12.2,21.6"/>
		<path class="st48" d="M-3.8,259c0,0-0.4,12-5.3,11S-3.8,259-3.8,259z"/>
		<ellipse class="st49" cx="41.9" cy="308.4" rx="2.3" ry="3.9"/>
		
			<ellipse transform="matrix(0.9833 -0.1818 0.1818 0.9833 -54.9222 13.6159)" class="st49" cx="46.8" cy="306.4" rx="1.3" ry="2.2"/>
		<ellipse class="st49" cx="-13.3" cy="329.9" rx="2.3" ry="3.9"/>
		
			<ellipse transform="matrix(0.9833 -0.1818 0.1818 0.9833 -59.7328 3.9345)" class="st49" cx="-8.4" cy="327.8" rx="1.3" ry="2.2"/>
		<ellipse class="st50" cx="49.7" cy="290.7" rx="3.7" ry="2.1"/>
		<ellipse class="st50" cx="-19.5" cy="316.2" rx="3.7" ry="2.1"/>
		<ellipse class="st14" cx="-27.2" cy="81.5" rx="5.8" ry="9.7"/>
		<ellipse class="st14" cx="-18.5" cy="93.4" rx="2.9" ry="4.8"/>
		<ellipse class="st14" cx="-102.6" cy="41" rx="4.8" ry="10.9"/>
		<ellipse class="st14" cx="-91.8" cy="44.2" rx="3.6" ry="6.1"/>
		<ellipse class="st23" cx="-10.1" cy="227.2" rx="3.1" ry="5.1"/>
		<ellipse class="st23" cx="-12.2" cy="216.9" rx="1.9" ry="3.2"/>
		<ellipse class="st23" cx="-91" cy="111.8" rx="6.7" ry="11.3"/>
		<ellipse class="st23" cx="-102.6" cy="119.3" rx="3.1" ry="5.1"/>
	</g>
</g>
</svg>
